%TF.GenerationSoftware,KiCad,Pcbnew,9.0.7*%
%TF.CreationDate,2026-03-23T03:25:44-05:00*%
%TF.ProjectId,mainBoardV2,6d61696e-426f-4617-9264-56322e6b6963,rev?*%
%TF.SameCoordinates,Original*%
%TF.FileFunction,Copper,L2,Bot*%
%TF.FilePolarity,Positive*%
%FSLAX46Y46*%
G04 Gerber Fmt 4.6, Leading zero omitted, Abs format (unit mm)*
G04 Created by KiCad (PCBNEW 9.0.7) date 2026-03-23 03:25:44*
%MOMM*%
%LPD*%
G01*
G04 APERTURE LIST*
G04 Aperture macros list*
%AMRoundRect*
0 Rectangle with rounded corners*
0 $1 Rounding radius*
0 $2 $3 $4 $5 $6 $7 $8 $9 X,Y pos of 4 corners*
0 Add a 4 corners polygon primitive as box body*
4,1,4,$2,$3,$4,$5,$6,$7,$8,$9,$2,$3,0*
0 Add four circle primitives for the rounded corners*
1,1,$1+$1,$2,$3*
1,1,$1+$1,$4,$5*
1,1,$1+$1,$6,$7*
1,1,$1+$1,$8,$9*
0 Add four rect primitives between the rounded corners*
20,1,$1+$1,$2,$3,$4,$5,0*
20,1,$1+$1,$4,$5,$6,$7,0*
20,1,$1+$1,$6,$7,$8,$9,0*
20,1,$1+$1,$8,$9,$2,$3,0*%
%AMFreePoly0*
4,1,237,0.029172,0.853997,0.029356,0.853987,0.057356,0.851987,0.057683,0.851953,0.086683,0.847953,0.086879,0.847922,0.114879,0.842922,0.115213,0.842851,0.143213,0.835851,0.143374,0.835808,0.171374,0.827808,0.171737,0.827689,0.198737,0.817689,0.198886,0.817630,0.225886,0.806630,0.226095,0.806540,0.252095,0.794540,0.252443,0.794363,0.277443,0.780363,0.277572,0.780287,
0.302572,0.765287,0.302855,0.765105,0.325855,0.749105,0.326082,0.748938,0.349082,0.730938,0.371166,0.712870,0.371448,0.712621,0.392448,0.692621,0.392621,0.692448,0.412621,0.671448,0.412870,0.671166,0.430938,0.649082,0.448938,0.626082,0.449105,0.625855,0.465105,0.602855,0.465287,0.602572,0.480287,0.577572,0.480363,0.577443,0.494363,0.552443,0.494540,0.552095,
0.506540,0.526095,0.506630,0.525886,0.517630,0.498886,0.517689,0.498737,0.527689,0.471737,0.527808,0.471374,0.535808,0.443374,0.535851,0.443213,0.542851,0.415213,0.542922,0.414879,0.547922,0.386879,0.547953,0.386683,0.551953,0.357683,0.551987,0.357356,0.553987,0.329356,0.553997,0.329172,0.554997,0.300172,0.555000,0.300000,0.555000,-0.300000,0.554997,-0.300172,
0.553997,-0.329172,0.553987,-0.329356,0.551987,-0.357356,0.551953,-0.357683,0.547953,-0.386683,0.547922,-0.386879,0.542922,-0.414879,0.542851,-0.415213,0.535851,-0.443213,0.535808,-0.443374,0.527808,-0.471374,0.527689,-0.471737,0.517689,-0.498737,0.517630,-0.498886,0.506630,-0.525886,0.506540,-0.526095,0.494540,-0.552095,0.494363,-0.552443,0.480363,-0.577443,0.480287,-0.577572,
0.465287,-0.602572,0.465105,-0.602855,0.449105,-0.625855,0.448938,-0.626082,0.430938,-0.649082,0.412870,-0.671166,0.412621,-0.671448,0.392621,-0.692448,0.392448,-0.692621,0.371448,-0.712621,0.371166,-0.712870,0.349082,-0.730938,0.326082,-0.748938,0.325855,-0.749105,0.302855,-0.765105,0.302572,-0.765287,0.277572,-0.780287,0.277443,-0.780363,0.252443,-0.794363,0.252095,-0.794540,
0.226095,-0.806540,0.225886,-0.806630,0.198886,-0.817630,0.198737,-0.817689,0.171737,-0.827689,0.171374,-0.827808,0.143374,-0.835808,0.143213,-0.835851,0.115213,-0.842851,0.114879,-0.842922,0.086879,-0.847922,0.086683,-0.847953,0.057683,-0.851953,0.057356,-0.851987,0.029356,-0.853987,0.029172,-0.853997,0.000172,-0.854997,-0.000172,-0.854997,-0.029172,-0.853997,-0.029356,-0.853987,
-0.057356,-0.851987,-0.057683,-0.851953,-0.086683,-0.847953,-0.086879,-0.847922,-0.114879,-0.842922,-0.115213,-0.842851,-0.143213,-0.835851,-0.143374,-0.835808,-0.171374,-0.827808,-0.171737,-0.827689,-0.198737,-0.817689,-0.198886,-0.817630,-0.225886,-0.806630,-0.226095,-0.806540,-0.252095,-0.794540,-0.252443,-0.794363,-0.277443,-0.780363,-0.277572,-0.780287,-0.302572,-0.765287,-0.302855,-0.765105,
-0.325855,-0.749105,-0.326082,-0.748938,-0.349082,-0.730938,-0.371166,-0.712870,-0.371448,-0.712621,-0.392448,-0.692621,-0.392621,-0.692448,-0.412621,-0.671448,-0.412870,-0.671166,-0.430938,-0.649082,-0.448938,-0.626082,-0.449105,-0.625855,-0.465105,-0.602855,-0.465287,-0.602572,-0.480287,-0.577572,-0.480363,-0.577443,-0.494363,-0.552443,-0.494540,-0.552095,-0.506540,-0.526095,-0.506630,-0.525886,
-0.517630,-0.498886,-0.517689,-0.498737,-0.527689,-0.471737,-0.527808,-0.471374,-0.535808,-0.443374,-0.535851,-0.443213,-0.542851,-0.415213,-0.542922,-0.414879,-0.547922,-0.386879,-0.547953,-0.386683,-0.551953,-0.357683,-0.551987,-0.357356,-0.553987,-0.329356,-0.553997,-0.329172,-0.554997,-0.300172,-0.555000,-0.300000,-0.555000,0.300000,-0.554997,0.300172,-0.553997,0.329172,-0.553987,0.329356,
-0.551987,0.357356,-0.551953,0.357683,-0.547953,0.386683,-0.547922,0.386879,-0.542922,0.414879,-0.542851,0.415213,-0.535851,0.443213,-0.535808,0.443374,-0.527808,0.471374,-0.527689,0.471737,-0.517689,0.498737,-0.517630,0.498886,-0.506630,0.525886,-0.506540,0.526095,-0.494540,0.552095,-0.494363,0.552443,-0.480363,0.577443,-0.480287,0.577572,-0.465287,0.602572,-0.465105,0.602855,
-0.449105,0.625855,-0.448938,0.626082,-0.430938,0.649082,-0.412870,0.671166,-0.412621,0.671448,-0.392621,0.692448,-0.392448,0.692621,-0.371448,0.712621,-0.371166,0.712870,-0.349082,0.730938,-0.326082,0.748938,-0.325855,0.749105,-0.302855,0.765105,-0.302572,0.765287,-0.277572,0.780287,-0.277443,0.780363,-0.252443,0.794363,-0.252095,0.794540,-0.226095,0.806540,-0.225886,0.806630,
-0.198886,0.817630,-0.198737,0.817689,-0.171737,0.827689,-0.171374,0.827808,-0.143374,0.835808,-0.143213,0.835851,-0.115213,0.842851,-0.114879,0.842922,-0.086879,0.847922,-0.086683,0.847953,-0.057683,0.851953,-0.057356,0.851987,-0.029356,0.853987,-0.029172,0.853997,-0.000172,0.854997,0.000172,0.854997,0.029172,0.853997,0.029172,0.853997,$1*%
G04 Aperture macros list end*
%TA.AperFunction,ComponentPad*%
%ADD10C,1.905000*%
%TD*%
%TA.AperFunction,ComponentPad*%
%ADD11FreePoly0,0.000000*%
%TD*%
%TA.AperFunction,ComponentPad*%
%ADD12RoundRect,0.250000X-0.350000X-0.625000X0.350000X-0.625000X0.350000X0.625000X-0.350000X0.625000X0*%
%TD*%
%TA.AperFunction,ComponentPad*%
%ADD13O,1.200000X1.750000*%
%TD*%
%TA.AperFunction,ComponentPad*%
%ADD14C,2.000000*%
%TD*%
%TA.AperFunction,ViaPad*%
%ADD15C,0.600000*%
%TD*%
%TA.AperFunction,ViaPad*%
%ADD16C,1.000000*%
%TD*%
%TA.AperFunction,Conductor*%
%ADD17C,0.200000*%
%TD*%
%TA.AperFunction,Conductor*%
%ADD18C,0.800000*%
%TD*%
%TA.AperFunction,Conductor*%
%ADD19C,0.400000*%
%TD*%
%TA.AperFunction,Conductor*%
%ADD20C,2.000000*%
%TD*%
G04 APERTURE END LIST*
D10*
%TO.P,U4,AD0,AD0*%
%TO.N,unconnected-(U4-PadAD0)*%
X218890000Y-114130000D03*
%TO.P,U4,GND,GND*%
%TO.N,GND*%
X206190000Y-114130000D03*
%TO.P,U4,INT,INT*%
%TO.N,unconnected-(U4-PadINT)*%
X221430000Y-114130000D03*
%TO.P,U4,SCL,SCL*%
%TO.N,unconnected-(U4-PadSCL)*%
X208730000Y-114130000D03*
%TO.P,U4,SDA,SDA*%
%TO.N,unconnected-(U4-PadSDA)*%
X211270000Y-114130000D03*
%TO.P,U4,VCC,VCC*%
%TO.N,/VoutBoost*%
X203650000Y-114130000D03*
%TO.P,U4,XCL,XCL*%
%TO.N,unconnected-(U4-PadXCL)*%
X216350000Y-114130000D03*
%TO.P,U4,XDA,XDA*%
%TO.N,unconnected-(U4-PadXDA)*%
X213810000Y-114130000D03*
%TD*%
%TO.P,,5V,SDA*%
%TO.N,/VoutBoost*%
X216200000Y-117700000D03*
%TD*%
D11*
%TO.P,J1,S1,SHIELD*%
%TO.N,GND*%
X224389958Y-132750000D03*
%TO.P,J1,S2,SHIELD*%
X233029958Y-132750000D03*
%TO.P,J1,S3,SHIELD*%
X224389958Y-136550000D03*
%TO.P,J1,S4,SHIELD*%
X233029958Y-136550000D03*
%TD*%
D12*
%TO.P,U6,1,VBAT+*%
%TO.N,/VBatt+*%
X209900000Y-131950000D03*
D13*
%TO.P,U6,2,VBAT-*%
%TO.N,GND*%
X211900000Y-131950000D03*
%TD*%
D14*
%TO.P,R13,1*%
%TO.N,GND*%
X235700000Y-115475000D03*
%TO.P,R13,2*%
%TO.N,Net-(R13-Pad2)*%
X235700000Y-117975000D03*
%TD*%
D10*
%TO.P,,5V,SDA*%
%TO.N,/VoutBoost*%
X213500000Y-117700000D03*
%TD*%
D15*
%TO.N,Net-(J1-CC2)*%
X231750000Y-129850000D03*
X229200000Y-132050000D03*
%TO.N,+5V*%
X231300000Y-119950000D03*
X230500000Y-125000000D03*
X231450000Y-121450000D03*
%TO.N,GND*%
X216800000Y-128100000D03*
X214700000Y-125700000D03*
X229500000Y-122700000D03*
X216100000Y-128100000D03*
X212600000Y-126687500D03*
X215400000Y-128100000D03*
X212600000Y-125700000D03*
X228200000Y-120800000D03*
X214000000Y-125700000D03*
X214000000Y-128100000D03*
X229500000Y-120800000D03*
X205550000Y-121300000D03*
X215400000Y-126687500D03*
X205550000Y-122100000D03*
X235650000Y-123000000D03*
X213300000Y-127387500D03*
X236650000Y-127900000D03*
X216800000Y-125700000D03*
X214700000Y-126687500D03*
X214700000Y-128100000D03*
X214000000Y-128800000D03*
X216100000Y-125700000D03*
X214700000Y-127387500D03*
X221300000Y-123150000D03*
X217600000Y-128100000D03*
X228200000Y-122000000D03*
X216800000Y-125000000D03*
X211900000Y-125700000D03*
X228200000Y-122700000D03*
X220900000Y-120500000D03*
X227500000Y-120800000D03*
X217600000Y-125000000D03*
X216100000Y-128800000D03*
X228900000Y-122000000D03*
X215400000Y-128800000D03*
X223650000Y-129650000D03*
X220850000Y-118350000D03*
X229500000Y-122000000D03*
X228900000Y-121400000D03*
X221300000Y-122450000D03*
X228200000Y-121400000D03*
X229500000Y-121400000D03*
X213300000Y-125000000D03*
X217600000Y-126700000D03*
X228900000Y-122700000D03*
X217600000Y-125700000D03*
X216800000Y-127387500D03*
X213300000Y-128100000D03*
X213300000Y-128800000D03*
X211900000Y-126700000D03*
X212600000Y-128800000D03*
X235650000Y-123700000D03*
X203100000Y-123550000D03*
X216800000Y-126687500D03*
X227500000Y-121400000D03*
X216100000Y-127387500D03*
X215400000Y-125000000D03*
X236650000Y-127250000D03*
X227500000Y-122700000D03*
X216100000Y-126687500D03*
X213300000Y-126687500D03*
X212600000Y-127387500D03*
X211900000Y-128800000D03*
X220850000Y-117700000D03*
X216100000Y-125000000D03*
X227500000Y-122000000D03*
X228900000Y-120800000D03*
X211900000Y-125000000D03*
X225350000Y-125150000D03*
X212600000Y-128100000D03*
X220900000Y-119800000D03*
X217600000Y-128800000D03*
X214000000Y-125000000D03*
X215400000Y-125700000D03*
X233750000Y-129700000D03*
X214000000Y-127387500D03*
X211900000Y-128100000D03*
X215400000Y-127387500D03*
X213300000Y-125700000D03*
X214700000Y-125000000D03*
X203100000Y-124350000D03*
X214700000Y-128800000D03*
X211900000Y-127400000D03*
X212600000Y-125000000D03*
X217600000Y-127400000D03*
X225350000Y-125800000D03*
X216800000Y-128800000D03*
X214000000Y-126687500D03*
%TO.N,Net-(J1-CC1)*%
X228200000Y-132100000D03*
X225650000Y-129650000D03*
%TO.N,/VPCC*%
X233700000Y-125700000D03*
X233800000Y-121900000D03*
%TO.N,/ChargeDone*%
X231000000Y-117200000D03*
X229500000Y-118600000D03*
%TO.N,/LowBatt*%
X230150000Y-117050000D03*
X228600000Y-118600000D03*
%TO.N,/VoutBoost*%
X230600000Y-125900000D03*
D16*
X216800000Y-122700000D03*
D15*
%TO.N,Net-(U7-Green)*%
X226730000Y-113167000D03*
X232600000Y-112300000D03*
%TD*%
D17*
%TO.N,Net-(J1-CC2)*%
X229550000Y-132050000D02*
X229200000Y-132050000D01*
D18*
X231750000Y-129850000D02*
X229550000Y-132050000D01*
D19*
%TO.N,+5V*%
X230877851Y-125000000D02*
X231450000Y-124427851D01*
D17*
X231300000Y-121300000D02*
X231450000Y-121450000D01*
D19*
X231450000Y-124427851D02*
X231450000Y-121450000D01*
D17*
X231300000Y-119950000D02*
X231300000Y-121300000D01*
D19*
X230500000Y-125000000D02*
X230877851Y-125000000D01*
D20*
%TO.N,GND*%
X212000000Y-128687500D02*
X212000000Y-132100000D01*
D18*
X213300000Y-127387500D02*
X212600000Y-127387500D01*
D20*
X216800000Y-128100000D02*
X216000000Y-128100000D01*
X213300000Y-127387500D02*
X212000000Y-128687500D01*
X216000000Y-128100000D02*
X212000000Y-132100000D01*
D17*
%TO.N,Net-(J1-CC1)*%
X228100000Y-132100000D02*
X228200000Y-132100000D01*
D18*
X225650000Y-129650000D02*
X228100000Y-132100000D01*
D19*
%TO.N,/VPCC*%
X233700000Y-122800000D02*
X233700000Y-125700000D01*
X233800000Y-122700000D02*
X233700000Y-122800000D01*
X233800000Y-121900000D02*
X233800000Y-122700000D01*
D17*
%TO.N,/ChargeDone*%
X230900000Y-117200000D02*
X231000000Y-117200000D01*
X229500000Y-118600000D02*
X230900000Y-117200000D01*
%TO.N,/LowBatt*%
X228600000Y-118600000D02*
X230150000Y-117050000D01*
D18*
%TO.N,/VoutBoost*%
X216800000Y-122700000D02*
X218400000Y-122700000D01*
X218400000Y-122700000D02*
X222401000Y-126701000D01*
X222401000Y-126701000D02*
X229799000Y-126701000D01*
X229799000Y-126701000D02*
X230600000Y-125900000D01*
D17*
%TO.N,Net-(U7-Green)*%
X227597000Y-112300000D02*
X226730000Y-113167000D01*
X232600000Y-112300000D02*
X227597000Y-112300000D01*
%TD*%
%TA.AperFunction,Conductor*%
%TO.N,GND*%
G36*
X241164539Y-99846185D02*
G01*
X241210294Y-99898989D01*
X241221500Y-99950500D01*
X241221500Y-139449500D01*
X241201815Y-139516539D01*
X241149011Y-139562294D01*
X241097500Y-139573500D01*
X201224500Y-139573500D01*
X201157461Y-139553815D01*
X201111706Y-139501011D01*
X201100500Y-139449500D01*
X201100500Y-135581995D01*
X217799500Y-135581995D01*
X217799500Y-135818004D01*
X217799501Y-135818020D01*
X217830306Y-136052010D01*
X217891394Y-136279993D01*
X217981714Y-136498045D01*
X217981719Y-136498056D01*
X218052677Y-136620957D01*
X218099727Y-136702450D01*
X218099729Y-136702453D01*
X218099730Y-136702454D01*
X218243406Y-136889697D01*
X218243412Y-136889704D01*
X218410295Y-137056587D01*
X218410301Y-137056592D01*
X218597550Y-137200273D01*
X218728918Y-137276118D01*
X218801943Y-137318280D01*
X218801948Y-137318282D01*
X218801951Y-137318284D01*
X219020007Y-137408606D01*
X219247986Y-137469693D01*
X219481989Y-137500500D01*
X219481996Y-137500500D01*
X219718004Y-137500500D01*
X219718011Y-137500500D01*
X219952014Y-137469693D01*
X220179993Y-137408606D01*
X220398049Y-137318284D01*
X220602450Y-137200273D01*
X220789699Y-137056592D01*
X220956592Y-136889699D01*
X221100273Y-136702450D01*
X221218284Y-136498049D01*
X221308606Y-136279993D01*
X221369693Y-136052014D01*
X221400500Y-135818011D01*
X221400500Y-135581989D01*
X221369693Y-135347986D01*
X221308606Y-135120007D01*
X221218284Y-134901951D01*
X221218282Y-134901948D01*
X221218280Y-134901943D01*
X221176118Y-134828918D01*
X221100273Y-134697550D01*
X220956592Y-134510301D01*
X220956587Y-134510295D01*
X220789704Y-134343412D01*
X220789697Y-134343406D01*
X220602454Y-134199730D01*
X220602453Y-134199729D01*
X220602450Y-134199727D01*
X220520957Y-134152677D01*
X220398056Y-134081719D01*
X220398045Y-134081714D01*
X220179993Y-133991394D01*
X219952010Y-133930306D01*
X219718020Y-133899501D01*
X219718017Y-133899500D01*
X219718011Y-133899500D01*
X219481989Y-133899500D01*
X219481983Y-133899500D01*
X219481979Y-133899501D01*
X219247989Y-133930306D01*
X219020006Y-133991394D01*
X218801954Y-134081714D01*
X218801943Y-134081719D01*
X218597545Y-134199730D01*
X218410302Y-134343406D01*
X218410295Y-134343412D01*
X218243412Y-134510295D01*
X218243406Y-134510302D01*
X218099730Y-134697545D01*
X217981719Y-134901943D01*
X217981714Y-134901954D01*
X217891394Y-135120006D01*
X217830306Y-135347989D01*
X217799501Y-135581979D01*
X217799500Y-135581995D01*
X201100500Y-135581995D01*
X201100500Y-131270730D01*
X209099500Y-131270730D01*
X209099500Y-132629269D01*
X209102353Y-132659699D01*
X209102353Y-132659701D01*
X209147206Y-132787880D01*
X209147207Y-132787882D01*
X209227850Y-132897150D01*
X209337118Y-132977793D01*
X209379845Y-132992744D01*
X209465299Y-133022646D01*
X209495730Y-133025500D01*
X209495734Y-133025500D01*
X210304270Y-133025500D01*
X210334699Y-133022646D01*
X210334701Y-133022646D01*
X210398790Y-133000219D01*
X210462882Y-132977793D01*
X210572150Y-132897150D01*
X210652793Y-132787882D01*
X210683370Y-132700499D01*
X210697646Y-132659701D01*
X210697646Y-132659699D01*
X210700500Y-132629269D01*
X210700500Y-131270730D01*
X210697646Y-131240300D01*
X210697646Y-131240298D01*
X210652793Y-131112119D01*
X210652792Y-131112117D01*
X210572150Y-131002850D01*
X210462882Y-130922207D01*
X210462880Y-130922206D01*
X210334700Y-130877353D01*
X210304270Y-130874500D01*
X210304266Y-130874500D01*
X209495734Y-130874500D01*
X209495730Y-130874500D01*
X209465300Y-130877353D01*
X209465298Y-130877353D01*
X209337119Y-130922206D01*
X209337117Y-130922207D01*
X209227850Y-131002850D01*
X209147207Y-131112117D01*
X209147206Y-131112119D01*
X209102353Y-131240298D01*
X209102353Y-131240300D01*
X209099500Y-131270730D01*
X201100500Y-131270730D01*
X201100500Y-129729054D01*
X225049498Y-129729054D01*
X225049499Y-129729057D01*
X225090423Y-129881785D01*
X225169481Y-130018716D01*
X227731284Y-132580519D01*
X227868215Y-132659577D01*
X228020942Y-132700500D01*
X228020944Y-132700500D01*
X228179055Y-132700500D01*
X228179057Y-132700500D01*
X228331784Y-132659577D01*
X228468716Y-132580519D01*
X228580519Y-132468716D01*
X228620648Y-132399211D01*
X228671215Y-132350995D01*
X228739822Y-132337773D01*
X228804687Y-132363741D01*
X228815716Y-132373530D01*
X228892686Y-132450500D01*
X229006814Y-132516392D01*
X229134108Y-132550500D01*
X229182665Y-132550500D01*
X229244665Y-132567113D01*
X229318211Y-132609575D01*
X229318212Y-132609576D01*
X229318214Y-132609576D01*
X229318215Y-132609577D01*
X229470943Y-132650501D01*
X229470946Y-132650501D01*
X229629054Y-132650501D01*
X229629057Y-132650501D01*
X229781785Y-132609577D01*
X229918716Y-132530519D01*
X232230519Y-130218716D01*
X232309577Y-130081785D01*
X232350501Y-129929057D01*
X232350501Y-129770943D01*
X232309577Y-129618215D01*
X232230519Y-129481284D01*
X232118716Y-129369481D01*
X231981785Y-129290423D01*
X231829057Y-129249499D01*
X231670943Y-129249499D01*
X231556397Y-129280192D01*
X231518214Y-129290423D01*
X231381284Y-129369481D01*
X231381281Y-129369483D01*
X229237584Y-131513181D01*
X229176261Y-131546666D01*
X229149903Y-131549500D01*
X229134108Y-131549500D01*
X229006812Y-131583608D01*
X228892686Y-131649500D01*
X228892683Y-131649502D01*
X228799502Y-131742683D01*
X228794552Y-131749135D01*
X228793009Y-131747951D01*
X228750117Y-131788845D01*
X228681510Y-131802066D01*
X228616646Y-131776096D01*
X228585915Y-131740629D01*
X228580523Y-131731290D01*
X228580520Y-131731287D01*
X228580519Y-131731284D01*
X226018716Y-129169481D01*
X225881785Y-129090423D01*
X225729057Y-129049499D01*
X225570943Y-129049499D01*
X225456397Y-129080192D01*
X225418214Y-129090423D01*
X225281284Y-129169481D01*
X225281281Y-129169483D01*
X225169483Y-129281281D01*
X225169481Y-129281284D01*
X225090423Y-129418214D01*
X225090423Y-129418215D01*
X225049499Y-129570943D01*
X225049499Y-129570945D01*
X225049499Y-129729054D01*
X225049498Y-129729054D01*
X201100500Y-129729054D01*
X201100500Y-122768995D01*
X216099499Y-122768995D01*
X216126418Y-122904322D01*
X216126420Y-122904328D01*
X216179221Y-123031804D01*
X216179228Y-123031817D01*
X216255885Y-123146541D01*
X216255888Y-123146545D01*
X216353454Y-123244111D01*
X216353458Y-123244114D01*
X216468182Y-123320771D01*
X216468195Y-123320778D01*
X216595667Y-123373578D01*
X216595672Y-123373580D01*
X216595676Y-123373580D01*
X216595677Y-123373581D01*
X216731004Y-123400500D01*
X216731007Y-123400500D01*
X216868995Y-123400500D01*
X216960041Y-123382389D01*
X217004328Y-123373580D01*
X217131811Y-123320775D01*
X217131811Y-123320774D01*
X217137181Y-123317905D01*
X217137876Y-123319205D01*
X217197562Y-123300520D01*
X217199770Y-123300500D01*
X218099903Y-123300500D01*
X218166942Y-123320185D01*
X218187584Y-123336819D01*
X221916139Y-127065374D01*
X221916149Y-127065385D01*
X221920479Y-127069715D01*
X221920480Y-127069716D01*
X222032284Y-127181520D01*
X222032286Y-127181521D01*
X222032290Y-127181524D01*
X222169209Y-127260573D01*
X222169216Y-127260577D01*
X222281019Y-127290534D01*
X222321942Y-127301500D01*
X222321943Y-127301500D01*
X229712331Y-127301500D01*
X229712347Y-127301501D01*
X229719943Y-127301501D01*
X229878054Y-127301501D01*
X229878057Y-127301501D01*
X230030785Y-127260577D01*
X230080904Y-127231639D01*
X230167716Y-127181520D01*
X230279520Y-127069716D01*
X230279520Y-127069714D01*
X230289728Y-127059507D01*
X230289729Y-127059504D01*
X231080519Y-126268716D01*
X231159577Y-126131785D01*
X231200500Y-125979057D01*
X231200500Y-125820943D01*
X231159577Y-125668215D01*
X231139885Y-125634108D01*
X233199500Y-125634108D01*
X233199500Y-125765891D01*
X233233608Y-125893187D01*
X233266554Y-125950250D01*
X233299500Y-126007314D01*
X233392686Y-126100500D01*
X233506814Y-126166392D01*
X233634108Y-126200500D01*
X233634110Y-126200500D01*
X233765890Y-126200500D01*
X233765892Y-126200500D01*
X233893186Y-126166392D01*
X234007314Y-126100500D01*
X234100500Y-126007314D01*
X234166392Y-125893186D01*
X234200500Y-125765892D01*
X234200500Y-125634108D01*
X234166392Y-125506814D01*
X234164704Y-125503891D01*
X234117113Y-125421460D01*
X234100500Y-125359460D01*
X234100500Y-123013745D01*
X234104649Y-122998257D01*
X234103995Y-122984511D01*
X234117113Y-122951745D01*
X234144489Y-122904328D01*
X234144492Y-122904322D01*
X234173207Y-122854587D01*
X234200500Y-122752727D01*
X234200500Y-122240539D01*
X234217112Y-122178540D01*
X234266392Y-122093186D01*
X234300500Y-121965892D01*
X234300500Y-121834108D01*
X234266392Y-121706814D01*
X234200500Y-121592686D01*
X234107314Y-121499500D01*
X234050250Y-121466554D01*
X233993187Y-121433608D01*
X233929539Y-121416554D01*
X233865892Y-121399500D01*
X233734108Y-121399500D01*
X233606812Y-121433608D01*
X233492686Y-121499500D01*
X233492683Y-121499502D01*
X233399502Y-121592683D01*
X233399500Y-121592686D01*
X233333608Y-121706812D01*
X233311174Y-121790539D01*
X233299500Y-121834108D01*
X233299500Y-121965892D01*
X233333608Y-122093186D01*
X233382887Y-122178540D01*
X233387037Y-122194027D01*
X233394477Y-122205604D01*
X233399500Y-122240539D01*
X233399500Y-122486255D01*
X233382887Y-122548256D01*
X233326793Y-122645410D01*
X233299500Y-122747273D01*
X233299500Y-125359460D01*
X233282887Y-125421460D01*
X233233609Y-125506810D01*
X233233609Y-125506811D01*
X233233608Y-125506813D01*
X233233608Y-125506814D01*
X233199500Y-125634108D01*
X231139885Y-125634108D01*
X231080519Y-125531284D01*
X231066192Y-125516957D01*
X231058346Y-125503891D01*
X231053218Y-125484237D01*
X231043486Y-125466413D01*
X231044579Y-125451120D01*
X231040709Y-125436284D01*
X231047021Y-125416978D01*
X231048470Y-125396721D01*
X231057657Y-125384447D01*
X231062423Y-125369874D01*
X231078172Y-125357044D01*
X231090342Y-125340788D01*
X231102637Y-125332677D01*
X231123764Y-125320480D01*
X231770480Y-124673764D01*
X231823207Y-124582439D01*
X231850500Y-124480578D01*
X231850500Y-124375124D01*
X231850500Y-121790539D01*
X231867112Y-121728540D01*
X231916392Y-121643186D01*
X231950500Y-121515892D01*
X231950500Y-121384108D01*
X231916392Y-121256814D01*
X231850500Y-121142686D01*
X231757314Y-121049500D01*
X231700972Y-121016971D01*
X231662499Y-120994758D01*
X231614284Y-120944190D01*
X231600500Y-120887371D01*
X231600500Y-120408676D01*
X231620185Y-120341637D01*
X231636819Y-120320995D01*
X231700500Y-120257314D01*
X231766392Y-120143186D01*
X231800500Y-120015892D01*
X231800500Y-119884108D01*
X231766392Y-119756814D01*
X231700500Y-119642686D01*
X231607314Y-119549500D01*
X231550250Y-119516554D01*
X231493187Y-119483608D01*
X231429539Y-119466554D01*
X231365892Y-119449500D01*
X231234108Y-119449500D01*
X231106812Y-119483608D01*
X230992686Y-119549500D01*
X230992683Y-119549502D01*
X230899502Y-119642683D01*
X230899500Y-119642686D01*
X230833608Y-119756812D01*
X230799500Y-119884108D01*
X230799500Y-120015891D01*
X230833608Y-120143187D01*
X230866554Y-120200250D01*
X230899500Y-120257314D01*
X230899502Y-120257316D01*
X230963181Y-120320995D01*
X230996666Y-120382318D01*
X230999500Y-120408676D01*
X230999500Y-121196062D01*
X230985383Y-121248751D01*
X230986719Y-121249304D01*
X230983609Y-121256812D01*
X230983608Y-121256814D01*
X230949500Y-121384108D01*
X230949500Y-121515892D01*
X230983608Y-121643186D01*
X231032887Y-121728540D01*
X231049500Y-121790539D01*
X231049500Y-124210595D01*
X231029815Y-124277634D01*
X231013181Y-124298276D01*
X230810580Y-124500876D01*
X230749257Y-124534361D01*
X230690806Y-124532970D01*
X230626205Y-124515660D01*
X230565892Y-124499500D01*
X230434108Y-124499500D01*
X230306812Y-124533608D01*
X230192686Y-124599500D01*
X230192683Y-124599502D01*
X230099502Y-124692683D01*
X230099500Y-124692686D01*
X230033608Y-124806812D01*
X229999500Y-124934108D01*
X229999500Y-125065891D01*
X230033608Y-125193187D01*
X230066554Y-125250250D01*
X230099500Y-125307314D01*
X230099502Y-125307316D01*
X230133794Y-125341608D01*
X230167279Y-125402931D01*
X230162295Y-125472623D01*
X230133794Y-125516970D01*
X229586584Y-126064181D01*
X229525261Y-126097666D01*
X229498903Y-126100500D01*
X222701097Y-126100500D01*
X222634058Y-126080815D01*
X222613416Y-126064181D01*
X218887590Y-122338355D01*
X218887588Y-122338352D01*
X218768717Y-122219481D01*
X218768716Y-122219480D01*
X218658568Y-122155886D01*
X218658566Y-122155885D01*
X218631785Y-122140423D01*
X218631784Y-122140422D01*
X218631783Y-122140422D01*
X218575881Y-122125443D01*
X218479057Y-122099499D01*
X218320943Y-122099499D01*
X218313347Y-122099499D01*
X218313331Y-122099500D01*
X217199770Y-122099500D01*
X217137630Y-122081253D01*
X217137181Y-122082095D01*
X217133140Y-122079935D01*
X217132731Y-122079815D01*
X217131912Y-122079278D01*
X217131809Y-122079223D01*
X217004332Y-122026421D01*
X217004322Y-122026418D01*
X216868995Y-121999500D01*
X216868993Y-121999500D01*
X216731007Y-121999500D01*
X216731005Y-121999500D01*
X216595677Y-122026418D01*
X216595667Y-122026421D01*
X216468195Y-122079221D01*
X216468182Y-122079228D01*
X216353458Y-122155885D01*
X216353456Y-122155887D01*
X216255888Y-122253454D01*
X216255885Y-122253458D01*
X216179228Y-122368182D01*
X216179221Y-122368195D01*
X216126421Y-122495667D01*
X216126418Y-122495677D01*
X216099500Y-122631004D01*
X216099500Y-122631007D01*
X216099500Y-122768993D01*
X216099500Y-122768995D01*
X216099499Y-122768995D01*
X201100500Y-122768995D01*
X201100500Y-117609257D01*
X212347000Y-117609257D01*
X212347000Y-117790742D01*
X212375391Y-117969996D01*
X212375391Y-117969999D01*
X212431471Y-118142595D01*
X212431473Y-118142598D01*
X212513866Y-118304304D01*
X212620541Y-118451129D01*
X212748871Y-118579459D01*
X212895696Y-118686134D01*
X213034922Y-118757073D01*
X213057404Y-118768528D01*
X213230001Y-118824608D01*
X213230002Y-118824608D01*
X213230005Y-118824609D01*
X213409257Y-118853000D01*
X213409258Y-118853000D01*
X213590742Y-118853000D01*
X213590743Y-118853000D01*
X213769995Y-118824609D01*
X213769998Y-118824608D01*
X213769999Y-118824608D01*
X213942595Y-118768528D01*
X213942595Y-118768527D01*
X213942598Y-118768527D01*
X214104304Y-118686134D01*
X214251129Y-118579459D01*
X214379459Y-118451129D01*
X214486134Y-118304304D01*
X214568527Y-118142598D01*
X214583451Y-118096666D01*
X214624608Y-117969999D01*
X214624608Y-117969998D01*
X214624609Y-117969995D01*
X214653000Y-117790743D01*
X214653000Y-117609257D01*
X215047000Y-117609257D01*
X215047000Y-117790742D01*
X215075391Y-117969996D01*
X215075391Y-117969999D01*
X215131471Y-118142595D01*
X215131473Y-118142598D01*
X215213866Y-118304304D01*
X215320541Y-118451129D01*
X215448871Y-118579459D01*
X215595696Y-118686134D01*
X215734922Y-118757073D01*
X215757404Y-118768528D01*
X215930001Y-118824608D01*
X215930002Y-118824608D01*
X215930005Y-118824609D01*
X216109257Y-118853000D01*
X216109258Y-118853000D01*
X216290742Y-118853000D01*
X216290743Y-118853000D01*
X216469995Y-118824609D01*
X216469998Y-118824608D01*
X216469999Y-118824608D01*
X216642595Y-118768528D01*
X216642595Y-118768527D01*
X216642598Y-118768527D01*
X216804304Y-118686134D01*
X216951129Y-118579459D01*
X216996480Y-118534108D01*
X228099500Y-118534108D01*
X228099500Y-118665891D01*
X228133608Y-118793187D01*
X228151750Y-118824609D01*
X228199500Y-118907314D01*
X228292686Y-119000500D01*
X228406814Y-119066392D01*
X228534108Y-119100500D01*
X228534110Y-119100500D01*
X228665890Y-119100500D01*
X228665892Y-119100500D01*
X228793186Y-119066392D01*
X228907314Y-119000500D01*
X228962319Y-118945495D01*
X229023642Y-118912010D01*
X229093334Y-118916994D01*
X229137681Y-118945495D01*
X229192686Y-119000500D01*
X229306814Y-119066392D01*
X229434108Y-119100500D01*
X229434110Y-119100500D01*
X229565890Y-119100500D01*
X229565892Y-119100500D01*
X229693186Y-119066392D01*
X229807314Y-119000500D01*
X229900500Y-118907314D01*
X229966392Y-118793186D01*
X230000500Y-118665892D01*
X230000500Y-118575832D01*
X230020185Y-118508793D01*
X230036819Y-118488151D01*
X230382375Y-118142595D01*
X230644456Y-117880513D01*
X234499500Y-117880513D01*
X234499500Y-118069486D01*
X234529059Y-118256118D01*
X234587454Y-118435836D01*
X234624628Y-118508793D01*
X234673240Y-118604199D01*
X234784310Y-118757073D01*
X234917927Y-118890690D01*
X235070801Y-119001760D01*
X235150347Y-119042290D01*
X235239163Y-119087545D01*
X235239165Y-119087545D01*
X235239168Y-119087547D01*
X235335497Y-119118846D01*
X235418881Y-119145940D01*
X235605514Y-119175500D01*
X235605519Y-119175500D01*
X235794486Y-119175500D01*
X235981118Y-119145940D01*
X236160832Y-119087547D01*
X236329199Y-119001760D01*
X236482073Y-118890690D01*
X236615690Y-118757073D01*
X236726760Y-118604199D01*
X236812547Y-118435832D01*
X236870940Y-118256118D01*
X236879907Y-118199502D01*
X236900500Y-118069486D01*
X236900500Y-117880513D01*
X236870940Y-117693881D01*
X236812545Y-117514163D01*
X236726759Y-117345800D01*
X236615690Y-117192927D01*
X236482073Y-117059310D01*
X236329199Y-116948240D01*
X236160836Y-116862454D01*
X235981118Y-116804059D01*
X235794486Y-116774500D01*
X235794481Y-116774500D01*
X235605519Y-116774500D01*
X235605514Y-116774500D01*
X235418881Y-116804059D01*
X235239163Y-116862454D01*
X235070800Y-116948240D01*
X235021433Y-116984108D01*
X234917927Y-117059310D01*
X234917925Y-117059312D01*
X234917924Y-117059312D01*
X234784312Y-117192924D01*
X234784312Y-117192925D01*
X234784310Y-117192927D01*
X234736610Y-117258579D01*
X234673240Y-117345800D01*
X234587454Y-117514163D01*
X234529059Y-117693881D01*
X234499500Y-117880513D01*
X230644456Y-117880513D01*
X230797018Y-117727951D01*
X230858339Y-117694468D01*
X230916790Y-117695859D01*
X230934108Y-117700500D01*
X230934110Y-117700500D01*
X231065890Y-117700500D01*
X231065892Y-117700500D01*
X231193186Y-117666392D01*
X231307314Y-117600500D01*
X231400500Y-117507314D01*
X231466392Y-117393186D01*
X231500500Y-117265892D01*
X231500500Y-117134108D01*
X231466392Y-117006814D01*
X231400500Y-116892686D01*
X231307314Y-116799500D01*
X231250250Y-116766554D01*
X231193187Y-116733608D01*
X231119507Y-116713866D01*
X231065892Y-116699500D01*
X230934108Y-116699500D01*
X230806814Y-116733608D01*
X230806813Y-116733608D01*
X230806811Y-116733609D01*
X230806810Y-116733609D01*
X230718034Y-116784864D01*
X230650133Y-116801337D01*
X230584107Y-116778484D01*
X230556614Y-116748239D01*
X230555448Y-116749135D01*
X230550502Y-116742689D01*
X230550500Y-116742686D01*
X230457314Y-116649500D01*
X230400250Y-116616554D01*
X230343187Y-116583608D01*
X230279539Y-116566554D01*
X230215892Y-116549500D01*
X230084108Y-116549500D01*
X229956812Y-116583608D01*
X229842686Y-116649500D01*
X229842683Y-116649502D01*
X229749502Y-116742683D01*
X229749500Y-116742686D01*
X229683608Y-116856812D01*
X229649500Y-116984108D01*
X229649500Y-117074166D01*
X229629815Y-117141205D01*
X229613181Y-117161847D01*
X228711847Y-118063181D01*
X228650524Y-118096666D01*
X228624166Y-118099500D01*
X228534108Y-118099500D01*
X228406812Y-118133608D01*
X228292686Y-118199500D01*
X228292683Y-118199502D01*
X228199502Y-118292683D01*
X228199500Y-118292686D01*
X228133608Y-118406812D01*
X228099500Y-118534108D01*
X216996480Y-118534108D01*
X217079459Y-118451129D01*
X217186134Y-118304304D01*
X217268527Y-118142598D01*
X217283451Y-118096666D01*
X217324608Y-117969999D01*
X217324608Y-117969998D01*
X217324609Y-117969995D01*
X217353000Y-117790743D01*
X217353000Y-117609257D01*
X217324609Y-117430005D01*
X217324608Y-117430001D01*
X217324608Y-117430000D01*
X217268528Y-117257404D01*
X217209322Y-117141205D01*
X217186134Y-117095696D01*
X217079459Y-116948871D01*
X216951129Y-116820541D01*
X216804304Y-116713866D01*
X216776109Y-116699500D01*
X216642595Y-116631471D01*
X216469998Y-116575391D01*
X216306527Y-116549500D01*
X216290743Y-116547000D01*
X216109257Y-116547000D01*
X216049506Y-116556463D01*
X215930003Y-116575391D01*
X215930000Y-116575391D01*
X215757404Y-116631471D01*
X215595695Y-116713866D01*
X215512241Y-116774500D01*
X215448871Y-116820541D01*
X215448869Y-116820543D01*
X215448868Y-116820543D01*
X215320543Y-116948868D01*
X215320543Y-116948869D01*
X215320541Y-116948871D01*
X215294940Y-116984108D01*
X215213866Y-117095695D01*
X215131471Y-117257404D01*
X215075391Y-117430000D01*
X215075391Y-117430003D01*
X215047000Y-117609257D01*
X214653000Y-117609257D01*
X214624609Y-117430005D01*
X214624608Y-117430001D01*
X214624608Y-117430000D01*
X214568528Y-117257404D01*
X214509322Y-117141205D01*
X214486134Y-117095696D01*
X214379459Y-116948871D01*
X214251129Y-116820541D01*
X214104304Y-116713866D01*
X214076109Y-116699500D01*
X213942595Y-116631471D01*
X213769998Y-116575391D01*
X213606527Y-116549500D01*
X213590743Y-116547000D01*
X213409257Y-116547000D01*
X213349506Y-116556463D01*
X213230003Y-116575391D01*
X213230000Y-116575391D01*
X213057404Y-116631471D01*
X212895695Y-116713866D01*
X212812241Y-116774500D01*
X212748871Y-116820541D01*
X212748869Y-116820543D01*
X212748868Y-116820543D01*
X212620543Y-116948868D01*
X212620543Y-116948869D01*
X212620541Y-116948871D01*
X212594940Y-116984108D01*
X212513866Y-117095695D01*
X212431471Y-117257404D01*
X212375391Y-117430000D01*
X212375391Y-117430003D01*
X212347000Y-117609257D01*
X201100500Y-117609257D01*
X201100500Y-114039257D01*
X202497000Y-114039257D01*
X202497000Y-114220742D01*
X202525391Y-114399996D01*
X202525391Y-114399999D01*
X202581471Y-114572595D01*
X202581473Y-114572598D01*
X202663866Y-114734304D01*
X202770541Y-114881129D01*
X202898871Y-115009459D01*
X203045696Y-115116134D01*
X203207402Y-115198527D01*
X203207404Y-115198528D01*
X203380001Y-115254608D01*
X203380002Y-115254608D01*
X203380005Y-115254609D01*
X203559257Y-115283000D01*
X203559258Y-115283000D01*
X203740742Y-115283000D01*
X203740743Y-115283000D01*
X203919995Y-115254609D01*
X203919998Y-115254608D01*
X203919999Y-115254608D01*
X204092595Y-115198528D01*
X204092595Y-115198527D01*
X204092598Y-115198527D01*
X204254304Y-115116134D01*
X204401129Y-115009459D01*
X204529459Y-114881129D01*
X204636134Y-114734304D01*
X204718527Y-114572598D01*
X204774609Y-114399995D01*
X204803000Y-114220743D01*
X204803000Y-114039257D01*
X207577000Y-114039257D01*
X207577000Y-114220742D01*
X207605391Y-114399996D01*
X207605391Y-114399999D01*
X207661471Y-114572595D01*
X207661473Y-114572598D01*
X207743866Y-114734304D01*
X207850541Y-114881129D01*
X207978871Y-115009459D01*
X208125696Y-115116134D01*
X208287402Y-115198527D01*
X208287404Y-115198528D01*
X208460001Y-115254608D01*
X208460002Y-115254608D01*
X208460005Y-115254609D01*
X208639257Y-115283000D01*
X208639258Y-115283000D01*
X208820742Y-115283000D01*
X208820743Y-115283000D01*
X208999995Y-115254609D01*
X208999998Y-115254608D01*
X208999999Y-115254608D01*
X209172595Y-115198528D01*
X209172595Y-115198527D01*
X209172598Y-115198527D01*
X209334304Y-115116134D01*
X209481129Y-115009459D01*
X209609459Y-114881129D01*
X209716134Y-114734304D01*
X209798527Y-114572598D01*
X209854609Y-114399995D01*
X209877527Y-114255296D01*
X209907456Y-114192162D01*
X209966768Y-114155231D01*
X210036630Y-114156229D01*
X210094863Y-114194839D01*
X210122473Y-114255297D01*
X210145391Y-114399996D01*
X210145391Y-114399999D01*
X210201471Y-114572595D01*
X210201473Y-114572598D01*
X210283866Y-114734304D01*
X210390541Y-114881129D01*
X210518871Y-115009459D01*
X210665696Y-115116134D01*
X210827402Y-115198527D01*
X210827404Y-115198528D01*
X211000001Y-115254608D01*
X211000002Y-115254608D01*
X211000005Y-115254609D01*
X211179257Y-115283000D01*
X211179258Y-115283000D01*
X211360742Y-115283000D01*
X211360743Y-115283000D01*
X211539995Y-115254609D01*
X211539998Y-115254608D01*
X211539999Y-115254608D01*
X211712595Y-115198528D01*
X211712595Y-115198527D01*
X211712598Y-115198527D01*
X211874304Y-115116134D01*
X212021129Y-115009459D01*
X212149459Y-114881129D01*
X212256134Y-114734304D01*
X212338527Y-114572598D01*
X212394609Y-114399995D01*
X212417527Y-114255296D01*
X212447456Y-114192162D01*
X212506768Y-114155231D01*
X212576630Y-114156229D01*
X212634863Y-114194839D01*
X212662473Y-114255297D01*
X212685391Y-114399996D01*
X212685391Y-114399999D01*
X212741471Y-114572595D01*
X212741473Y-114572598D01*
X212823866Y-114734304D01*
X212930541Y-114881129D01*
X213058871Y-115009459D01*
X213205696Y-115116134D01*
X213367402Y-115198527D01*
X213367404Y-115198528D01*
X213540001Y-115254608D01*
X213540002Y-115254608D01*
X213540005Y-115254609D01*
X213719257Y-115283000D01*
X213719258Y-115283000D01*
X213900742Y-115283000D01*
X213900743Y-115283000D01*
X214079995Y-115254609D01*
X214079998Y-115254608D01*
X214079999Y-115254608D01*
X214252595Y-115198528D01*
X214252595Y-115198527D01*
X214252598Y-115198527D01*
X214414304Y-115116134D01*
X214561129Y-115009459D01*
X214689459Y-114881129D01*
X214796134Y-114734304D01*
X214878527Y-114572598D01*
X214934609Y-114399995D01*
X214957527Y-114255296D01*
X214987456Y-114192162D01*
X215046768Y-114155231D01*
X215116630Y-114156229D01*
X215174863Y-114194839D01*
X215202473Y-114255297D01*
X215225391Y-114399996D01*
X215225391Y-114399999D01*
X215281471Y-114572595D01*
X215281473Y-114572598D01*
X215363866Y-114734304D01*
X215470541Y-114881129D01*
X215598871Y-115009459D01*
X215745696Y-115116134D01*
X215907402Y-115198527D01*
X215907404Y-115198528D01*
X216080001Y-115254608D01*
X216080002Y-115254608D01*
X216080005Y-115254609D01*
X216259257Y-115283000D01*
X216259258Y-115283000D01*
X216440742Y-115283000D01*
X216440743Y-115283000D01*
X216619995Y-115254609D01*
X216619998Y-115254608D01*
X216619999Y-115254608D01*
X216792595Y-115198528D01*
X216792595Y-115198527D01*
X216792598Y-115198527D01*
X216954304Y-115116134D01*
X217101129Y-115009459D01*
X217229459Y-114881129D01*
X217336134Y-114734304D01*
X217418527Y-114572598D01*
X217474609Y-114399995D01*
X217497527Y-114255296D01*
X217527456Y-114192162D01*
X217586768Y-114155231D01*
X217656630Y-114156229D01*
X217714863Y-114194839D01*
X217742473Y-114255297D01*
X217765391Y-114399996D01*
X217765391Y-114399999D01*
X217821471Y-114572595D01*
X217821473Y-114572598D01*
X217903866Y-114734304D01*
X218010541Y-114881129D01*
X218138871Y-115009459D01*
X218285696Y-115116134D01*
X218447402Y-115198527D01*
X218447404Y-115198528D01*
X218620001Y-115254608D01*
X218620002Y-115254608D01*
X218620005Y-115254609D01*
X218799257Y-115283000D01*
X218799258Y-115283000D01*
X218980742Y-115283000D01*
X218980743Y-115283000D01*
X219159995Y-115254609D01*
X219159998Y-115254608D01*
X219159999Y-115254608D01*
X219332595Y-115198528D01*
X219332595Y-115198527D01*
X219332598Y-115198527D01*
X219494304Y-115116134D01*
X219641129Y-115009459D01*
X219769459Y-114881129D01*
X219876134Y-114734304D01*
X219958527Y-114572598D01*
X220014609Y-114399995D01*
X220037527Y-114255296D01*
X220067456Y-114192162D01*
X220126768Y-114155231D01*
X220196630Y-114156229D01*
X220254863Y-114194839D01*
X220282473Y-114255297D01*
X220305391Y-114399996D01*
X220305391Y-114399999D01*
X220361471Y-114572595D01*
X220361473Y-114572598D01*
X220443866Y-114734304D01*
X220550541Y-114881129D01*
X220678871Y-115009459D01*
X220825696Y-115116134D01*
X220987402Y-115198527D01*
X220987404Y-115198528D01*
X221160001Y-115254608D01*
X221160002Y-115254608D01*
X221160005Y-115254609D01*
X221339257Y-115283000D01*
X221339258Y-115283000D01*
X221520742Y-115283000D01*
X221520743Y-115283000D01*
X221699995Y-115254609D01*
X221699998Y-115254608D01*
X221699999Y-115254608D01*
X221872595Y-115198528D01*
X221872595Y-115198527D01*
X221872598Y-115198527D01*
X222034304Y-115116134D01*
X222181129Y-115009459D01*
X222309459Y-114881129D01*
X222416134Y-114734304D01*
X222498527Y-114572598D01*
X222554609Y-114399995D01*
X222583000Y-114220743D01*
X222583000Y-114039257D01*
X222554609Y-113860005D01*
X222554608Y-113860001D01*
X222554608Y-113860000D01*
X222498528Y-113687404D01*
X222488386Y-113667499D01*
X222416134Y-113525696D01*
X222309459Y-113378871D01*
X222181129Y-113250541D01*
X222034304Y-113143866D01*
X222032275Y-113142832D01*
X221950387Y-113101108D01*
X226229500Y-113101108D01*
X226229500Y-113232891D01*
X226263608Y-113360187D01*
X226296554Y-113417250D01*
X226329500Y-113474314D01*
X226422686Y-113567500D01*
X226536814Y-113633392D01*
X226664108Y-113667500D01*
X226664110Y-113667500D01*
X226795890Y-113667500D01*
X226795892Y-113667500D01*
X226923186Y-113633392D01*
X227037314Y-113567500D01*
X227130500Y-113474314D01*
X227196392Y-113360186D01*
X227230500Y-113232892D01*
X227230500Y-113142832D01*
X227250185Y-113075793D01*
X227266819Y-113055151D01*
X227685152Y-112636819D01*
X227746475Y-112603334D01*
X227772833Y-112600500D01*
X232141324Y-112600500D01*
X232208363Y-112620185D01*
X232229005Y-112636819D01*
X232292686Y-112700500D01*
X232406814Y-112766392D01*
X232534108Y-112800500D01*
X232534110Y-112800500D01*
X232665890Y-112800500D01*
X232665892Y-112800500D01*
X232793186Y-112766392D01*
X232907314Y-112700500D01*
X233000500Y-112607314D01*
X233066392Y-112493186D01*
X233100500Y-112365892D01*
X233100500Y-112234108D01*
X233066392Y-112106814D01*
X233000500Y-111992686D01*
X232907314Y-111899500D01*
X232850250Y-111866554D01*
X232793187Y-111833608D01*
X232729539Y-111816554D01*
X232665892Y-111799500D01*
X232534108Y-111799500D01*
X232406812Y-111833608D01*
X232292686Y-111899500D01*
X232292683Y-111899502D01*
X232229005Y-111963181D01*
X232167682Y-111996666D01*
X232141324Y-111999500D01*
X227557438Y-111999500D01*
X227519224Y-112009739D01*
X227481009Y-112019979D01*
X227481004Y-112019982D01*
X227412495Y-112059535D01*
X227412487Y-112059541D01*
X226841847Y-112630181D01*
X226780524Y-112663666D01*
X226754166Y-112666500D01*
X226664108Y-112666500D01*
X226536812Y-112700608D01*
X226422686Y-112766500D01*
X226422683Y-112766502D01*
X226329502Y-112859683D01*
X226329500Y-112859686D01*
X226263608Y-112973812D01*
X226229500Y-113101108D01*
X221950387Y-113101108D01*
X221872595Y-113061471D01*
X221699998Y-113005391D01*
X221565556Y-112984097D01*
X221520743Y-112977000D01*
X221339257Y-112977000D01*
X221279506Y-112986463D01*
X221160003Y-113005391D01*
X221160000Y-113005391D01*
X220987404Y-113061471D01*
X220825695Y-113143866D01*
X220741926Y-113204728D01*
X220678871Y-113250541D01*
X220678869Y-113250543D01*
X220678868Y-113250543D01*
X220550543Y-113378868D01*
X220550543Y-113378869D01*
X220550541Y-113378871D01*
X220504728Y-113441926D01*
X220443866Y-113525695D01*
X220361471Y-113687404D01*
X220305391Y-113860000D01*
X220305391Y-113860003D01*
X220282473Y-114004702D01*
X220252544Y-114067837D01*
X220193232Y-114104768D01*
X220123370Y-114103770D01*
X220065137Y-114065160D01*
X220037527Y-114004702D01*
X220036661Y-113999234D01*
X220014609Y-113860005D01*
X220014608Y-113860001D01*
X220014608Y-113860000D01*
X219958528Y-113687404D01*
X219948386Y-113667499D01*
X219876134Y-113525696D01*
X219769459Y-113378871D01*
X219641129Y-113250541D01*
X219494304Y-113143866D01*
X219492275Y-113142832D01*
X219332595Y-113061471D01*
X219159998Y-113005391D01*
X219025556Y-112984097D01*
X218980743Y-112977000D01*
X218799257Y-112977000D01*
X218739506Y-112986463D01*
X218620003Y-113005391D01*
X218620000Y-113005391D01*
X218447404Y-113061471D01*
X218285695Y-113143866D01*
X218201926Y-113204728D01*
X218138871Y-113250541D01*
X218138869Y-113250543D01*
X218138868Y-113250543D01*
X218010543Y-113378868D01*
X218010543Y-113378869D01*
X218010541Y-113378871D01*
X217964728Y-113441926D01*
X217903866Y-113525695D01*
X217821471Y-113687404D01*
X217765391Y-113860000D01*
X217765391Y-113860003D01*
X217742473Y-114004702D01*
X217712544Y-114067837D01*
X217653232Y-114104768D01*
X217583370Y-114103770D01*
X217525137Y-114065160D01*
X217497527Y-114004702D01*
X217496661Y-113999234D01*
X217474609Y-113860005D01*
X217474608Y-113860001D01*
X217474608Y-113860000D01*
X217418528Y-113687404D01*
X217408386Y-113667499D01*
X217336134Y-113525696D01*
X217229459Y-113378871D01*
X217101129Y-113250541D01*
X216954304Y-113143866D01*
X216952275Y-113142832D01*
X216792595Y-113061471D01*
X216619998Y-113005391D01*
X216485556Y-112984097D01*
X216440743Y-112977000D01*
X216259257Y-112977000D01*
X216199506Y-112986463D01*
X216080003Y-113005391D01*
X216080000Y-113005391D01*
X215907404Y-113061471D01*
X215745695Y-113143866D01*
X215661926Y-113204728D01*
X215598871Y-113250541D01*
X215598869Y-113250543D01*
X215598868Y-113250543D01*
X215470543Y-113378868D01*
X215470543Y-113378869D01*
X215470541Y-113378871D01*
X215424728Y-113441926D01*
X215363866Y-113525695D01*
X215281471Y-113687404D01*
X215225391Y-113860000D01*
X215225391Y-113860003D01*
X215202473Y-114004702D01*
X215172544Y-114067837D01*
X215113232Y-114104768D01*
X215043370Y-114103770D01*
X214985137Y-114065160D01*
X214957527Y-114004702D01*
X214956661Y-113999234D01*
X214934609Y-113860005D01*
X214934608Y-113860001D01*
X214934608Y-113860000D01*
X214878528Y-113687404D01*
X214868386Y-113667499D01*
X214796134Y-113525696D01*
X214689459Y-113378871D01*
X214561129Y-113250541D01*
X214414304Y-113143866D01*
X214412275Y-113142832D01*
X214252595Y-113061471D01*
X214079998Y-113005391D01*
X213945556Y-112984097D01*
X213900743Y-112977000D01*
X213719257Y-112977000D01*
X213659506Y-112986463D01*
X213540003Y-113005391D01*
X213540000Y-113005391D01*
X213367404Y-113061471D01*
X213205695Y-113143866D01*
X213121926Y-113204728D01*
X213058871Y-113250541D01*
X213058869Y-113250543D01*
X213058868Y-113250543D01*
X212930543Y-113378868D01*
X212930543Y-113378869D01*
X212930541Y-113378871D01*
X212884728Y-113441926D01*
X212823866Y-113525695D01*
X212741471Y-113687404D01*
X212685391Y-113860000D01*
X212685391Y-113860003D01*
X212662473Y-114004702D01*
X212632544Y-114067837D01*
X212573232Y-114104768D01*
X212503370Y-114103770D01*
X212445137Y-114065160D01*
X212417527Y-114004702D01*
X212416661Y-113999234D01*
X212394609Y-113860005D01*
X212394608Y-113860001D01*
X212394608Y-113860000D01*
X212338528Y-113687404D01*
X212328386Y-113667499D01*
X212256134Y-113525696D01*
X212149459Y-113378871D01*
X212021129Y-113250541D01*
X211874304Y-113143866D01*
X211872275Y-113142832D01*
X211712595Y-113061471D01*
X211539998Y-113005391D01*
X211405556Y-112984097D01*
X211360743Y-112977000D01*
X211179257Y-112977000D01*
X211119506Y-112986463D01*
X211000003Y-113005391D01*
X211000000Y-113005391D01*
X210827404Y-113061471D01*
X210665695Y-113143866D01*
X210581926Y-113204728D01*
X210518871Y-113250541D01*
X210518869Y-113250543D01*
X210518868Y-113250543D01*
X210390543Y-113378868D01*
X210390543Y-113378869D01*
X210390541Y-113378871D01*
X210344728Y-113441926D01*
X210283866Y-113525695D01*
X210201471Y-113687404D01*
X210145391Y-113860000D01*
X210145391Y-113860003D01*
X210122473Y-114004702D01*
X210092544Y-114067837D01*
X210033232Y-114104768D01*
X209963370Y-114103770D01*
X209905137Y-114065160D01*
X209877527Y-114004702D01*
X209876661Y-113999234D01*
X209854609Y-113860005D01*
X209854608Y-113860001D01*
X209854608Y-113860000D01*
X209798528Y-113687404D01*
X209788386Y-113667499D01*
X209716134Y-113525696D01*
X209609459Y-113378871D01*
X209481129Y-113250541D01*
X209334304Y-113143866D01*
X209332275Y-113142832D01*
X209172595Y-113061471D01*
X208999998Y-113005391D01*
X208865556Y-112984097D01*
X208820743Y-112977000D01*
X208639257Y-112977000D01*
X208579506Y-112986463D01*
X208460003Y-113005391D01*
X208460000Y-113005391D01*
X208287404Y-113061471D01*
X208125695Y-113143866D01*
X208041926Y-113204728D01*
X207978871Y-113250541D01*
X207978869Y-113250543D01*
X207978868Y-113250543D01*
X207850543Y-113378868D01*
X207850543Y-113378869D01*
X207850541Y-113378871D01*
X207804728Y-113441926D01*
X207743866Y-113525695D01*
X207661471Y-113687404D01*
X207605391Y-113860000D01*
X207605391Y-113860003D01*
X207577000Y-114039257D01*
X204803000Y-114039257D01*
X204774609Y-113860005D01*
X204774608Y-113860001D01*
X204774608Y-113860000D01*
X204718528Y-113687404D01*
X204708386Y-113667499D01*
X204636134Y-113525696D01*
X204529459Y-113378871D01*
X204401129Y-113250541D01*
X204254304Y-113143866D01*
X204252275Y-113142832D01*
X204092595Y-113061471D01*
X203919998Y-113005391D01*
X203785556Y-112984097D01*
X203740743Y-112977000D01*
X203559257Y-112977000D01*
X203499506Y-112986463D01*
X203380003Y-113005391D01*
X203380000Y-113005391D01*
X203207404Y-113061471D01*
X203045695Y-113143866D01*
X202961926Y-113204728D01*
X202898871Y-113250541D01*
X202898869Y-113250543D01*
X202898868Y-113250543D01*
X202770543Y-113378868D01*
X202770543Y-113378869D01*
X202770541Y-113378871D01*
X202724728Y-113441926D01*
X202663866Y-113525695D01*
X202581471Y-113687404D01*
X202525391Y-113860000D01*
X202525391Y-113860003D01*
X202497000Y-114039257D01*
X201100500Y-114039257D01*
X201100500Y-110755778D01*
X234999500Y-110755778D01*
X234999500Y-111044221D01*
X234999501Y-111044238D01*
X235037149Y-111330206D01*
X235037150Y-111330211D01*
X235037151Y-111330217D01*
X235037152Y-111330219D01*
X235111809Y-111608844D01*
X235111814Y-111608860D01*
X235222191Y-111875336D01*
X235222199Y-111875352D01*
X235366420Y-112125148D01*
X235366431Y-112125164D01*
X235542024Y-112354002D01*
X235542030Y-112354009D01*
X235745990Y-112557969D01*
X235745996Y-112557974D01*
X235974844Y-112733575D01*
X235974851Y-112733579D01*
X236224647Y-112877800D01*
X236224663Y-112877808D01*
X236491139Y-112988185D01*
X236491145Y-112988186D01*
X236491155Y-112988191D01*
X236769783Y-113062849D01*
X237055772Y-113100500D01*
X237055779Y-113100500D01*
X237344221Y-113100500D01*
X237344228Y-113100500D01*
X237630217Y-113062849D01*
X237908845Y-112988191D01*
X237908857Y-112988185D01*
X237908860Y-112988185D01*
X238175336Y-112877808D01*
X238175339Y-112877806D01*
X238175345Y-112877804D01*
X238425156Y-112733575D01*
X238654004Y-112557974D01*
X238857974Y-112354004D01*
X239033575Y-112125156D01*
X239177804Y-111875345D01*
X239288191Y-111608845D01*
X239362849Y-111330217D01*
X239400500Y-111044228D01*
X239400500Y-110755772D01*
X239362849Y-110469783D01*
X239288191Y-110191155D01*
X239288186Y-110191145D01*
X239288185Y-110191139D01*
X239177808Y-109924663D01*
X239177800Y-109924647D01*
X239033579Y-109674851D01*
X239033575Y-109674844D01*
X238857974Y-109445996D01*
X238857969Y-109445990D01*
X238654009Y-109242030D01*
X238654002Y-109242024D01*
X238425164Y-109066431D01*
X238425162Y-109066429D01*
X238425156Y-109066425D01*
X238425151Y-109066422D01*
X238425148Y-109066420D01*
X238175352Y-108922199D01*
X238175336Y-108922191D01*
X237908860Y-108811814D01*
X237908848Y-108811810D01*
X237908845Y-108811809D01*
X237630217Y-108737151D01*
X237630211Y-108737150D01*
X237630206Y-108737149D01*
X237344238Y-108699501D01*
X237344233Y-108699500D01*
X237344228Y-108699500D01*
X237055772Y-108699500D01*
X237055766Y-108699500D01*
X237055761Y-108699501D01*
X236769793Y-108737149D01*
X236769786Y-108737150D01*
X236769783Y-108737151D01*
X236491155Y-108811809D01*
X236491139Y-108811814D01*
X236224663Y-108922191D01*
X236224647Y-108922199D01*
X235974851Y-109066420D01*
X235974835Y-109066431D01*
X235745997Y-109242024D01*
X235745990Y-109242030D01*
X235542030Y-109445990D01*
X235542024Y-109445997D01*
X235366431Y-109674835D01*
X235366420Y-109674851D01*
X235222199Y-109924647D01*
X235222191Y-109924663D01*
X235111814Y-110191139D01*
X235111809Y-110191155D01*
X235037152Y-110469780D01*
X235037149Y-110469793D01*
X234999501Y-110755761D01*
X234999500Y-110755778D01*
X201100500Y-110755778D01*
X201100500Y-102251995D01*
X202679500Y-102251995D01*
X202679500Y-102488004D01*
X202679501Y-102488020D01*
X202710306Y-102722010D01*
X202771394Y-102949993D01*
X202861714Y-103168045D01*
X202861719Y-103168056D01*
X202932677Y-103290957D01*
X202979727Y-103372450D01*
X202979729Y-103372453D01*
X202979730Y-103372454D01*
X203123406Y-103559697D01*
X203123412Y-103559704D01*
X203290295Y-103726587D01*
X203290301Y-103726592D01*
X203477550Y-103870273D01*
X203608918Y-103946118D01*
X203681943Y-103988280D01*
X203681948Y-103988282D01*
X203681951Y-103988284D01*
X203900007Y-104078606D01*
X204127986Y-104139693D01*
X204361989Y-104170500D01*
X204361996Y-104170500D01*
X204598004Y-104170500D01*
X204598011Y-104170500D01*
X204832014Y-104139693D01*
X205059993Y-104078606D01*
X205278049Y-103988284D01*
X205482450Y-103870273D01*
X205669699Y-103726592D01*
X205836592Y-103559699D01*
X205980273Y-103372450D01*
X206098284Y-103168049D01*
X206188606Y-102949993D01*
X206249693Y-102722014D01*
X206280500Y-102488011D01*
X206280500Y-102251995D01*
X218799500Y-102251995D01*
X218799500Y-102488004D01*
X218799501Y-102488020D01*
X218830306Y-102722010D01*
X218891394Y-102949993D01*
X218981714Y-103168045D01*
X218981719Y-103168056D01*
X219052677Y-103290957D01*
X219099727Y-103372450D01*
X219099729Y-103372453D01*
X219099730Y-103372454D01*
X219243406Y-103559697D01*
X219243412Y-103559704D01*
X219410295Y-103726587D01*
X219410301Y-103726592D01*
X219597550Y-103870273D01*
X219728918Y-103946118D01*
X219801943Y-103988280D01*
X219801948Y-103988282D01*
X219801951Y-103988284D01*
X220020007Y-104078606D01*
X220247986Y-104139693D01*
X220481989Y-104170500D01*
X220481996Y-104170500D01*
X220718004Y-104170500D01*
X220718011Y-104170500D01*
X220952014Y-104139693D01*
X221179993Y-104078606D01*
X221398049Y-103988284D01*
X221602450Y-103870273D01*
X221789699Y-103726592D01*
X221956592Y-103559699D01*
X222100273Y-103372450D01*
X222218284Y-103168049D01*
X222308606Y-102949993D01*
X222369693Y-102722014D01*
X222400500Y-102488011D01*
X222400500Y-102251989D01*
X222369693Y-102017986D01*
X222308606Y-101790007D01*
X222218284Y-101571951D01*
X222218282Y-101571948D01*
X222218280Y-101571943D01*
X222176118Y-101498918D01*
X222100273Y-101367550D01*
X221956592Y-101180301D01*
X221956587Y-101180295D01*
X221789704Y-101013412D01*
X221789697Y-101013406D01*
X221602454Y-100869730D01*
X221602453Y-100869729D01*
X221602450Y-100869727D01*
X221520957Y-100822677D01*
X221398056Y-100751719D01*
X221398045Y-100751714D01*
X221179993Y-100661394D01*
X220952010Y-100600306D01*
X220718020Y-100569501D01*
X220718017Y-100569500D01*
X220718011Y-100569500D01*
X220481989Y-100569500D01*
X220481983Y-100569500D01*
X220481979Y-100569501D01*
X220247989Y-100600306D01*
X220020006Y-100661394D01*
X219801954Y-100751714D01*
X219801943Y-100751719D01*
X219597545Y-100869730D01*
X219410302Y-101013406D01*
X219410295Y-101013412D01*
X219243412Y-101180295D01*
X219243406Y-101180302D01*
X219099730Y-101367545D01*
X218981719Y-101571943D01*
X218981714Y-101571954D01*
X218891394Y-101790006D01*
X218830306Y-102017989D01*
X218799501Y-102251979D01*
X218799500Y-102251995D01*
X206280500Y-102251995D01*
X206280500Y-102251989D01*
X206249693Y-102017986D01*
X206188606Y-101790007D01*
X206098284Y-101571951D01*
X206098282Y-101571948D01*
X206098280Y-101571943D01*
X206056118Y-101498918D01*
X205980273Y-101367550D01*
X205836592Y-101180301D01*
X205836587Y-101180295D01*
X205669704Y-101013412D01*
X205669697Y-101013406D01*
X205482454Y-100869730D01*
X205482453Y-100869729D01*
X205482450Y-100869727D01*
X205400957Y-100822677D01*
X205278056Y-100751719D01*
X205278045Y-100751714D01*
X205059993Y-100661394D01*
X204832010Y-100600306D01*
X204598020Y-100569501D01*
X204598017Y-100569500D01*
X204598011Y-100569500D01*
X204361989Y-100569500D01*
X204361983Y-100569500D01*
X204361979Y-100569501D01*
X204127989Y-100600306D01*
X203900006Y-100661394D01*
X203681954Y-100751714D01*
X203681943Y-100751719D01*
X203477545Y-100869730D01*
X203290302Y-101013406D01*
X203290295Y-101013412D01*
X203123412Y-101180295D01*
X203123406Y-101180302D01*
X202979730Y-101367545D01*
X202861719Y-101571943D01*
X202861714Y-101571954D01*
X202771394Y-101790006D01*
X202710306Y-102017989D01*
X202679501Y-102251979D01*
X202679500Y-102251995D01*
X201100500Y-102251995D01*
X201100500Y-99950500D01*
X201120185Y-99883461D01*
X201172989Y-99837706D01*
X201224500Y-99826500D01*
X241097500Y-99826500D01*
X241164539Y-99846185D01*
G37*
%TD.AperFunction*%
%TD*%
M02*
