%TF.GenerationSoftware,KiCad,Pcbnew,9.0.7*%
%TF.CreationDate,2026-03-23T03:25:44-05:00*%
%TF.ProjectId,mainBoardV2,6d61696e-426f-4617-9264-56322e6b6963,rev?*%
%TF.SameCoordinates,Original*%
%TF.FileFunction,Soldermask,Bot*%
%TF.FilePolarity,Negative*%
%FSLAX46Y46*%
G04 Gerber Fmt 4.6, Leading zero omitted, Abs format (unit mm)*
G04 Created by KiCad (PCBNEW 9.0.7) date 2026-03-23 03:25:44*
%MOMM*%
%LPD*%
G01*
G04 APERTURE LIST*
G04 Aperture macros list*
%AMRoundRect*
0 Rectangle with rounded corners*
0 $1 Rounding radius*
0 $2 $3 $4 $5 $6 $7 $8 $9 X,Y pos of 4 corners*
0 Add a 4 corners polygon primitive as box body*
4,1,4,$2,$3,$4,$5,$6,$7,$8,$9,$2,$3,0*
0 Add four circle primitives for the rounded corners*
1,1,$1+$1,$2,$3*
1,1,$1+$1,$4,$5*
1,1,$1+$1,$6,$7*
1,1,$1+$1,$8,$9*
0 Add four rect primitives between the rounded corners*
20,1,$1+$1,$2,$3,$4,$5,0*
20,1,$1+$1,$4,$5,$6,$7,0*
20,1,$1+$1,$6,$7,$8,$9,0*
20,1,$1+$1,$8,$9,$2,$3,0*%
G04 Aperture macros list end*
%ADD10C,0.010000*%
%ADD11C,3.200000*%
%ADD12C,2.109000*%
%ADD13C,4.000000*%
%ADD14RoundRect,0.250000X-0.350000X-0.625000X0.350000X-0.625000X0.350000X0.625000X-0.350000X0.625000X0*%
%ADD15O,1.200000X1.750000*%
%ADD16C,2.000000*%
G04 APERTURE END LIST*
D10*
%TO.C,J1*%
X224423958Y-131801000D02*
X224457958Y-131804000D01*
X224491958Y-131808000D01*
X224524958Y-131814000D01*
X224557958Y-131822000D01*
X224590958Y-131832000D01*
X224622958Y-131843000D01*
X224653958Y-131856000D01*
X224684958Y-131871000D01*
X224714958Y-131887000D01*
X224743958Y-131905000D01*
X224771958Y-131924000D01*
X224798958Y-131945000D01*
X224824958Y-131967000D01*
X224849958Y-131990000D01*
X224872958Y-132015000D01*
X224894958Y-132041000D01*
X224915958Y-132068000D01*
X224934958Y-132096000D01*
X224952958Y-132125000D01*
X224968958Y-132155000D01*
X224983958Y-132186000D01*
X224996958Y-132217000D01*
X225007958Y-132249000D01*
X225017958Y-132282000D01*
X225025958Y-132315000D01*
X225031958Y-132348000D01*
X225035958Y-132382000D01*
X225038958Y-132416000D01*
X225039958Y-132450000D01*
X225039958Y-133050000D01*
X225038958Y-133084000D01*
X225035958Y-133118000D01*
X225031958Y-133152000D01*
X225025958Y-133185000D01*
X225017958Y-133218000D01*
X225007958Y-133251000D01*
X224996958Y-133283000D01*
X224983958Y-133314000D01*
X224968958Y-133345000D01*
X224952958Y-133375000D01*
X224934958Y-133404000D01*
X224915958Y-133432000D01*
X224894958Y-133459000D01*
X224872958Y-133485000D01*
X224849958Y-133510000D01*
X224824958Y-133533000D01*
X224798958Y-133555000D01*
X224771958Y-133576000D01*
X224743958Y-133595000D01*
X224714958Y-133613000D01*
X224684958Y-133629000D01*
X224653958Y-133644000D01*
X224622958Y-133657000D01*
X224590958Y-133668000D01*
X224557958Y-133678000D01*
X224524958Y-133686000D01*
X224491958Y-133692000D01*
X224457958Y-133696000D01*
X224423958Y-133699000D01*
X224389958Y-133700000D01*
X224355958Y-133699000D01*
X224321958Y-133696000D01*
X224287958Y-133692000D01*
X224254958Y-133686000D01*
X224221958Y-133678000D01*
X224188958Y-133668000D01*
X224156958Y-133657000D01*
X224125958Y-133644000D01*
X224094958Y-133629000D01*
X224064958Y-133613000D01*
X224035958Y-133595000D01*
X224007958Y-133576000D01*
X223980958Y-133555000D01*
X223954958Y-133533000D01*
X223929958Y-133510000D01*
X223906958Y-133485000D01*
X223884958Y-133459000D01*
X223863958Y-133432000D01*
X223844958Y-133404000D01*
X223826958Y-133375000D01*
X223810958Y-133345000D01*
X223795958Y-133314000D01*
X223782958Y-133283000D01*
X223771958Y-133251000D01*
X223761958Y-133218000D01*
X223753958Y-133185000D01*
X223747958Y-133152000D01*
X223743958Y-133118000D01*
X223740958Y-133084000D01*
X223739958Y-133050000D01*
X223739958Y-132450000D01*
X223740958Y-132416000D01*
X223743958Y-132382000D01*
X223747958Y-132348000D01*
X223753958Y-132315000D01*
X223761958Y-132282000D01*
X223771958Y-132249000D01*
X223782958Y-132217000D01*
X223795958Y-132186000D01*
X223810958Y-132155000D01*
X223826958Y-132125000D01*
X223844958Y-132096000D01*
X223863958Y-132068000D01*
X223884958Y-132041000D01*
X223906958Y-132015000D01*
X223929958Y-131990000D01*
X223954958Y-131967000D01*
X223980958Y-131945000D01*
X224007958Y-131924000D01*
X224035958Y-131905000D01*
X224064958Y-131887000D01*
X224094958Y-131871000D01*
X224125958Y-131856000D01*
X224156958Y-131843000D01*
X224188958Y-131832000D01*
X224221958Y-131822000D01*
X224254958Y-131814000D01*
X224287958Y-131808000D01*
X224321958Y-131804000D01*
X224355958Y-131801000D01*
X224389958Y-131800000D01*
X224423958Y-131801000D01*
G36*
X224423958Y-131801000D02*
G01*
X224457958Y-131804000D01*
X224491958Y-131808000D01*
X224524958Y-131814000D01*
X224557958Y-131822000D01*
X224590958Y-131832000D01*
X224622958Y-131843000D01*
X224653958Y-131856000D01*
X224684958Y-131871000D01*
X224714958Y-131887000D01*
X224743958Y-131905000D01*
X224771958Y-131924000D01*
X224798958Y-131945000D01*
X224824958Y-131967000D01*
X224849958Y-131990000D01*
X224872958Y-132015000D01*
X224894958Y-132041000D01*
X224915958Y-132068000D01*
X224934958Y-132096000D01*
X224952958Y-132125000D01*
X224968958Y-132155000D01*
X224983958Y-132186000D01*
X224996958Y-132217000D01*
X225007958Y-132249000D01*
X225017958Y-132282000D01*
X225025958Y-132315000D01*
X225031958Y-132348000D01*
X225035958Y-132382000D01*
X225038958Y-132416000D01*
X225039958Y-132450000D01*
X225039958Y-133050000D01*
X225038958Y-133084000D01*
X225035958Y-133118000D01*
X225031958Y-133152000D01*
X225025958Y-133185000D01*
X225017958Y-133218000D01*
X225007958Y-133251000D01*
X224996958Y-133283000D01*
X224983958Y-133314000D01*
X224968958Y-133345000D01*
X224952958Y-133375000D01*
X224934958Y-133404000D01*
X224915958Y-133432000D01*
X224894958Y-133459000D01*
X224872958Y-133485000D01*
X224849958Y-133510000D01*
X224824958Y-133533000D01*
X224798958Y-133555000D01*
X224771958Y-133576000D01*
X224743958Y-133595000D01*
X224714958Y-133613000D01*
X224684958Y-133629000D01*
X224653958Y-133644000D01*
X224622958Y-133657000D01*
X224590958Y-133668000D01*
X224557958Y-133678000D01*
X224524958Y-133686000D01*
X224491958Y-133692000D01*
X224457958Y-133696000D01*
X224423958Y-133699000D01*
X224389958Y-133700000D01*
X224355958Y-133699000D01*
X224321958Y-133696000D01*
X224287958Y-133692000D01*
X224254958Y-133686000D01*
X224221958Y-133678000D01*
X224188958Y-133668000D01*
X224156958Y-133657000D01*
X224125958Y-133644000D01*
X224094958Y-133629000D01*
X224064958Y-133613000D01*
X224035958Y-133595000D01*
X224007958Y-133576000D01*
X223980958Y-133555000D01*
X223954958Y-133533000D01*
X223929958Y-133510000D01*
X223906958Y-133485000D01*
X223884958Y-133459000D01*
X223863958Y-133432000D01*
X223844958Y-133404000D01*
X223826958Y-133375000D01*
X223810958Y-133345000D01*
X223795958Y-133314000D01*
X223782958Y-133283000D01*
X223771958Y-133251000D01*
X223761958Y-133218000D01*
X223753958Y-133185000D01*
X223747958Y-133152000D01*
X223743958Y-133118000D01*
X223740958Y-133084000D01*
X223739958Y-133050000D01*
X223739958Y-132450000D01*
X223740958Y-132416000D01*
X223743958Y-132382000D01*
X223747958Y-132348000D01*
X223753958Y-132315000D01*
X223761958Y-132282000D01*
X223771958Y-132249000D01*
X223782958Y-132217000D01*
X223795958Y-132186000D01*
X223810958Y-132155000D01*
X223826958Y-132125000D01*
X223844958Y-132096000D01*
X223863958Y-132068000D01*
X223884958Y-132041000D01*
X223906958Y-132015000D01*
X223929958Y-131990000D01*
X223954958Y-131967000D01*
X223980958Y-131945000D01*
X224007958Y-131924000D01*
X224035958Y-131905000D01*
X224064958Y-131887000D01*
X224094958Y-131871000D01*
X224125958Y-131856000D01*
X224156958Y-131843000D01*
X224188958Y-131832000D01*
X224221958Y-131822000D01*
X224254958Y-131814000D01*
X224287958Y-131808000D01*
X224321958Y-131804000D01*
X224355958Y-131801000D01*
X224389958Y-131800000D01*
X224423958Y-131801000D01*
G37*
X224423958Y-135601000D02*
X224457958Y-135604000D01*
X224491958Y-135608000D01*
X224524958Y-135614000D01*
X224557958Y-135622000D01*
X224590958Y-135632000D01*
X224622958Y-135643000D01*
X224653958Y-135656000D01*
X224684958Y-135671000D01*
X224714958Y-135687000D01*
X224743958Y-135705000D01*
X224771958Y-135724000D01*
X224798958Y-135745000D01*
X224824958Y-135767000D01*
X224849958Y-135790000D01*
X224872958Y-135815000D01*
X224894958Y-135841000D01*
X224915958Y-135868000D01*
X224934958Y-135896000D01*
X224952958Y-135925000D01*
X224968958Y-135955000D01*
X224983958Y-135986000D01*
X224996958Y-136017000D01*
X225007958Y-136049000D01*
X225017958Y-136082000D01*
X225025958Y-136115000D01*
X225031958Y-136148000D01*
X225035958Y-136182000D01*
X225038958Y-136216000D01*
X225039958Y-136250000D01*
X225039958Y-136850000D01*
X225038958Y-136884000D01*
X225035958Y-136918000D01*
X225031958Y-136952000D01*
X225025958Y-136985000D01*
X225017958Y-137018000D01*
X225007958Y-137051000D01*
X224996958Y-137083000D01*
X224983958Y-137114000D01*
X224968958Y-137145000D01*
X224952958Y-137175000D01*
X224934958Y-137204000D01*
X224915958Y-137232000D01*
X224894958Y-137259000D01*
X224872958Y-137285000D01*
X224849958Y-137310000D01*
X224824958Y-137333000D01*
X224798958Y-137355000D01*
X224771958Y-137376000D01*
X224743958Y-137395000D01*
X224714958Y-137413000D01*
X224684958Y-137429000D01*
X224653958Y-137444000D01*
X224622958Y-137457000D01*
X224590958Y-137468000D01*
X224557958Y-137478000D01*
X224524958Y-137486000D01*
X224491958Y-137492000D01*
X224457958Y-137496000D01*
X224423958Y-137499000D01*
X224389958Y-137500000D01*
X224355958Y-137499000D01*
X224321958Y-137496000D01*
X224287958Y-137492000D01*
X224254958Y-137486000D01*
X224221958Y-137478000D01*
X224188958Y-137468000D01*
X224156958Y-137457000D01*
X224125958Y-137444000D01*
X224094958Y-137429000D01*
X224064958Y-137413000D01*
X224035958Y-137395000D01*
X224007958Y-137376000D01*
X223980958Y-137355000D01*
X223954958Y-137333000D01*
X223929958Y-137310000D01*
X223906958Y-137285000D01*
X223884958Y-137259000D01*
X223863958Y-137232000D01*
X223844958Y-137204000D01*
X223826958Y-137175000D01*
X223810958Y-137145000D01*
X223795958Y-137114000D01*
X223782958Y-137083000D01*
X223771958Y-137051000D01*
X223761958Y-137018000D01*
X223753958Y-136985000D01*
X223747958Y-136952000D01*
X223743958Y-136918000D01*
X223740958Y-136884000D01*
X223739958Y-136850000D01*
X223739958Y-136250000D01*
X223740958Y-136216000D01*
X223743958Y-136182000D01*
X223747958Y-136148000D01*
X223753958Y-136115000D01*
X223761958Y-136082000D01*
X223771958Y-136049000D01*
X223782958Y-136017000D01*
X223795958Y-135986000D01*
X223810958Y-135955000D01*
X223826958Y-135925000D01*
X223844958Y-135896000D01*
X223863958Y-135868000D01*
X223884958Y-135841000D01*
X223906958Y-135815000D01*
X223929958Y-135790000D01*
X223954958Y-135767000D01*
X223980958Y-135745000D01*
X224007958Y-135724000D01*
X224035958Y-135705000D01*
X224064958Y-135687000D01*
X224094958Y-135671000D01*
X224125958Y-135656000D01*
X224156958Y-135643000D01*
X224188958Y-135632000D01*
X224221958Y-135622000D01*
X224254958Y-135614000D01*
X224287958Y-135608000D01*
X224321958Y-135604000D01*
X224355958Y-135601000D01*
X224389958Y-135600000D01*
X224423958Y-135601000D01*
G36*
X224423958Y-135601000D02*
G01*
X224457958Y-135604000D01*
X224491958Y-135608000D01*
X224524958Y-135614000D01*
X224557958Y-135622000D01*
X224590958Y-135632000D01*
X224622958Y-135643000D01*
X224653958Y-135656000D01*
X224684958Y-135671000D01*
X224714958Y-135687000D01*
X224743958Y-135705000D01*
X224771958Y-135724000D01*
X224798958Y-135745000D01*
X224824958Y-135767000D01*
X224849958Y-135790000D01*
X224872958Y-135815000D01*
X224894958Y-135841000D01*
X224915958Y-135868000D01*
X224934958Y-135896000D01*
X224952958Y-135925000D01*
X224968958Y-135955000D01*
X224983958Y-135986000D01*
X224996958Y-136017000D01*
X225007958Y-136049000D01*
X225017958Y-136082000D01*
X225025958Y-136115000D01*
X225031958Y-136148000D01*
X225035958Y-136182000D01*
X225038958Y-136216000D01*
X225039958Y-136250000D01*
X225039958Y-136850000D01*
X225038958Y-136884000D01*
X225035958Y-136918000D01*
X225031958Y-136952000D01*
X225025958Y-136985000D01*
X225017958Y-137018000D01*
X225007958Y-137051000D01*
X224996958Y-137083000D01*
X224983958Y-137114000D01*
X224968958Y-137145000D01*
X224952958Y-137175000D01*
X224934958Y-137204000D01*
X224915958Y-137232000D01*
X224894958Y-137259000D01*
X224872958Y-137285000D01*
X224849958Y-137310000D01*
X224824958Y-137333000D01*
X224798958Y-137355000D01*
X224771958Y-137376000D01*
X224743958Y-137395000D01*
X224714958Y-137413000D01*
X224684958Y-137429000D01*
X224653958Y-137444000D01*
X224622958Y-137457000D01*
X224590958Y-137468000D01*
X224557958Y-137478000D01*
X224524958Y-137486000D01*
X224491958Y-137492000D01*
X224457958Y-137496000D01*
X224423958Y-137499000D01*
X224389958Y-137500000D01*
X224355958Y-137499000D01*
X224321958Y-137496000D01*
X224287958Y-137492000D01*
X224254958Y-137486000D01*
X224221958Y-137478000D01*
X224188958Y-137468000D01*
X224156958Y-137457000D01*
X224125958Y-137444000D01*
X224094958Y-137429000D01*
X224064958Y-137413000D01*
X224035958Y-137395000D01*
X224007958Y-137376000D01*
X223980958Y-137355000D01*
X223954958Y-137333000D01*
X223929958Y-137310000D01*
X223906958Y-137285000D01*
X223884958Y-137259000D01*
X223863958Y-137232000D01*
X223844958Y-137204000D01*
X223826958Y-137175000D01*
X223810958Y-137145000D01*
X223795958Y-137114000D01*
X223782958Y-137083000D01*
X223771958Y-137051000D01*
X223761958Y-137018000D01*
X223753958Y-136985000D01*
X223747958Y-136952000D01*
X223743958Y-136918000D01*
X223740958Y-136884000D01*
X223739958Y-136850000D01*
X223739958Y-136250000D01*
X223740958Y-136216000D01*
X223743958Y-136182000D01*
X223747958Y-136148000D01*
X223753958Y-136115000D01*
X223761958Y-136082000D01*
X223771958Y-136049000D01*
X223782958Y-136017000D01*
X223795958Y-135986000D01*
X223810958Y-135955000D01*
X223826958Y-135925000D01*
X223844958Y-135896000D01*
X223863958Y-135868000D01*
X223884958Y-135841000D01*
X223906958Y-135815000D01*
X223929958Y-135790000D01*
X223954958Y-135767000D01*
X223980958Y-135745000D01*
X224007958Y-135724000D01*
X224035958Y-135705000D01*
X224064958Y-135687000D01*
X224094958Y-135671000D01*
X224125958Y-135656000D01*
X224156958Y-135643000D01*
X224188958Y-135632000D01*
X224221958Y-135622000D01*
X224254958Y-135614000D01*
X224287958Y-135608000D01*
X224321958Y-135604000D01*
X224355958Y-135601000D01*
X224389958Y-135600000D01*
X224423958Y-135601000D01*
G37*
X233063958Y-131801000D02*
X233097958Y-131804000D01*
X233131958Y-131808000D01*
X233164958Y-131814000D01*
X233197958Y-131822000D01*
X233230958Y-131832000D01*
X233262958Y-131843000D01*
X233293958Y-131856000D01*
X233324958Y-131871000D01*
X233354958Y-131887000D01*
X233383958Y-131905000D01*
X233411958Y-131924000D01*
X233438958Y-131945000D01*
X233464958Y-131967000D01*
X233489958Y-131990000D01*
X233512958Y-132015000D01*
X233534958Y-132041000D01*
X233555958Y-132068000D01*
X233574958Y-132096000D01*
X233592958Y-132125000D01*
X233608958Y-132155000D01*
X233623958Y-132186000D01*
X233636958Y-132217000D01*
X233647958Y-132249000D01*
X233657958Y-132282000D01*
X233665958Y-132315000D01*
X233671958Y-132348000D01*
X233675958Y-132382000D01*
X233678958Y-132416000D01*
X233679958Y-132450000D01*
X233679958Y-133050000D01*
X233678958Y-133084000D01*
X233675958Y-133118000D01*
X233671958Y-133152000D01*
X233665958Y-133185000D01*
X233657958Y-133218000D01*
X233647958Y-133251000D01*
X233636958Y-133283000D01*
X233623958Y-133314000D01*
X233608958Y-133345000D01*
X233592958Y-133375000D01*
X233574958Y-133404000D01*
X233555958Y-133432000D01*
X233534958Y-133459000D01*
X233512958Y-133485000D01*
X233489958Y-133510000D01*
X233464958Y-133533000D01*
X233438958Y-133555000D01*
X233411958Y-133576000D01*
X233383958Y-133595000D01*
X233354958Y-133613000D01*
X233324958Y-133629000D01*
X233293958Y-133644000D01*
X233262958Y-133657000D01*
X233230958Y-133668000D01*
X233197958Y-133678000D01*
X233164958Y-133686000D01*
X233131958Y-133692000D01*
X233097958Y-133696000D01*
X233063958Y-133699000D01*
X233029958Y-133700000D01*
X232995958Y-133699000D01*
X232961958Y-133696000D01*
X232927958Y-133692000D01*
X232894958Y-133686000D01*
X232861958Y-133678000D01*
X232828958Y-133668000D01*
X232796958Y-133657000D01*
X232765958Y-133644000D01*
X232734958Y-133629000D01*
X232704958Y-133613000D01*
X232675958Y-133595000D01*
X232647958Y-133576000D01*
X232620958Y-133555000D01*
X232594958Y-133533000D01*
X232569958Y-133510000D01*
X232546958Y-133485000D01*
X232524958Y-133459000D01*
X232503958Y-133432000D01*
X232484958Y-133404000D01*
X232466958Y-133375000D01*
X232450958Y-133345000D01*
X232435958Y-133314000D01*
X232422958Y-133283000D01*
X232411958Y-133251000D01*
X232401958Y-133218000D01*
X232393958Y-133185000D01*
X232387958Y-133152000D01*
X232383958Y-133118000D01*
X232380958Y-133084000D01*
X232379958Y-133050000D01*
X232379958Y-132450000D01*
X232380958Y-132416000D01*
X232383958Y-132382000D01*
X232387958Y-132348000D01*
X232393958Y-132315000D01*
X232401958Y-132282000D01*
X232411958Y-132249000D01*
X232422958Y-132217000D01*
X232435958Y-132186000D01*
X232450958Y-132155000D01*
X232466958Y-132125000D01*
X232484958Y-132096000D01*
X232503958Y-132068000D01*
X232524958Y-132041000D01*
X232546958Y-132015000D01*
X232569958Y-131990000D01*
X232594958Y-131967000D01*
X232620958Y-131945000D01*
X232647958Y-131924000D01*
X232675958Y-131905000D01*
X232704958Y-131887000D01*
X232734958Y-131871000D01*
X232765958Y-131856000D01*
X232796958Y-131843000D01*
X232828958Y-131832000D01*
X232861958Y-131822000D01*
X232894958Y-131814000D01*
X232927958Y-131808000D01*
X232961958Y-131804000D01*
X232995958Y-131801000D01*
X233029958Y-131800000D01*
X233063958Y-131801000D01*
G36*
X233063958Y-131801000D02*
G01*
X233097958Y-131804000D01*
X233131958Y-131808000D01*
X233164958Y-131814000D01*
X233197958Y-131822000D01*
X233230958Y-131832000D01*
X233262958Y-131843000D01*
X233293958Y-131856000D01*
X233324958Y-131871000D01*
X233354958Y-131887000D01*
X233383958Y-131905000D01*
X233411958Y-131924000D01*
X233438958Y-131945000D01*
X233464958Y-131967000D01*
X233489958Y-131990000D01*
X233512958Y-132015000D01*
X233534958Y-132041000D01*
X233555958Y-132068000D01*
X233574958Y-132096000D01*
X233592958Y-132125000D01*
X233608958Y-132155000D01*
X233623958Y-132186000D01*
X233636958Y-132217000D01*
X233647958Y-132249000D01*
X233657958Y-132282000D01*
X233665958Y-132315000D01*
X233671958Y-132348000D01*
X233675958Y-132382000D01*
X233678958Y-132416000D01*
X233679958Y-132450000D01*
X233679958Y-133050000D01*
X233678958Y-133084000D01*
X233675958Y-133118000D01*
X233671958Y-133152000D01*
X233665958Y-133185000D01*
X233657958Y-133218000D01*
X233647958Y-133251000D01*
X233636958Y-133283000D01*
X233623958Y-133314000D01*
X233608958Y-133345000D01*
X233592958Y-133375000D01*
X233574958Y-133404000D01*
X233555958Y-133432000D01*
X233534958Y-133459000D01*
X233512958Y-133485000D01*
X233489958Y-133510000D01*
X233464958Y-133533000D01*
X233438958Y-133555000D01*
X233411958Y-133576000D01*
X233383958Y-133595000D01*
X233354958Y-133613000D01*
X233324958Y-133629000D01*
X233293958Y-133644000D01*
X233262958Y-133657000D01*
X233230958Y-133668000D01*
X233197958Y-133678000D01*
X233164958Y-133686000D01*
X233131958Y-133692000D01*
X233097958Y-133696000D01*
X233063958Y-133699000D01*
X233029958Y-133700000D01*
X232995958Y-133699000D01*
X232961958Y-133696000D01*
X232927958Y-133692000D01*
X232894958Y-133686000D01*
X232861958Y-133678000D01*
X232828958Y-133668000D01*
X232796958Y-133657000D01*
X232765958Y-133644000D01*
X232734958Y-133629000D01*
X232704958Y-133613000D01*
X232675958Y-133595000D01*
X232647958Y-133576000D01*
X232620958Y-133555000D01*
X232594958Y-133533000D01*
X232569958Y-133510000D01*
X232546958Y-133485000D01*
X232524958Y-133459000D01*
X232503958Y-133432000D01*
X232484958Y-133404000D01*
X232466958Y-133375000D01*
X232450958Y-133345000D01*
X232435958Y-133314000D01*
X232422958Y-133283000D01*
X232411958Y-133251000D01*
X232401958Y-133218000D01*
X232393958Y-133185000D01*
X232387958Y-133152000D01*
X232383958Y-133118000D01*
X232380958Y-133084000D01*
X232379958Y-133050000D01*
X232379958Y-132450000D01*
X232380958Y-132416000D01*
X232383958Y-132382000D01*
X232387958Y-132348000D01*
X232393958Y-132315000D01*
X232401958Y-132282000D01*
X232411958Y-132249000D01*
X232422958Y-132217000D01*
X232435958Y-132186000D01*
X232450958Y-132155000D01*
X232466958Y-132125000D01*
X232484958Y-132096000D01*
X232503958Y-132068000D01*
X232524958Y-132041000D01*
X232546958Y-132015000D01*
X232569958Y-131990000D01*
X232594958Y-131967000D01*
X232620958Y-131945000D01*
X232647958Y-131924000D01*
X232675958Y-131905000D01*
X232704958Y-131887000D01*
X232734958Y-131871000D01*
X232765958Y-131856000D01*
X232796958Y-131843000D01*
X232828958Y-131832000D01*
X232861958Y-131822000D01*
X232894958Y-131814000D01*
X232927958Y-131808000D01*
X232961958Y-131804000D01*
X232995958Y-131801000D01*
X233029958Y-131800000D01*
X233063958Y-131801000D01*
G37*
X233063958Y-135601000D02*
X233097958Y-135604000D01*
X233131958Y-135608000D01*
X233164958Y-135614000D01*
X233197958Y-135622000D01*
X233230958Y-135632000D01*
X233262958Y-135643000D01*
X233293958Y-135656000D01*
X233324958Y-135671000D01*
X233354958Y-135687000D01*
X233383958Y-135705000D01*
X233411958Y-135724000D01*
X233438958Y-135745000D01*
X233464958Y-135767000D01*
X233489958Y-135790000D01*
X233512958Y-135815000D01*
X233534958Y-135841000D01*
X233555958Y-135868000D01*
X233574958Y-135896000D01*
X233592958Y-135925000D01*
X233608958Y-135955000D01*
X233623958Y-135986000D01*
X233636958Y-136017000D01*
X233647958Y-136049000D01*
X233657958Y-136082000D01*
X233665958Y-136115000D01*
X233671958Y-136148000D01*
X233675958Y-136182000D01*
X233678958Y-136216000D01*
X233679958Y-136250000D01*
X233679958Y-136850000D01*
X233678958Y-136884000D01*
X233675958Y-136918000D01*
X233671958Y-136952000D01*
X233665958Y-136985000D01*
X233657958Y-137018000D01*
X233647958Y-137051000D01*
X233636958Y-137083000D01*
X233623958Y-137114000D01*
X233608958Y-137145000D01*
X233592958Y-137175000D01*
X233574958Y-137204000D01*
X233555958Y-137232000D01*
X233534958Y-137259000D01*
X233512958Y-137285000D01*
X233489958Y-137310000D01*
X233464958Y-137333000D01*
X233438958Y-137355000D01*
X233411958Y-137376000D01*
X233383958Y-137395000D01*
X233354958Y-137413000D01*
X233324958Y-137429000D01*
X233293958Y-137444000D01*
X233262958Y-137457000D01*
X233230958Y-137468000D01*
X233197958Y-137478000D01*
X233164958Y-137486000D01*
X233131958Y-137492000D01*
X233097958Y-137496000D01*
X233063958Y-137499000D01*
X233029958Y-137500000D01*
X232995958Y-137499000D01*
X232961958Y-137496000D01*
X232927958Y-137492000D01*
X232894958Y-137486000D01*
X232861958Y-137478000D01*
X232828958Y-137468000D01*
X232796958Y-137457000D01*
X232765958Y-137444000D01*
X232734958Y-137429000D01*
X232704958Y-137413000D01*
X232675958Y-137395000D01*
X232647958Y-137376000D01*
X232620958Y-137355000D01*
X232594958Y-137333000D01*
X232569958Y-137310000D01*
X232546958Y-137285000D01*
X232524958Y-137259000D01*
X232503958Y-137232000D01*
X232484958Y-137204000D01*
X232466958Y-137175000D01*
X232450958Y-137145000D01*
X232435958Y-137114000D01*
X232422958Y-137083000D01*
X232411958Y-137051000D01*
X232401958Y-137018000D01*
X232393958Y-136985000D01*
X232387958Y-136952000D01*
X232383958Y-136918000D01*
X232380958Y-136884000D01*
X232379958Y-136850000D01*
X232379958Y-136250000D01*
X232380958Y-136216000D01*
X232383958Y-136182000D01*
X232387958Y-136148000D01*
X232393958Y-136115000D01*
X232401958Y-136082000D01*
X232411958Y-136049000D01*
X232422958Y-136017000D01*
X232435958Y-135986000D01*
X232450958Y-135955000D01*
X232466958Y-135925000D01*
X232484958Y-135896000D01*
X232503958Y-135868000D01*
X232524958Y-135841000D01*
X232546958Y-135815000D01*
X232569958Y-135790000D01*
X232594958Y-135767000D01*
X232620958Y-135745000D01*
X232647958Y-135724000D01*
X232675958Y-135705000D01*
X232704958Y-135687000D01*
X232734958Y-135671000D01*
X232765958Y-135656000D01*
X232796958Y-135643000D01*
X232828958Y-135632000D01*
X232861958Y-135622000D01*
X232894958Y-135614000D01*
X232927958Y-135608000D01*
X232961958Y-135604000D01*
X232995958Y-135601000D01*
X233029958Y-135600000D01*
X233063958Y-135601000D01*
G36*
X233063958Y-135601000D02*
G01*
X233097958Y-135604000D01*
X233131958Y-135608000D01*
X233164958Y-135614000D01*
X233197958Y-135622000D01*
X233230958Y-135632000D01*
X233262958Y-135643000D01*
X233293958Y-135656000D01*
X233324958Y-135671000D01*
X233354958Y-135687000D01*
X233383958Y-135705000D01*
X233411958Y-135724000D01*
X233438958Y-135745000D01*
X233464958Y-135767000D01*
X233489958Y-135790000D01*
X233512958Y-135815000D01*
X233534958Y-135841000D01*
X233555958Y-135868000D01*
X233574958Y-135896000D01*
X233592958Y-135925000D01*
X233608958Y-135955000D01*
X233623958Y-135986000D01*
X233636958Y-136017000D01*
X233647958Y-136049000D01*
X233657958Y-136082000D01*
X233665958Y-136115000D01*
X233671958Y-136148000D01*
X233675958Y-136182000D01*
X233678958Y-136216000D01*
X233679958Y-136250000D01*
X233679958Y-136850000D01*
X233678958Y-136884000D01*
X233675958Y-136918000D01*
X233671958Y-136952000D01*
X233665958Y-136985000D01*
X233657958Y-137018000D01*
X233647958Y-137051000D01*
X233636958Y-137083000D01*
X233623958Y-137114000D01*
X233608958Y-137145000D01*
X233592958Y-137175000D01*
X233574958Y-137204000D01*
X233555958Y-137232000D01*
X233534958Y-137259000D01*
X233512958Y-137285000D01*
X233489958Y-137310000D01*
X233464958Y-137333000D01*
X233438958Y-137355000D01*
X233411958Y-137376000D01*
X233383958Y-137395000D01*
X233354958Y-137413000D01*
X233324958Y-137429000D01*
X233293958Y-137444000D01*
X233262958Y-137457000D01*
X233230958Y-137468000D01*
X233197958Y-137478000D01*
X233164958Y-137486000D01*
X233131958Y-137492000D01*
X233097958Y-137496000D01*
X233063958Y-137499000D01*
X233029958Y-137500000D01*
X232995958Y-137499000D01*
X232961958Y-137496000D01*
X232927958Y-137492000D01*
X232894958Y-137486000D01*
X232861958Y-137478000D01*
X232828958Y-137468000D01*
X232796958Y-137457000D01*
X232765958Y-137444000D01*
X232734958Y-137429000D01*
X232704958Y-137413000D01*
X232675958Y-137395000D01*
X232647958Y-137376000D01*
X232620958Y-137355000D01*
X232594958Y-137333000D01*
X232569958Y-137310000D01*
X232546958Y-137285000D01*
X232524958Y-137259000D01*
X232503958Y-137232000D01*
X232484958Y-137204000D01*
X232466958Y-137175000D01*
X232450958Y-137145000D01*
X232435958Y-137114000D01*
X232422958Y-137083000D01*
X232411958Y-137051000D01*
X232401958Y-137018000D01*
X232393958Y-136985000D01*
X232387958Y-136952000D01*
X232383958Y-136918000D01*
X232380958Y-136884000D01*
X232379958Y-136850000D01*
X232379958Y-136250000D01*
X232380958Y-136216000D01*
X232383958Y-136182000D01*
X232387958Y-136148000D01*
X232393958Y-136115000D01*
X232401958Y-136082000D01*
X232411958Y-136049000D01*
X232422958Y-136017000D01*
X232435958Y-135986000D01*
X232450958Y-135955000D01*
X232466958Y-135925000D01*
X232484958Y-135896000D01*
X232503958Y-135868000D01*
X232524958Y-135841000D01*
X232546958Y-135815000D01*
X232569958Y-135790000D01*
X232594958Y-135767000D01*
X232620958Y-135745000D01*
X232647958Y-135724000D01*
X232675958Y-135705000D01*
X232704958Y-135687000D01*
X232734958Y-135671000D01*
X232765958Y-135656000D01*
X232796958Y-135643000D01*
X232828958Y-135632000D01*
X232861958Y-135622000D01*
X232894958Y-135614000D01*
X232927958Y-135608000D01*
X232961958Y-135604000D01*
X232995958Y-135601000D01*
X233029958Y-135600000D01*
X233063958Y-135601000D01*
G37*
%TD*%
D11*
%TO.C,U4*%
X204480000Y-102370000D03*
X220600000Y-102370000D03*
D12*
X218890000Y-114130000D03*
X206190000Y-114130000D03*
X221430000Y-114130000D03*
X208730000Y-114130000D03*
X211270000Y-114130000D03*
X203650000Y-114130000D03*
X216350000Y-114130000D03*
X213810000Y-114130000D03*
%TD*%
%TO.C,*%
X216200000Y-117700000D03*
%TD*%
D13*
%TO.C,*%
X237200000Y-110900000D03*
%TD*%
D14*
%TO.C,U6*%
X209900000Y-131950000D03*
D15*
X211900000Y-131950000D03*
%TD*%
D11*
%TO.C,*%
X219600000Y-135700000D03*
%TD*%
D16*
%TO.C,R13*%
X235700000Y-115475000D03*
X235700000Y-117975000D03*
%TD*%
D12*
%TO.C,*%
X213500000Y-117700000D03*
%TD*%
M02*
