%TF.GenerationSoftware,KiCad,Pcbnew,9.0.7*%
%TF.CreationDate,2026-03-18T02:36:35-05:00*%
%TF.ProjectId,mainBoardV2,6d61696e-426f-4617-9264-56322e6b6963,rev?*%
%TF.SameCoordinates,Original*%
%TF.FileFunction,Legend,Top*%
%TF.FilePolarity,Positive*%
%FSLAX46Y46*%
G04 Gerber Fmt 4.6, Leading zero omitted, Abs format (unit mm)*
G04 Created by KiCad (PCBNEW 9.0.7) date 2026-03-18 02:36:35*
%MOMM*%
%LPD*%
G01*
G04 APERTURE LIST*
G04 Aperture macros list*
%AMRoundRect*
0 Rectangle with rounded corners*
0 $1 Rounding radius*
0 $2 $3 $4 $5 $6 $7 $8 $9 X,Y pos of 4 corners*
0 Add a 4 corners polygon primitive as box body*
4,1,4,$2,$3,$4,$5,$6,$7,$8,$9,$2,$3,0*
0 Add four circle primitives for the rounded corners*
1,1,$1+$1,$2,$3*
1,1,$1+$1,$4,$5*
1,1,$1+$1,$6,$7*
1,1,$1+$1,$8,$9*
0 Add four rect primitives between the rounded corners*
20,1,$1+$1,$2,$3,$4,$5,0*
20,1,$1+$1,$4,$5,$6,$7,0*
20,1,$1+$1,$6,$7,$8,$9,0*
20,1,$1+$1,$8,$9,$2,$3,0*%
G04 Aperture macros list end*
%ADD10C,0.100000*%
%ADD11C,0.150000*%
%ADD12C,0.120000*%
%ADD13C,0.127000*%
%ADD14C,0.200000*%
%ADD15C,0.206525*%
%ADD16C,0.010000*%
%ADD17RoundRect,0.250000X-0.350000X-0.450000X0.350000X-0.450000X0.350000X0.450000X-0.350000X0.450000X0*%
%ADD18C,3.200000*%
%ADD19RoundRect,0.250000X0.350000X0.450000X-0.350000X0.450000X-0.350000X-0.450000X0.350000X-0.450000X0*%
%ADD20RoundRect,0.250001X-0.944999X0.872499X-0.944999X-0.872499X0.944999X-0.872499X0.944999X0.872499X0*%
%ADD21RoundRect,0.102000X-0.330000X-0.155000X0.330000X-0.155000X0.330000X0.155000X-0.330000X0.155000X0*%
%ADD22RoundRect,0.116000X0.406000X0.116000X-0.406000X0.116000X-0.406000X-0.116000X0.406000X-0.116000X0*%
%ADD23RoundRect,0.116000X0.116000X0.406000X-0.116000X0.406000X-0.116000X-0.406000X0.116000X-0.406000X0*%
%ADD24RoundRect,0.102000X1.350000X1.350000X-1.350000X1.350000X-1.350000X-1.350000X1.350000X-1.350000X0*%
%ADD25RoundRect,0.250000X0.337500X0.475000X-0.337500X0.475000X-0.337500X-0.475000X0.337500X-0.475000X0*%
%ADD26C,2.109000*%
%ADD27RoundRect,0.250000X-0.337500X-0.475000X0.337500X-0.475000X0.337500X0.475000X-0.337500X0.475000X0*%
%ADD28RoundRect,0.250000X0.450000X-0.350000X0.450000X0.350000X-0.450000X0.350000X-0.450000X-0.350000X0*%
%ADD29C,4.000000*%
%ADD30RoundRect,0.135000X-0.315000X-0.615000X0.315000X-0.615000X0.315000X0.615000X-0.315000X0.615000X0*%
%ADD31RoundRect,0.102000X-0.350000X-0.600000X0.350000X-0.600000X0.350000X0.600000X-0.350000X0.600000X0*%
%ADD32RoundRect,0.102000X-0.380000X-0.600000X0.380000X-0.600000X0.380000X0.600000X-0.380000X0.600000X0*%
%ADD33RoundRect,0.102000X-0.400000X-0.600000X0.400000X-0.600000X0.400000X0.600000X-0.400000X0.600000X0*%
%ADD34RoundRect,0.250000X-0.350000X-0.625000X0.350000X-0.625000X0.350000X0.625000X-0.350000X0.625000X0*%
%ADD35O,1.200000X1.750000*%
%ADD36C,2.000000*%
%ADD37RoundRect,0.102000X-0.490000X-1.700000X0.490000X-1.700000X0.490000X1.700000X-0.490000X1.700000X0*%
G04 APERTURE END LIST*
D10*
X235227693Y-113420038D02*
X235132455Y-113372419D01*
X235132455Y-113372419D02*
X234989598Y-113372419D01*
X234989598Y-113372419D02*
X234846741Y-113420038D01*
X234846741Y-113420038D02*
X234751503Y-113515276D01*
X234751503Y-113515276D02*
X234703884Y-113610514D01*
X234703884Y-113610514D02*
X234656265Y-113800990D01*
X234656265Y-113800990D02*
X234656265Y-113943847D01*
X234656265Y-113943847D02*
X234703884Y-114134323D01*
X234703884Y-114134323D02*
X234751503Y-114229561D01*
X234751503Y-114229561D02*
X234846741Y-114324800D01*
X234846741Y-114324800D02*
X234989598Y-114372419D01*
X234989598Y-114372419D02*
X235084836Y-114372419D01*
X235084836Y-114372419D02*
X235227693Y-114324800D01*
X235227693Y-114324800D02*
X235275312Y-114277180D01*
X235275312Y-114277180D02*
X235275312Y-113943847D01*
X235275312Y-113943847D02*
X235084836Y-113943847D01*
X235703884Y-114372419D02*
X235703884Y-113372419D01*
X235703884Y-113372419D02*
X236275312Y-114372419D01*
X236275312Y-114372419D02*
X236275312Y-113372419D01*
X236751503Y-114372419D02*
X236751503Y-113372419D01*
X236751503Y-113372419D02*
X236989598Y-113372419D01*
X236989598Y-113372419D02*
X237132455Y-113420038D01*
X237132455Y-113420038D02*
X237227693Y-113515276D01*
X237227693Y-113515276D02*
X237275312Y-113610514D01*
X237275312Y-113610514D02*
X237322931Y-113800990D01*
X237322931Y-113800990D02*
X237322931Y-113943847D01*
X237322931Y-113943847D02*
X237275312Y-114134323D01*
X237275312Y-114134323D02*
X237227693Y-114229561D01*
X237227693Y-114229561D02*
X237132455Y-114324800D01*
X237132455Y-114324800D02*
X236989598Y-114372419D01*
X236989598Y-114372419D02*
X236751503Y-114372419D01*
X217303884Y-116691466D02*
X218065789Y-116691466D01*
X217684836Y-117072419D02*
X217684836Y-116310514D01*
X211803884Y-116791466D02*
X212565789Y-116791466D01*
X212184836Y-117172419D02*
X212184836Y-116410514D01*
D11*
X237933333Y-128054819D02*
X237600000Y-127578628D01*
X237361905Y-128054819D02*
X237361905Y-127054819D01*
X237361905Y-127054819D02*
X237742857Y-127054819D01*
X237742857Y-127054819D02*
X237838095Y-127102438D01*
X237838095Y-127102438D02*
X237885714Y-127150057D01*
X237885714Y-127150057D02*
X237933333Y-127245295D01*
X237933333Y-127245295D02*
X237933333Y-127388152D01*
X237933333Y-127388152D02*
X237885714Y-127483390D01*
X237885714Y-127483390D02*
X237838095Y-127531009D01*
X237838095Y-127531009D02*
X237742857Y-127578628D01*
X237742857Y-127578628D02*
X237361905Y-127578628D01*
X238266667Y-127054819D02*
X238933333Y-127054819D01*
X238933333Y-127054819D02*
X238504762Y-128054819D01*
X226433333Y-128104819D02*
X226100000Y-127628628D01*
X225861905Y-128104819D02*
X225861905Y-127104819D01*
X225861905Y-127104819D02*
X226242857Y-127104819D01*
X226242857Y-127104819D02*
X226338095Y-127152438D01*
X226338095Y-127152438D02*
X226385714Y-127200057D01*
X226385714Y-127200057D02*
X226433333Y-127295295D01*
X226433333Y-127295295D02*
X226433333Y-127438152D01*
X226433333Y-127438152D02*
X226385714Y-127533390D01*
X226385714Y-127533390D02*
X226338095Y-127581009D01*
X226338095Y-127581009D02*
X226242857Y-127628628D01*
X226242857Y-127628628D02*
X225861905Y-127628628D01*
X227290476Y-127104819D02*
X227100000Y-127104819D01*
X227100000Y-127104819D02*
X227004762Y-127152438D01*
X227004762Y-127152438D02*
X226957143Y-127200057D01*
X226957143Y-127200057D02*
X226861905Y-127342914D01*
X226861905Y-127342914D02*
X226814286Y-127533390D01*
X226814286Y-127533390D02*
X226814286Y-127914342D01*
X226814286Y-127914342D02*
X226861905Y-128009580D01*
X226861905Y-128009580D02*
X226909524Y-128057200D01*
X226909524Y-128057200D02*
X227004762Y-128104819D01*
X227004762Y-128104819D02*
X227195238Y-128104819D01*
X227195238Y-128104819D02*
X227290476Y-128057200D01*
X227290476Y-128057200D02*
X227338095Y-128009580D01*
X227338095Y-128009580D02*
X227385714Y-127914342D01*
X227385714Y-127914342D02*
X227385714Y-127676247D01*
X227385714Y-127676247D02*
X227338095Y-127581009D01*
X227338095Y-127581009D02*
X227290476Y-127533390D01*
X227290476Y-127533390D02*
X227195238Y-127485771D01*
X227195238Y-127485771D02*
X227004762Y-127485771D01*
X227004762Y-127485771D02*
X226909524Y-127533390D01*
X226909524Y-127533390D02*
X226861905Y-127581009D01*
X226861905Y-127581009D02*
X226814286Y-127676247D01*
X209733333Y-117254819D02*
X209400000Y-116778628D01*
X209161905Y-117254819D02*
X209161905Y-116254819D01*
X209161905Y-116254819D02*
X209542857Y-116254819D01*
X209542857Y-116254819D02*
X209638095Y-116302438D01*
X209638095Y-116302438D02*
X209685714Y-116350057D01*
X209685714Y-116350057D02*
X209733333Y-116445295D01*
X209733333Y-116445295D02*
X209733333Y-116588152D01*
X209733333Y-116588152D02*
X209685714Y-116683390D01*
X209685714Y-116683390D02*
X209638095Y-116731009D01*
X209638095Y-116731009D02*
X209542857Y-116778628D01*
X209542857Y-116778628D02*
X209161905Y-116778628D01*
X210685714Y-117254819D02*
X210114286Y-117254819D01*
X210400000Y-117254819D02*
X210400000Y-116254819D01*
X210400000Y-116254819D02*
X210304762Y-116397676D01*
X210304762Y-116397676D02*
X210209524Y-116492914D01*
X210209524Y-116492914D02*
X210114286Y-116540533D01*
X215833333Y-120959580D02*
X215785714Y-121007200D01*
X215785714Y-121007200D02*
X215642857Y-121054819D01*
X215642857Y-121054819D02*
X215547619Y-121054819D01*
X215547619Y-121054819D02*
X215404762Y-121007200D01*
X215404762Y-121007200D02*
X215309524Y-120911961D01*
X215309524Y-120911961D02*
X215261905Y-120816723D01*
X215261905Y-120816723D02*
X215214286Y-120626247D01*
X215214286Y-120626247D02*
X215214286Y-120483390D01*
X215214286Y-120483390D02*
X215261905Y-120292914D01*
X215261905Y-120292914D02*
X215309524Y-120197676D01*
X215309524Y-120197676D02*
X215404762Y-120102438D01*
X215404762Y-120102438D02*
X215547619Y-120054819D01*
X215547619Y-120054819D02*
X215642857Y-120054819D01*
X215642857Y-120054819D02*
X215785714Y-120102438D01*
X215785714Y-120102438D02*
X215833333Y-120150057D01*
X216166667Y-120054819D02*
X216785714Y-120054819D01*
X216785714Y-120054819D02*
X216452381Y-120435771D01*
X216452381Y-120435771D02*
X216595238Y-120435771D01*
X216595238Y-120435771D02*
X216690476Y-120483390D01*
X216690476Y-120483390D02*
X216738095Y-120531009D01*
X216738095Y-120531009D02*
X216785714Y-120626247D01*
X216785714Y-120626247D02*
X216785714Y-120864342D01*
X216785714Y-120864342D02*
X216738095Y-120959580D01*
X216738095Y-120959580D02*
X216690476Y-121007200D01*
X216690476Y-121007200D02*
X216595238Y-121054819D01*
X216595238Y-121054819D02*
X216309524Y-121054819D01*
X216309524Y-121054819D02*
X216214286Y-121007200D01*
X216214286Y-121007200D02*
X216166667Y-120959580D01*
X212633333Y-120959580D02*
X212585714Y-121007200D01*
X212585714Y-121007200D02*
X212442857Y-121054819D01*
X212442857Y-121054819D02*
X212347619Y-121054819D01*
X212347619Y-121054819D02*
X212204762Y-121007200D01*
X212204762Y-121007200D02*
X212109524Y-120911961D01*
X212109524Y-120911961D02*
X212061905Y-120816723D01*
X212061905Y-120816723D02*
X212014286Y-120626247D01*
X212014286Y-120626247D02*
X212014286Y-120483390D01*
X212014286Y-120483390D02*
X212061905Y-120292914D01*
X212061905Y-120292914D02*
X212109524Y-120197676D01*
X212109524Y-120197676D02*
X212204762Y-120102438D01*
X212204762Y-120102438D02*
X212347619Y-120054819D01*
X212347619Y-120054819D02*
X212442857Y-120054819D01*
X212442857Y-120054819D02*
X212585714Y-120102438D01*
X212585714Y-120102438D02*
X212633333Y-120150057D01*
X213014286Y-120150057D02*
X213061905Y-120102438D01*
X213061905Y-120102438D02*
X213157143Y-120054819D01*
X213157143Y-120054819D02*
X213395238Y-120054819D01*
X213395238Y-120054819D02*
X213490476Y-120102438D01*
X213490476Y-120102438D02*
X213538095Y-120150057D01*
X213538095Y-120150057D02*
X213585714Y-120245295D01*
X213585714Y-120245295D02*
X213585714Y-120340533D01*
X213585714Y-120340533D02*
X213538095Y-120483390D01*
X213538095Y-120483390D02*
X212966667Y-121054819D01*
X212966667Y-121054819D02*
X213585714Y-121054819D01*
X236833333Y-121054819D02*
X236500000Y-120578628D01*
X236261905Y-121054819D02*
X236261905Y-120054819D01*
X236261905Y-120054819D02*
X236642857Y-120054819D01*
X236642857Y-120054819D02*
X236738095Y-120102438D01*
X236738095Y-120102438D02*
X236785714Y-120150057D01*
X236785714Y-120150057D02*
X236833333Y-120245295D01*
X236833333Y-120245295D02*
X236833333Y-120388152D01*
X236833333Y-120388152D02*
X236785714Y-120483390D01*
X236785714Y-120483390D02*
X236738095Y-120531009D01*
X236738095Y-120531009D02*
X236642857Y-120578628D01*
X236642857Y-120578628D02*
X236261905Y-120578628D01*
X237166667Y-120054819D02*
X237785714Y-120054819D01*
X237785714Y-120054819D02*
X237452381Y-120435771D01*
X237452381Y-120435771D02*
X237595238Y-120435771D01*
X237595238Y-120435771D02*
X237690476Y-120483390D01*
X237690476Y-120483390D02*
X237738095Y-120531009D01*
X237738095Y-120531009D02*
X237785714Y-120626247D01*
X237785714Y-120626247D02*
X237785714Y-120864342D01*
X237785714Y-120864342D02*
X237738095Y-120959580D01*
X237738095Y-120959580D02*
X237690476Y-121007200D01*
X237690476Y-121007200D02*
X237595238Y-121054819D01*
X237595238Y-121054819D02*
X237309524Y-121054819D01*
X237309524Y-121054819D02*
X237214286Y-121007200D01*
X237214286Y-121007200D02*
X237166667Y-120959580D01*
X210012380Y-122348276D02*
X210012380Y-122866371D01*
X210012380Y-122866371D02*
X210042857Y-122927323D01*
X210042857Y-122927323D02*
X210073333Y-122957800D01*
X210073333Y-122957800D02*
X210134285Y-122988276D01*
X210134285Y-122988276D02*
X210256190Y-122988276D01*
X210256190Y-122988276D02*
X210317142Y-122957800D01*
X210317142Y-122957800D02*
X210347619Y-122927323D01*
X210347619Y-122927323D02*
X210378095Y-122866371D01*
X210378095Y-122866371D02*
X210378095Y-122348276D01*
X210987618Y-122348276D02*
X210682856Y-122348276D01*
X210682856Y-122348276D02*
X210652380Y-122653038D01*
X210652380Y-122653038D02*
X210682856Y-122622561D01*
X210682856Y-122622561D02*
X210743809Y-122592085D01*
X210743809Y-122592085D02*
X210896190Y-122592085D01*
X210896190Y-122592085D02*
X210957142Y-122622561D01*
X210957142Y-122622561D02*
X210987618Y-122653038D01*
X210987618Y-122653038D02*
X211018095Y-122713990D01*
X211018095Y-122713990D02*
X211018095Y-122866371D01*
X211018095Y-122866371D02*
X210987618Y-122927323D01*
X210987618Y-122927323D02*
X210957142Y-122957800D01*
X210957142Y-122957800D02*
X210896190Y-122988276D01*
X210896190Y-122988276D02*
X210743809Y-122988276D01*
X210743809Y-122988276D02*
X210682856Y-122957800D01*
X210682856Y-122957800D02*
X210652380Y-122927323D01*
X226312380Y-118148276D02*
X226312380Y-118666371D01*
X226312380Y-118666371D02*
X226342857Y-118727323D01*
X226342857Y-118727323D02*
X226373333Y-118757800D01*
X226373333Y-118757800D02*
X226434285Y-118788276D01*
X226434285Y-118788276D02*
X226556190Y-118788276D01*
X226556190Y-118788276D02*
X226617142Y-118757800D01*
X226617142Y-118757800D02*
X226647619Y-118727323D01*
X226647619Y-118727323D02*
X226678095Y-118666371D01*
X226678095Y-118666371D02*
X226678095Y-118148276D01*
X226921904Y-118148276D02*
X227318095Y-118148276D01*
X227318095Y-118148276D02*
X227104761Y-118392085D01*
X227104761Y-118392085D02*
X227196190Y-118392085D01*
X227196190Y-118392085D02*
X227257142Y-118422561D01*
X227257142Y-118422561D02*
X227287618Y-118453038D01*
X227287618Y-118453038D02*
X227318095Y-118513990D01*
X227318095Y-118513990D02*
X227318095Y-118666371D01*
X227318095Y-118666371D02*
X227287618Y-118727323D01*
X227287618Y-118727323D02*
X227257142Y-118757800D01*
X227257142Y-118757800D02*
X227196190Y-118788276D01*
X227196190Y-118788276D02*
X227013333Y-118788276D01*
X227013333Y-118788276D02*
X226952380Y-118757800D01*
X226952380Y-118757800D02*
X226921904Y-118727323D01*
X202433333Y-126347080D02*
X202385714Y-126394700D01*
X202385714Y-126394700D02*
X202242857Y-126442319D01*
X202242857Y-126442319D02*
X202147619Y-126442319D01*
X202147619Y-126442319D02*
X202004762Y-126394700D01*
X202004762Y-126394700D02*
X201909524Y-126299461D01*
X201909524Y-126299461D02*
X201861905Y-126204223D01*
X201861905Y-126204223D02*
X201814286Y-126013747D01*
X201814286Y-126013747D02*
X201814286Y-125870890D01*
X201814286Y-125870890D02*
X201861905Y-125680414D01*
X201861905Y-125680414D02*
X201909524Y-125585176D01*
X201909524Y-125585176D02*
X202004762Y-125489938D01*
X202004762Y-125489938D02*
X202147619Y-125442319D01*
X202147619Y-125442319D02*
X202242857Y-125442319D01*
X202242857Y-125442319D02*
X202385714Y-125489938D01*
X202385714Y-125489938D02*
X202433333Y-125537557D01*
X203385714Y-126442319D02*
X202814286Y-126442319D01*
X203100000Y-126442319D02*
X203100000Y-125442319D01*
X203100000Y-125442319D02*
X203004762Y-125585176D01*
X203004762Y-125585176D02*
X202909524Y-125680414D01*
X202909524Y-125680414D02*
X202814286Y-125728033D01*
X212118095Y-107424819D02*
X212118095Y-108234342D01*
X212118095Y-108234342D02*
X212165714Y-108329580D01*
X212165714Y-108329580D02*
X212213333Y-108377200D01*
X212213333Y-108377200D02*
X212308571Y-108424819D01*
X212308571Y-108424819D02*
X212499047Y-108424819D01*
X212499047Y-108424819D02*
X212594285Y-108377200D01*
X212594285Y-108377200D02*
X212641904Y-108329580D01*
X212641904Y-108329580D02*
X212689523Y-108234342D01*
X212689523Y-108234342D02*
X212689523Y-107424819D01*
X213594285Y-107758152D02*
X213594285Y-108424819D01*
X213356190Y-107377200D02*
X213118095Y-108091485D01*
X213118095Y-108091485D02*
X213737142Y-108091485D01*
X205833333Y-120342319D02*
X205500000Y-119866128D01*
X205261905Y-120342319D02*
X205261905Y-119342319D01*
X205261905Y-119342319D02*
X205642857Y-119342319D01*
X205642857Y-119342319D02*
X205738095Y-119389938D01*
X205738095Y-119389938D02*
X205785714Y-119437557D01*
X205785714Y-119437557D02*
X205833333Y-119532795D01*
X205833333Y-119532795D02*
X205833333Y-119675652D01*
X205833333Y-119675652D02*
X205785714Y-119770890D01*
X205785714Y-119770890D02*
X205738095Y-119818509D01*
X205738095Y-119818509D02*
X205642857Y-119866128D01*
X205642857Y-119866128D02*
X205261905Y-119866128D01*
X206214286Y-119437557D02*
X206261905Y-119389938D01*
X206261905Y-119389938D02*
X206357143Y-119342319D01*
X206357143Y-119342319D02*
X206595238Y-119342319D01*
X206595238Y-119342319D02*
X206690476Y-119389938D01*
X206690476Y-119389938D02*
X206738095Y-119437557D01*
X206738095Y-119437557D02*
X206785714Y-119532795D01*
X206785714Y-119532795D02*
X206785714Y-119628033D01*
X206785714Y-119628033D02*
X206738095Y-119770890D01*
X206738095Y-119770890D02*
X206166667Y-120342319D01*
X206166667Y-120342319D02*
X206785714Y-120342319D01*
X235133333Y-125459580D02*
X235085714Y-125507200D01*
X235085714Y-125507200D02*
X234942857Y-125554819D01*
X234942857Y-125554819D02*
X234847619Y-125554819D01*
X234847619Y-125554819D02*
X234704762Y-125507200D01*
X234704762Y-125507200D02*
X234609524Y-125411961D01*
X234609524Y-125411961D02*
X234561905Y-125316723D01*
X234561905Y-125316723D02*
X234514286Y-125126247D01*
X234514286Y-125126247D02*
X234514286Y-124983390D01*
X234514286Y-124983390D02*
X234561905Y-124792914D01*
X234561905Y-124792914D02*
X234609524Y-124697676D01*
X234609524Y-124697676D02*
X234704762Y-124602438D01*
X234704762Y-124602438D02*
X234847619Y-124554819D01*
X234847619Y-124554819D02*
X234942857Y-124554819D01*
X234942857Y-124554819D02*
X235085714Y-124602438D01*
X235085714Y-124602438D02*
X235133333Y-124650057D01*
X236038095Y-124554819D02*
X235561905Y-124554819D01*
X235561905Y-124554819D02*
X235514286Y-125031009D01*
X235514286Y-125031009D02*
X235561905Y-124983390D01*
X235561905Y-124983390D02*
X235657143Y-124935771D01*
X235657143Y-124935771D02*
X235895238Y-124935771D01*
X235895238Y-124935771D02*
X235990476Y-124983390D01*
X235990476Y-124983390D02*
X236038095Y-125031009D01*
X236038095Y-125031009D02*
X236085714Y-125126247D01*
X236085714Y-125126247D02*
X236085714Y-125364342D01*
X236085714Y-125364342D02*
X236038095Y-125459580D01*
X236038095Y-125459580D02*
X235990476Y-125507200D01*
X235990476Y-125507200D02*
X235895238Y-125554819D01*
X235895238Y-125554819D02*
X235657143Y-125554819D01*
X235657143Y-125554819D02*
X235561905Y-125507200D01*
X235561905Y-125507200D02*
X235514286Y-125459580D01*
X218407142Y-118554819D02*
X218073809Y-118078628D01*
X217835714Y-118554819D02*
X217835714Y-117554819D01*
X217835714Y-117554819D02*
X218216666Y-117554819D01*
X218216666Y-117554819D02*
X218311904Y-117602438D01*
X218311904Y-117602438D02*
X218359523Y-117650057D01*
X218359523Y-117650057D02*
X218407142Y-117745295D01*
X218407142Y-117745295D02*
X218407142Y-117888152D01*
X218407142Y-117888152D02*
X218359523Y-117983390D01*
X218359523Y-117983390D02*
X218311904Y-118031009D01*
X218311904Y-118031009D02*
X218216666Y-118078628D01*
X218216666Y-118078628D02*
X217835714Y-118078628D01*
X219359523Y-118554819D02*
X218788095Y-118554819D01*
X219073809Y-118554819D02*
X219073809Y-117554819D01*
X219073809Y-117554819D02*
X218978571Y-117697676D01*
X218978571Y-117697676D02*
X218883333Y-117792914D01*
X218883333Y-117792914D02*
X218788095Y-117840533D01*
X220311904Y-118554819D02*
X219740476Y-118554819D01*
X220026190Y-118554819D02*
X220026190Y-117554819D01*
X220026190Y-117554819D02*
X219930952Y-117697676D01*
X219930952Y-117697676D02*
X219835714Y-117792914D01*
X219835714Y-117792914D02*
X219740476Y-117840533D01*
X220705142Y-130104819D02*
X220371809Y-129628628D01*
X220133714Y-130104819D02*
X220133714Y-129104819D01*
X220133714Y-129104819D02*
X220514666Y-129104819D01*
X220514666Y-129104819D02*
X220609904Y-129152438D01*
X220609904Y-129152438D02*
X220657523Y-129200057D01*
X220657523Y-129200057D02*
X220705142Y-129295295D01*
X220705142Y-129295295D02*
X220705142Y-129438152D01*
X220705142Y-129438152D02*
X220657523Y-129533390D01*
X220657523Y-129533390D02*
X220609904Y-129581009D01*
X220609904Y-129581009D02*
X220514666Y-129628628D01*
X220514666Y-129628628D02*
X220133714Y-129628628D01*
X221657523Y-130104819D02*
X221086095Y-130104819D01*
X221371809Y-130104819D02*
X221371809Y-129104819D01*
X221371809Y-129104819D02*
X221276571Y-129247676D01*
X221276571Y-129247676D02*
X221181333Y-129342914D01*
X221181333Y-129342914D02*
X221086095Y-129390533D01*
X222562285Y-129104819D02*
X222086095Y-129104819D01*
X222086095Y-129104819D02*
X222038476Y-129581009D01*
X222038476Y-129581009D02*
X222086095Y-129533390D01*
X222086095Y-129533390D02*
X222181333Y-129485771D01*
X222181333Y-129485771D02*
X222419428Y-129485771D01*
X222419428Y-129485771D02*
X222514666Y-129533390D01*
X222514666Y-129533390D02*
X222562285Y-129581009D01*
X222562285Y-129581009D02*
X222609904Y-129676247D01*
X222609904Y-129676247D02*
X222609904Y-129914342D01*
X222609904Y-129914342D02*
X222562285Y-130009580D01*
X222562285Y-130009580D02*
X222514666Y-130057200D01*
X222514666Y-130057200D02*
X222419428Y-130104819D01*
X222419428Y-130104819D02*
X222181333Y-130104819D01*
X222181333Y-130104819D02*
X222086095Y-130057200D01*
X222086095Y-130057200D02*
X222038476Y-130009580D01*
X223833333Y-125759580D02*
X223785714Y-125807200D01*
X223785714Y-125807200D02*
X223642857Y-125854819D01*
X223642857Y-125854819D02*
X223547619Y-125854819D01*
X223547619Y-125854819D02*
X223404762Y-125807200D01*
X223404762Y-125807200D02*
X223309524Y-125711961D01*
X223309524Y-125711961D02*
X223261905Y-125616723D01*
X223261905Y-125616723D02*
X223214286Y-125426247D01*
X223214286Y-125426247D02*
X223214286Y-125283390D01*
X223214286Y-125283390D02*
X223261905Y-125092914D01*
X223261905Y-125092914D02*
X223309524Y-124997676D01*
X223309524Y-124997676D02*
X223404762Y-124902438D01*
X223404762Y-124902438D02*
X223547619Y-124854819D01*
X223547619Y-124854819D02*
X223642857Y-124854819D01*
X223642857Y-124854819D02*
X223785714Y-124902438D01*
X223785714Y-124902438D02*
X223833333Y-124950057D01*
X224690476Y-125188152D02*
X224690476Y-125854819D01*
X224452381Y-124807200D02*
X224214286Y-125521485D01*
X224214286Y-125521485D02*
X224833333Y-125521485D01*
X239833333Y-117254819D02*
X239500000Y-116778628D01*
X239261905Y-117254819D02*
X239261905Y-116254819D01*
X239261905Y-116254819D02*
X239642857Y-116254819D01*
X239642857Y-116254819D02*
X239738095Y-116302438D01*
X239738095Y-116302438D02*
X239785714Y-116350057D01*
X239785714Y-116350057D02*
X239833333Y-116445295D01*
X239833333Y-116445295D02*
X239833333Y-116588152D01*
X239833333Y-116588152D02*
X239785714Y-116683390D01*
X239785714Y-116683390D02*
X239738095Y-116731009D01*
X239738095Y-116731009D02*
X239642857Y-116778628D01*
X239642857Y-116778628D02*
X239261905Y-116778628D01*
X240690476Y-116588152D02*
X240690476Y-117254819D01*
X240452381Y-116207200D02*
X240214286Y-116921485D01*
X240214286Y-116921485D02*
X240833333Y-116921485D01*
X235488624Y-137490819D02*
X235488624Y-138205104D01*
X235488624Y-138205104D02*
X235441005Y-138347961D01*
X235441005Y-138347961D02*
X235345767Y-138443200D01*
X235345767Y-138443200D02*
X235202910Y-138490819D01*
X235202910Y-138490819D02*
X235107672Y-138490819D01*
X236488624Y-138490819D02*
X235917196Y-138490819D01*
X236202910Y-138490819D02*
X236202910Y-137490819D01*
X236202910Y-137490819D02*
X236107672Y-137633676D01*
X236107672Y-137633676D02*
X236012434Y-137728914D01*
X236012434Y-137728914D02*
X235917196Y-137776533D01*
X205818095Y-136178819D02*
X205818095Y-136988342D01*
X205818095Y-136988342D02*
X205865714Y-137083580D01*
X205865714Y-137083580D02*
X205913333Y-137131200D01*
X205913333Y-137131200D02*
X206008571Y-137178819D01*
X206008571Y-137178819D02*
X206199047Y-137178819D01*
X206199047Y-137178819D02*
X206294285Y-137131200D01*
X206294285Y-137131200D02*
X206341904Y-137083580D01*
X206341904Y-137083580D02*
X206389523Y-136988342D01*
X206389523Y-136988342D02*
X206389523Y-136178819D01*
X207294285Y-136178819D02*
X207103809Y-136178819D01*
X207103809Y-136178819D02*
X207008571Y-136226438D01*
X207008571Y-136226438D02*
X206960952Y-136274057D01*
X206960952Y-136274057D02*
X206865714Y-136416914D01*
X206865714Y-136416914D02*
X206818095Y-136607390D01*
X206818095Y-136607390D02*
X206818095Y-136988342D01*
X206818095Y-136988342D02*
X206865714Y-137083580D01*
X206865714Y-137083580D02*
X206913333Y-137131200D01*
X206913333Y-137131200D02*
X207008571Y-137178819D01*
X207008571Y-137178819D02*
X207199047Y-137178819D01*
X207199047Y-137178819D02*
X207294285Y-137131200D01*
X207294285Y-137131200D02*
X207341904Y-137083580D01*
X207341904Y-137083580D02*
X207389523Y-136988342D01*
X207389523Y-136988342D02*
X207389523Y-136750247D01*
X207389523Y-136750247D02*
X207341904Y-136655009D01*
X207341904Y-136655009D02*
X207294285Y-136607390D01*
X207294285Y-136607390D02*
X207199047Y-136559771D01*
X207199047Y-136559771D02*
X207008571Y-136559771D01*
X207008571Y-136559771D02*
X206913333Y-136607390D01*
X206913333Y-136607390D02*
X206865714Y-136655009D01*
X206865714Y-136655009D02*
X206818095Y-136750247D01*
X230768081Y-112092857D02*
X230291890Y-112426190D01*
X230768081Y-112664285D02*
X229768081Y-112664285D01*
X229768081Y-112664285D02*
X229768081Y-112283333D01*
X229768081Y-112283333D02*
X229815700Y-112188095D01*
X229815700Y-112188095D02*
X229863319Y-112140476D01*
X229863319Y-112140476D02*
X229958557Y-112092857D01*
X229958557Y-112092857D02*
X230101414Y-112092857D01*
X230101414Y-112092857D02*
X230196652Y-112140476D01*
X230196652Y-112140476D02*
X230244271Y-112188095D01*
X230244271Y-112188095D02*
X230291890Y-112283333D01*
X230291890Y-112283333D02*
X230291890Y-112664285D01*
X230768081Y-111140476D02*
X230768081Y-111711904D01*
X230768081Y-111426190D02*
X229768081Y-111426190D01*
X229768081Y-111426190D02*
X229910938Y-111521428D01*
X229910938Y-111521428D02*
X230006176Y-111616666D01*
X230006176Y-111616666D02*
X230053795Y-111711904D01*
X229768081Y-110521428D02*
X229768081Y-110426190D01*
X229768081Y-110426190D02*
X229815700Y-110330952D01*
X229815700Y-110330952D02*
X229863319Y-110283333D01*
X229863319Y-110283333D02*
X229958557Y-110235714D01*
X229958557Y-110235714D02*
X230149033Y-110188095D01*
X230149033Y-110188095D02*
X230387128Y-110188095D01*
X230387128Y-110188095D02*
X230577604Y-110235714D01*
X230577604Y-110235714D02*
X230672842Y-110283333D01*
X230672842Y-110283333D02*
X230720462Y-110330952D01*
X230720462Y-110330952D02*
X230768081Y-110426190D01*
X230768081Y-110426190D02*
X230768081Y-110521428D01*
X230768081Y-110521428D02*
X230720462Y-110616666D01*
X230720462Y-110616666D02*
X230672842Y-110664285D01*
X230672842Y-110664285D02*
X230577604Y-110711904D01*
X230577604Y-110711904D02*
X230387128Y-110759523D01*
X230387128Y-110759523D02*
X230149033Y-110759523D01*
X230149033Y-110759523D02*
X229958557Y-110711904D01*
X229958557Y-110711904D02*
X229863319Y-110664285D01*
X229863319Y-110664285D02*
X229815700Y-110616666D01*
X229815700Y-110616666D02*
X229768081Y-110521428D01*
D10*
X232657142Y-118457419D02*
X232323809Y-117981228D01*
X232085714Y-118457419D02*
X232085714Y-117457419D01*
X232085714Y-117457419D02*
X232466666Y-117457419D01*
X232466666Y-117457419D02*
X232561904Y-117505038D01*
X232561904Y-117505038D02*
X232609523Y-117552657D01*
X232609523Y-117552657D02*
X232657142Y-117647895D01*
X232657142Y-117647895D02*
X232657142Y-117790752D01*
X232657142Y-117790752D02*
X232609523Y-117885990D01*
X232609523Y-117885990D02*
X232561904Y-117933609D01*
X232561904Y-117933609D02*
X232466666Y-117981228D01*
X232466666Y-117981228D02*
X232085714Y-117981228D01*
X233609523Y-118457419D02*
X233038095Y-118457419D01*
X233323809Y-118457419D02*
X233323809Y-117457419D01*
X233323809Y-117457419D02*
X233228571Y-117600276D01*
X233228571Y-117600276D02*
X233133333Y-117695514D01*
X233133333Y-117695514D02*
X233038095Y-117743133D01*
X233942857Y-117457419D02*
X234561904Y-117457419D01*
X234561904Y-117457419D02*
X234228571Y-117838371D01*
X234228571Y-117838371D02*
X234371428Y-117838371D01*
X234371428Y-117838371D02*
X234466666Y-117885990D01*
X234466666Y-117885990D02*
X234514285Y-117933609D01*
X234514285Y-117933609D02*
X234561904Y-118028847D01*
X234561904Y-118028847D02*
X234561904Y-118266942D01*
X234561904Y-118266942D02*
X234514285Y-118362180D01*
X234514285Y-118362180D02*
X234466666Y-118409800D01*
X234466666Y-118409800D02*
X234371428Y-118457419D01*
X234371428Y-118457419D02*
X234085714Y-118457419D01*
X234085714Y-118457419D02*
X233990476Y-118409800D01*
X233990476Y-118409800D02*
X233942857Y-118362180D01*
D11*
X218357142Y-120654819D02*
X218023809Y-120178628D01*
X217785714Y-120654819D02*
X217785714Y-119654819D01*
X217785714Y-119654819D02*
X218166666Y-119654819D01*
X218166666Y-119654819D02*
X218261904Y-119702438D01*
X218261904Y-119702438D02*
X218309523Y-119750057D01*
X218309523Y-119750057D02*
X218357142Y-119845295D01*
X218357142Y-119845295D02*
X218357142Y-119988152D01*
X218357142Y-119988152D02*
X218309523Y-120083390D01*
X218309523Y-120083390D02*
X218261904Y-120131009D01*
X218261904Y-120131009D02*
X218166666Y-120178628D01*
X218166666Y-120178628D02*
X217785714Y-120178628D01*
X219309523Y-120654819D02*
X218738095Y-120654819D01*
X219023809Y-120654819D02*
X219023809Y-119654819D01*
X219023809Y-119654819D02*
X218928571Y-119797676D01*
X218928571Y-119797676D02*
X218833333Y-119892914D01*
X218833333Y-119892914D02*
X218738095Y-119940533D01*
X219690476Y-119750057D02*
X219738095Y-119702438D01*
X219738095Y-119702438D02*
X219833333Y-119654819D01*
X219833333Y-119654819D02*
X220071428Y-119654819D01*
X220071428Y-119654819D02*
X220166666Y-119702438D01*
X220166666Y-119702438D02*
X220214285Y-119750057D01*
X220214285Y-119750057D02*
X220261904Y-119845295D01*
X220261904Y-119845295D02*
X220261904Y-119940533D01*
X220261904Y-119940533D02*
X220214285Y-120083390D01*
X220214285Y-120083390D02*
X219642857Y-120654819D01*
X219642857Y-120654819D02*
X220261904Y-120654819D01*
X232483333Y-112504819D02*
X232150000Y-112028628D01*
X231911905Y-112504819D02*
X231911905Y-111504819D01*
X231911905Y-111504819D02*
X232292857Y-111504819D01*
X232292857Y-111504819D02*
X232388095Y-111552438D01*
X232388095Y-111552438D02*
X232435714Y-111600057D01*
X232435714Y-111600057D02*
X232483333Y-111695295D01*
X232483333Y-111695295D02*
X232483333Y-111838152D01*
X232483333Y-111838152D02*
X232435714Y-111933390D01*
X232435714Y-111933390D02*
X232388095Y-111981009D01*
X232388095Y-111981009D02*
X232292857Y-112028628D01*
X232292857Y-112028628D02*
X231911905Y-112028628D01*
X232959524Y-112504819D02*
X233150000Y-112504819D01*
X233150000Y-112504819D02*
X233245238Y-112457200D01*
X233245238Y-112457200D02*
X233292857Y-112409580D01*
X233292857Y-112409580D02*
X233388095Y-112266723D01*
X233388095Y-112266723D02*
X233435714Y-112076247D01*
X233435714Y-112076247D02*
X233435714Y-111695295D01*
X233435714Y-111695295D02*
X233388095Y-111600057D01*
X233388095Y-111600057D02*
X233340476Y-111552438D01*
X233340476Y-111552438D02*
X233245238Y-111504819D01*
X233245238Y-111504819D02*
X233054762Y-111504819D01*
X233054762Y-111504819D02*
X232959524Y-111552438D01*
X232959524Y-111552438D02*
X232911905Y-111600057D01*
X232911905Y-111600057D02*
X232864286Y-111695295D01*
X232864286Y-111695295D02*
X232864286Y-111933390D01*
X232864286Y-111933390D02*
X232911905Y-112028628D01*
X232911905Y-112028628D02*
X232959524Y-112076247D01*
X232959524Y-112076247D02*
X233054762Y-112123866D01*
X233054762Y-112123866D02*
X233245238Y-112123866D01*
X233245238Y-112123866D02*
X233340476Y-112076247D01*
X233340476Y-112076247D02*
X233388095Y-112028628D01*
X233388095Y-112028628D02*
X233435714Y-111933390D01*
X235557142Y-130054819D02*
X235223809Y-129578628D01*
X234985714Y-130054819D02*
X234985714Y-129054819D01*
X234985714Y-129054819D02*
X235366666Y-129054819D01*
X235366666Y-129054819D02*
X235461904Y-129102438D01*
X235461904Y-129102438D02*
X235509523Y-129150057D01*
X235509523Y-129150057D02*
X235557142Y-129245295D01*
X235557142Y-129245295D02*
X235557142Y-129388152D01*
X235557142Y-129388152D02*
X235509523Y-129483390D01*
X235509523Y-129483390D02*
X235461904Y-129531009D01*
X235461904Y-129531009D02*
X235366666Y-129578628D01*
X235366666Y-129578628D02*
X234985714Y-129578628D01*
X236509523Y-130054819D02*
X235938095Y-130054819D01*
X236223809Y-130054819D02*
X236223809Y-129054819D01*
X236223809Y-129054819D02*
X236128571Y-129197676D01*
X236128571Y-129197676D02*
X236033333Y-129292914D01*
X236033333Y-129292914D02*
X235938095Y-129340533D01*
X237366666Y-129388152D02*
X237366666Y-130054819D01*
X237128571Y-129007200D02*
X236890476Y-129721485D01*
X236890476Y-129721485D02*
X237509523Y-129721485D01*
X219583333Y-123159580D02*
X219535714Y-123207200D01*
X219535714Y-123207200D02*
X219392857Y-123254819D01*
X219392857Y-123254819D02*
X219297619Y-123254819D01*
X219297619Y-123254819D02*
X219154762Y-123207200D01*
X219154762Y-123207200D02*
X219059524Y-123111961D01*
X219059524Y-123111961D02*
X219011905Y-123016723D01*
X219011905Y-123016723D02*
X218964286Y-122826247D01*
X218964286Y-122826247D02*
X218964286Y-122683390D01*
X218964286Y-122683390D02*
X219011905Y-122492914D01*
X219011905Y-122492914D02*
X219059524Y-122397676D01*
X219059524Y-122397676D02*
X219154762Y-122302438D01*
X219154762Y-122302438D02*
X219297619Y-122254819D01*
X219297619Y-122254819D02*
X219392857Y-122254819D01*
X219392857Y-122254819D02*
X219535714Y-122302438D01*
X219535714Y-122302438D02*
X219583333Y-122350057D01*
X220440476Y-122254819D02*
X220250000Y-122254819D01*
X220250000Y-122254819D02*
X220154762Y-122302438D01*
X220154762Y-122302438D02*
X220107143Y-122350057D01*
X220107143Y-122350057D02*
X220011905Y-122492914D01*
X220011905Y-122492914D02*
X219964286Y-122683390D01*
X219964286Y-122683390D02*
X219964286Y-123064342D01*
X219964286Y-123064342D02*
X220011905Y-123159580D01*
X220011905Y-123159580D02*
X220059524Y-123207200D01*
X220059524Y-123207200D02*
X220154762Y-123254819D01*
X220154762Y-123254819D02*
X220345238Y-123254819D01*
X220345238Y-123254819D02*
X220440476Y-123207200D01*
X220440476Y-123207200D02*
X220488095Y-123159580D01*
X220488095Y-123159580D02*
X220535714Y-123064342D01*
X220535714Y-123064342D02*
X220535714Y-122826247D01*
X220535714Y-122826247D02*
X220488095Y-122731009D01*
X220488095Y-122731009D02*
X220440476Y-122683390D01*
X220440476Y-122683390D02*
X220345238Y-122635771D01*
X220345238Y-122635771D02*
X220154762Y-122635771D01*
X220154762Y-122635771D02*
X220059524Y-122683390D01*
X220059524Y-122683390D02*
X220011905Y-122731009D01*
X220011905Y-122731009D02*
X219964286Y-122826247D01*
X204733333Y-129642319D02*
X204257143Y-129642319D01*
X204257143Y-129642319D02*
X204257143Y-128642319D01*
X205019048Y-128737557D02*
X205066667Y-128689938D01*
X205066667Y-128689938D02*
X205161905Y-128642319D01*
X205161905Y-128642319D02*
X205400000Y-128642319D01*
X205400000Y-128642319D02*
X205495238Y-128689938D01*
X205495238Y-128689938D02*
X205542857Y-128737557D01*
X205542857Y-128737557D02*
X205590476Y-128832795D01*
X205590476Y-128832795D02*
X205590476Y-128928033D01*
X205590476Y-128928033D02*
X205542857Y-129070890D01*
X205542857Y-129070890D02*
X204971429Y-129642319D01*
X204971429Y-129642319D02*
X205590476Y-129642319D01*
D12*
%TO.C,R7*%
X234122936Y-128335000D02*
X234577064Y-128335000D01*
X234122936Y-126865000D02*
X234577064Y-126865000D01*
%TO.C,R6*%
X229522936Y-128335000D02*
X229977064Y-128335000D01*
X229522936Y-126865000D02*
X229977064Y-126865000D01*
%TO.C,R1*%
X210127064Y-119035000D02*
X209672936Y-119035000D01*
X210127064Y-117565000D02*
X209672936Y-117565000D01*
%TO.C,C3*%
X218510000Y-121317500D02*
X215090000Y-121317500D01*
X215090000Y-121317500D02*
X215090000Y-128257500D01*
X218510000Y-128257500D02*
X218510000Y-121317500D01*
%TO.C,C2*%
X214710000Y-121317500D02*
X211290000Y-121317500D01*
X211290000Y-121317500D02*
X211290000Y-128257500D01*
X214710000Y-128257500D02*
X214710000Y-121317500D01*
%TO.C,R3*%
X233972936Y-119765000D02*
X234427064Y-119765000D01*
X233972936Y-121235000D02*
X234427064Y-121235000D01*
D13*
%TO.C,U5*%
X209065000Y-123258500D02*
X210265000Y-123258500D01*
X209065000Y-125208500D02*
X210265000Y-125208500D01*
%TO.C,U3*%
X226500000Y-119700000D02*
X227050000Y-119700000D01*
X226500000Y-120250000D02*
X226500000Y-119700000D01*
X226500000Y-123700000D02*
X226500000Y-123150000D01*
X227050000Y-123700000D02*
X226500000Y-123700000D01*
X230500000Y-119700000D02*
X229950000Y-119700000D01*
X230500000Y-119700000D02*
X230500000Y-120250000D01*
X230500000Y-123700000D02*
X229950000Y-123700000D01*
X230500000Y-123700000D02*
X230500000Y-123150000D01*
D14*
X230950000Y-123290000D02*
G75*
G02*
X230750000Y-123290000I-100000J0D01*
G01*
X230750000Y-123290000D02*
G75*
G02*
X230950000Y-123290000I100000J0D01*
G01*
D12*
%TO.C,C1*%
X205961252Y-123152500D02*
X205438748Y-123152500D01*
X205961252Y-124622500D02*
X205438748Y-124622500D01*
D13*
%TO.C,U4*%
X202390000Y-99950000D02*
X222690000Y-99950000D01*
X202390000Y-112857500D02*
X202390000Y-99950000D01*
X222690000Y-99950000D02*
X222690000Y-112857500D01*
X222690000Y-115650000D02*
X202390000Y-115650000D01*
D12*
%TO.C,R2*%
X207672936Y-120952500D02*
X208127064Y-120952500D01*
X207672936Y-122422500D02*
X208127064Y-122422500D01*
%TO.C,C5*%
X233038748Y-122565000D02*
X233561252Y-122565000D01*
X233038748Y-124035000D02*
X233561252Y-124035000D01*
%TO.C,R11*%
X222922936Y-117315000D02*
X223377064Y-117315000D01*
X222922936Y-118785000D02*
X223377064Y-118785000D01*
%TO.C,R15*%
X224877064Y-128915000D02*
X224422936Y-128915000D01*
X224877064Y-130385000D02*
X224422936Y-130385000D01*
%TO.C,C4*%
X227961252Y-124765000D02*
X227438748Y-124765000D01*
X227961252Y-126235000D02*
X227438748Y-126235000D01*
%TO.C,R4*%
X237365000Y-116927064D02*
X237365000Y-116472936D01*
X238835000Y-116927064D02*
X238835000Y-116472936D01*
D10*
%TO.C,U7*%
X226070000Y-113017000D02*
X226070000Y-116217000D01*
X228870000Y-113017000D02*
X228870000Y-116217000D01*
D15*
X229423262Y-112057000D02*
G75*
G02*
X229216738Y-112057000I-103262J0D01*
G01*
X229216738Y-112057000D02*
G75*
G02*
X229423262Y-112057000I103262J0D01*
G01*
D14*
%TO.C,J1*%
X224239958Y-138000000D02*
X224239958Y-139150000D01*
X224239958Y-139150000D02*
X233179958Y-139150000D01*
X233179958Y-139150000D02*
X233179958Y-138000000D01*
D12*
%TO.C,U6*%
X207840000Y-130490000D02*
X207840000Y-138310000D01*
X207840000Y-132090000D02*
X208760000Y-132090000D01*
X207840000Y-138310000D02*
X213960000Y-138310000D01*
X208760000Y-130490000D02*
X207840000Y-130490000D01*
X208760000Y-132090000D02*
X208760000Y-130490000D01*
X209040000Y-132090000D02*
X208760000Y-132090000D01*
X209040000Y-132090000D02*
X209040000Y-130875000D01*
X209100000Y-136050000D02*
X209100000Y-138310000D01*
X209600000Y-136050000D02*
X209600000Y-138310000D01*
X210400000Y-133950000D02*
X211400000Y-133950000D01*
X210400000Y-138310000D02*
X210400000Y-133950000D01*
X211400000Y-133950000D02*
X211400000Y-138310000D01*
X213040000Y-130490000D02*
X213040000Y-132090000D01*
X213040000Y-132090000D02*
X212760000Y-132090000D01*
X213960000Y-130490000D02*
X213040000Y-130490000D01*
X213960000Y-132090000D02*
X213040000Y-132090000D01*
X213960000Y-138310000D02*
X213960000Y-130490000D01*
X208600000Y-134450000D02*
X209600000Y-134450000D01*
X209600000Y-136050000D01*
X208600000Y-136050000D01*
X208600000Y-134450000D01*
X212200000Y-134450000D02*
X213200000Y-134450000D01*
X213200000Y-136050000D01*
X212200000Y-136050000D01*
X212200000Y-134450000D01*
%TO.C,R10*%
X229578262Y-114914801D02*
X229578262Y-114460673D01*
X231048262Y-114914801D02*
X231048262Y-114460673D01*
%TO.C,R12*%
X223427064Y-119415000D02*
X222972936Y-119415000D01*
X223427064Y-120885000D02*
X222972936Y-120885000D01*
%TO.C,R9*%
X231864262Y-114914801D02*
X231864262Y-114460673D01*
X233334262Y-114914801D02*
X233334262Y-114460673D01*
%TO.C,R14*%
X232522936Y-128965000D02*
X232977064Y-128965000D01*
X232522936Y-130435000D02*
X232977064Y-130435000D01*
%TO.C,C6*%
X224011252Y-122065000D02*
X223488748Y-122065000D01*
X224011252Y-123535000D02*
X223488748Y-123535000D01*
D13*
%TO.C,L2*%
X206400000Y-125687500D02*
X206405000Y-125687500D01*
X206400000Y-129687500D02*
X206400000Y-125687500D01*
X206405000Y-129687500D02*
X206400000Y-129687500D01*
X210395000Y-125687500D02*
X210400000Y-125687500D01*
X210400000Y-125687500D02*
X210400000Y-129687500D01*
X210400000Y-129687500D02*
X210395000Y-129687500D01*
D14*
X205750000Y-127687500D02*
G75*
G02*
X205550000Y-127687500I-100000J0D01*
G01*
X205550000Y-127687500D02*
G75*
G02*
X205750000Y-127687500I100000J0D01*
G01*
%TD*%
%LPC*%
D16*
%TO.C,J1*%
X224423958Y-131801000D02*
X224457958Y-131804000D01*
X224491958Y-131808000D01*
X224524958Y-131814000D01*
X224557958Y-131822000D01*
X224590958Y-131832000D01*
X224622958Y-131843000D01*
X224653958Y-131856000D01*
X224684958Y-131871000D01*
X224714958Y-131887000D01*
X224743958Y-131905000D01*
X224771958Y-131924000D01*
X224798958Y-131945000D01*
X224824958Y-131967000D01*
X224849958Y-131990000D01*
X224872958Y-132015000D01*
X224894958Y-132041000D01*
X224915958Y-132068000D01*
X224934958Y-132096000D01*
X224952958Y-132125000D01*
X224968958Y-132155000D01*
X224983958Y-132186000D01*
X224996958Y-132217000D01*
X225007958Y-132249000D01*
X225017958Y-132282000D01*
X225025958Y-132315000D01*
X225031958Y-132348000D01*
X225035958Y-132382000D01*
X225038958Y-132416000D01*
X225039958Y-132450000D01*
X225039958Y-133050000D01*
X225038958Y-133084000D01*
X225035958Y-133118000D01*
X225031958Y-133152000D01*
X225025958Y-133185000D01*
X225017958Y-133218000D01*
X225007958Y-133251000D01*
X224996958Y-133283000D01*
X224983958Y-133314000D01*
X224968958Y-133345000D01*
X224952958Y-133375000D01*
X224934958Y-133404000D01*
X224915958Y-133432000D01*
X224894958Y-133459000D01*
X224872958Y-133485000D01*
X224849958Y-133510000D01*
X224824958Y-133533000D01*
X224798958Y-133555000D01*
X224771958Y-133576000D01*
X224743958Y-133595000D01*
X224714958Y-133613000D01*
X224684958Y-133629000D01*
X224653958Y-133644000D01*
X224622958Y-133657000D01*
X224590958Y-133668000D01*
X224557958Y-133678000D01*
X224524958Y-133686000D01*
X224491958Y-133692000D01*
X224457958Y-133696000D01*
X224423958Y-133699000D01*
X224389958Y-133700000D01*
X224355958Y-133699000D01*
X224321958Y-133696000D01*
X224287958Y-133692000D01*
X224254958Y-133686000D01*
X224221958Y-133678000D01*
X224188958Y-133668000D01*
X224156958Y-133657000D01*
X224125958Y-133644000D01*
X224094958Y-133629000D01*
X224064958Y-133613000D01*
X224035958Y-133595000D01*
X224007958Y-133576000D01*
X223980958Y-133555000D01*
X223954958Y-133533000D01*
X223929958Y-133510000D01*
X223906958Y-133485000D01*
X223884958Y-133459000D01*
X223863958Y-133432000D01*
X223844958Y-133404000D01*
X223826958Y-133375000D01*
X223810958Y-133345000D01*
X223795958Y-133314000D01*
X223782958Y-133283000D01*
X223771958Y-133251000D01*
X223761958Y-133218000D01*
X223753958Y-133185000D01*
X223747958Y-133152000D01*
X223743958Y-133118000D01*
X223740958Y-133084000D01*
X223739958Y-133050000D01*
X223739958Y-132450000D01*
X223740958Y-132416000D01*
X223743958Y-132382000D01*
X223747958Y-132348000D01*
X223753958Y-132315000D01*
X223761958Y-132282000D01*
X223771958Y-132249000D01*
X223782958Y-132217000D01*
X223795958Y-132186000D01*
X223810958Y-132155000D01*
X223826958Y-132125000D01*
X223844958Y-132096000D01*
X223863958Y-132068000D01*
X223884958Y-132041000D01*
X223906958Y-132015000D01*
X223929958Y-131990000D01*
X223954958Y-131967000D01*
X223980958Y-131945000D01*
X224007958Y-131924000D01*
X224035958Y-131905000D01*
X224064958Y-131887000D01*
X224094958Y-131871000D01*
X224125958Y-131856000D01*
X224156958Y-131843000D01*
X224188958Y-131832000D01*
X224221958Y-131822000D01*
X224254958Y-131814000D01*
X224287958Y-131808000D01*
X224321958Y-131804000D01*
X224355958Y-131801000D01*
X224389958Y-131800000D01*
X224423958Y-131801000D01*
G36*
X224423958Y-131801000D02*
G01*
X224457958Y-131804000D01*
X224491958Y-131808000D01*
X224524958Y-131814000D01*
X224557958Y-131822000D01*
X224590958Y-131832000D01*
X224622958Y-131843000D01*
X224653958Y-131856000D01*
X224684958Y-131871000D01*
X224714958Y-131887000D01*
X224743958Y-131905000D01*
X224771958Y-131924000D01*
X224798958Y-131945000D01*
X224824958Y-131967000D01*
X224849958Y-131990000D01*
X224872958Y-132015000D01*
X224894958Y-132041000D01*
X224915958Y-132068000D01*
X224934958Y-132096000D01*
X224952958Y-132125000D01*
X224968958Y-132155000D01*
X224983958Y-132186000D01*
X224996958Y-132217000D01*
X225007958Y-132249000D01*
X225017958Y-132282000D01*
X225025958Y-132315000D01*
X225031958Y-132348000D01*
X225035958Y-132382000D01*
X225038958Y-132416000D01*
X225039958Y-132450000D01*
X225039958Y-133050000D01*
X225038958Y-133084000D01*
X225035958Y-133118000D01*
X225031958Y-133152000D01*
X225025958Y-133185000D01*
X225017958Y-133218000D01*
X225007958Y-133251000D01*
X224996958Y-133283000D01*
X224983958Y-133314000D01*
X224968958Y-133345000D01*
X224952958Y-133375000D01*
X224934958Y-133404000D01*
X224915958Y-133432000D01*
X224894958Y-133459000D01*
X224872958Y-133485000D01*
X224849958Y-133510000D01*
X224824958Y-133533000D01*
X224798958Y-133555000D01*
X224771958Y-133576000D01*
X224743958Y-133595000D01*
X224714958Y-133613000D01*
X224684958Y-133629000D01*
X224653958Y-133644000D01*
X224622958Y-133657000D01*
X224590958Y-133668000D01*
X224557958Y-133678000D01*
X224524958Y-133686000D01*
X224491958Y-133692000D01*
X224457958Y-133696000D01*
X224423958Y-133699000D01*
X224389958Y-133700000D01*
X224355958Y-133699000D01*
X224321958Y-133696000D01*
X224287958Y-133692000D01*
X224254958Y-133686000D01*
X224221958Y-133678000D01*
X224188958Y-133668000D01*
X224156958Y-133657000D01*
X224125958Y-133644000D01*
X224094958Y-133629000D01*
X224064958Y-133613000D01*
X224035958Y-133595000D01*
X224007958Y-133576000D01*
X223980958Y-133555000D01*
X223954958Y-133533000D01*
X223929958Y-133510000D01*
X223906958Y-133485000D01*
X223884958Y-133459000D01*
X223863958Y-133432000D01*
X223844958Y-133404000D01*
X223826958Y-133375000D01*
X223810958Y-133345000D01*
X223795958Y-133314000D01*
X223782958Y-133283000D01*
X223771958Y-133251000D01*
X223761958Y-133218000D01*
X223753958Y-133185000D01*
X223747958Y-133152000D01*
X223743958Y-133118000D01*
X223740958Y-133084000D01*
X223739958Y-133050000D01*
X223739958Y-132450000D01*
X223740958Y-132416000D01*
X223743958Y-132382000D01*
X223747958Y-132348000D01*
X223753958Y-132315000D01*
X223761958Y-132282000D01*
X223771958Y-132249000D01*
X223782958Y-132217000D01*
X223795958Y-132186000D01*
X223810958Y-132155000D01*
X223826958Y-132125000D01*
X223844958Y-132096000D01*
X223863958Y-132068000D01*
X223884958Y-132041000D01*
X223906958Y-132015000D01*
X223929958Y-131990000D01*
X223954958Y-131967000D01*
X223980958Y-131945000D01*
X224007958Y-131924000D01*
X224035958Y-131905000D01*
X224064958Y-131887000D01*
X224094958Y-131871000D01*
X224125958Y-131856000D01*
X224156958Y-131843000D01*
X224188958Y-131832000D01*
X224221958Y-131822000D01*
X224254958Y-131814000D01*
X224287958Y-131808000D01*
X224321958Y-131804000D01*
X224355958Y-131801000D01*
X224389958Y-131800000D01*
X224423958Y-131801000D01*
G37*
X224423958Y-135601000D02*
X224457958Y-135604000D01*
X224491958Y-135608000D01*
X224524958Y-135614000D01*
X224557958Y-135622000D01*
X224590958Y-135632000D01*
X224622958Y-135643000D01*
X224653958Y-135656000D01*
X224684958Y-135671000D01*
X224714958Y-135687000D01*
X224743958Y-135705000D01*
X224771958Y-135724000D01*
X224798958Y-135745000D01*
X224824958Y-135767000D01*
X224849958Y-135790000D01*
X224872958Y-135815000D01*
X224894958Y-135841000D01*
X224915958Y-135868000D01*
X224934958Y-135896000D01*
X224952958Y-135925000D01*
X224968958Y-135955000D01*
X224983958Y-135986000D01*
X224996958Y-136017000D01*
X225007958Y-136049000D01*
X225017958Y-136082000D01*
X225025958Y-136115000D01*
X225031958Y-136148000D01*
X225035958Y-136182000D01*
X225038958Y-136216000D01*
X225039958Y-136250000D01*
X225039958Y-136850000D01*
X225038958Y-136884000D01*
X225035958Y-136918000D01*
X225031958Y-136952000D01*
X225025958Y-136985000D01*
X225017958Y-137018000D01*
X225007958Y-137051000D01*
X224996958Y-137083000D01*
X224983958Y-137114000D01*
X224968958Y-137145000D01*
X224952958Y-137175000D01*
X224934958Y-137204000D01*
X224915958Y-137232000D01*
X224894958Y-137259000D01*
X224872958Y-137285000D01*
X224849958Y-137310000D01*
X224824958Y-137333000D01*
X224798958Y-137355000D01*
X224771958Y-137376000D01*
X224743958Y-137395000D01*
X224714958Y-137413000D01*
X224684958Y-137429000D01*
X224653958Y-137444000D01*
X224622958Y-137457000D01*
X224590958Y-137468000D01*
X224557958Y-137478000D01*
X224524958Y-137486000D01*
X224491958Y-137492000D01*
X224457958Y-137496000D01*
X224423958Y-137499000D01*
X224389958Y-137500000D01*
X224355958Y-137499000D01*
X224321958Y-137496000D01*
X224287958Y-137492000D01*
X224254958Y-137486000D01*
X224221958Y-137478000D01*
X224188958Y-137468000D01*
X224156958Y-137457000D01*
X224125958Y-137444000D01*
X224094958Y-137429000D01*
X224064958Y-137413000D01*
X224035958Y-137395000D01*
X224007958Y-137376000D01*
X223980958Y-137355000D01*
X223954958Y-137333000D01*
X223929958Y-137310000D01*
X223906958Y-137285000D01*
X223884958Y-137259000D01*
X223863958Y-137232000D01*
X223844958Y-137204000D01*
X223826958Y-137175000D01*
X223810958Y-137145000D01*
X223795958Y-137114000D01*
X223782958Y-137083000D01*
X223771958Y-137051000D01*
X223761958Y-137018000D01*
X223753958Y-136985000D01*
X223747958Y-136952000D01*
X223743958Y-136918000D01*
X223740958Y-136884000D01*
X223739958Y-136850000D01*
X223739958Y-136250000D01*
X223740958Y-136216000D01*
X223743958Y-136182000D01*
X223747958Y-136148000D01*
X223753958Y-136115000D01*
X223761958Y-136082000D01*
X223771958Y-136049000D01*
X223782958Y-136017000D01*
X223795958Y-135986000D01*
X223810958Y-135955000D01*
X223826958Y-135925000D01*
X223844958Y-135896000D01*
X223863958Y-135868000D01*
X223884958Y-135841000D01*
X223906958Y-135815000D01*
X223929958Y-135790000D01*
X223954958Y-135767000D01*
X223980958Y-135745000D01*
X224007958Y-135724000D01*
X224035958Y-135705000D01*
X224064958Y-135687000D01*
X224094958Y-135671000D01*
X224125958Y-135656000D01*
X224156958Y-135643000D01*
X224188958Y-135632000D01*
X224221958Y-135622000D01*
X224254958Y-135614000D01*
X224287958Y-135608000D01*
X224321958Y-135604000D01*
X224355958Y-135601000D01*
X224389958Y-135600000D01*
X224423958Y-135601000D01*
G36*
X224423958Y-135601000D02*
G01*
X224457958Y-135604000D01*
X224491958Y-135608000D01*
X224524958Y-135614000D01*
X224557958Y-135622000D01*
X224590958Y-135632000D01*
X224622958Y-135643000D01*
X224653958Y-135656000D01*
X224684958Y-135671000D01*
X224714958Y-135687000D01*
X224743958Y-135705000D01*
X224771958Y-135724000D01*
X224798958Y-135745000D01*
X224824958Y-135767000D01*
X224849958Y-135790000D01*
X224872958Y-135815000D01*
X224894958Y-135841000D01*
X224915958Y-135868000D01*
X224934958Y-135896000D01*
X224952958Y-135925000D01*
X224968958Y-135955000D01*
X224983958Y-135986000D01*
X224996958Y-136017000D01*
X225007958Y-136049000D01*
X225017958Y-136082000D01*
X225025958Y-136115000D01*
X225031958Y-136148000D01*
X225035958Y-136182000D01*
X225038958Y-136216000D01*
X225039958Y-136250000D01*
X225039958Y-136850000D01*
X225038958Y-136884000D01*
X225035958Y-136918000D01*
X225031958Y-136952000D01*
X225025958Y-136985000D01*
X225017958Y-137018000D01*
X225007958Y-137051000D01*
X224996958Y-137083000D01*
X224983958Y-137114000D01*
X224968958Y-137145000D01*
X224952958Y-137175000D01*
X224934958Y-137204000D01*
X224915958Y-137232000D01*
X224894958Y-137259000D01*
X224872958Y-137285000D01*
X224849958Y-137310000D01*
X224824958Y-137333000D01*
X224798958Y-137355000D01*
X224771958Y-137376000D01*
X224743958Y-137395000D01*
X224714958Y-137413000D01*
X224684958Y-137429000D01*
X224653958Y-137444000D01*
X224622958Y-137457000D01*
X224590958Y-137468000D01*
X224557958Y-137478000D01*
X224524958Y-137486000D01*
X224491958Y-137492000D01*
X224457958Y-137496000D01*
X224423958Y-137499000D01*
X224389958Y-137500000D01*
X224355958Y-137499000D01*
X224321958Y-137496000D01*
X224287958Y-137492000D01*
X224254958Y-137486000D01*
X224221958Y-137478000D01*
X224188958Y-137468000D01*
X224156958Y-137457000D01*
X224125958Y-137444000D01*
X224094958Y-137429000D01*
X224064958Y-137413000D01*
X224035958Y-137395000D01*
X224007958Y-137376000D01*
X223980958Y-137355000D01*
X223954958Y-137333000D01*
X223929958Y-137310000D01*
X223906958Y-137285000D01*
X223884958Y-137259000D01*
X223863958Y-137232000D01*
X223844958Y-137204000D01*
X223826958Y-137175000D01*
X223810958Y-137145000D01*
X223795958Y-137114000D01*
X223782958Y-137083000D01*
X223771958Y-137051000D01*
X223761958Y-137018000D01*
X223753958Y-136985000D01*
X223747958Y-136952000D01*
X223743958Y-136918000D01*
X223740958Y-136884000D01*
X223739958Y-136850000D01*
X223739958Y-136250000D01*
X223740958Y-136216000D01*
X223743958Y-136182000D01*
X223747958Y-136148000D01*
X223753958Y-136115000D01*
X223761958Y-136082000D01*
X223771958Y-136049000D01*
X223782958Y-136017000D01*
X223795958Y-135986000D01*
X223810958Y-135955000D01*
X223826958Y-135925000D01*
X223844958Y-135896000D01*
X223863958Y-135868000D01*
X223884958Y-135841000D01*
X223906958Y-135815000D01*
X223929958Y-135790000D01*
X223954958Y-135767000D01*
X223980958Y-135745000D01*
X224007958Y-135724000D01*
X224035958Y-135705000D01*
X224064958Y-135687000D01*
X224094958Y-135671000D01*
X224125958Y-135656000D01*
X224156958Y-135643000D01*
X224188958Y-135632000D01*
X224221958Y-135622000D01*
X224254958Y-135614000D01*
X224287958Y-135608000D01*
X224321958Y-135604000D01*
X224355958Y-135601000D01*
X224389958Y-135600000D01*
X224423958Y-135601000D01*
G37*
X233063958Y-131801000D02*
X233097958Y-131804000D01*
X233131958Y-131808000D01*
X233164958Y-131814000D01*
X233197958Y-131822000D01*
X233230958Y-131832000D01*
X233262958Y-131843000D01*
X233293958Y-131856000D01*
X233324958Y-131871000D01*
X233354958Y-131887000D01*
X233383958Y-131905000D01*
X233411958Y-131924000D01*
X233438958Y-131945000D01*
X233464958Y-131967000D01*
X233489958Y-131990000D01*
X233512958Y-132015000D01*
X233534958Y-132041000D01*
X233555958Y-132068000D01*
X233574958Y-132096000D01*
X233592958Y-132125000D01*
X233608958Y-132155000D01*
X233623958Y-132186000D01*
X233636958Y-132217000D01*
X233647958Y-132249000D01*
X233657958Y-132282000D01*
X233665958Y-132315000D01*
X233671958Y-132348000D01*
X233675958Y-132382000D01*
X233678958Y-132416000D01*
X233679958Y-132450000D01*
X233679958Y-133050000D01*
X233678958Y-133084000D01*
X233675958Y-133118000D01*
X233671958Y-133152000D01*
X233665958Y-133185000D01*
X233657958Y-133218000D01*
X233647958Y-133251000D01*
X233636958Y-133283000D01*
X233623958Y-133314000D01*
X233608958Y-133345000D01*
X233592958Y-133375000D01*
X233574958Y-133404000D01*
X233555958Y-133432000D01*
X233534958Y-133459000D01*
X233512958Y-133485000D01*
X233489958Y-133510000D01*
X233464958Y-133533000D01*
X233438958Y-133555000D01*
X233411958Y-133576000D01*
X233383958Y-133595000D01*
X233354958Y-133613000D01*
X233324958Y-133629000D01*
X233293958Y-133644000D01*
X233262958Y-133657000D01*
X233230958Y-133668000D01*
X233197958Y-133678000D01*
X233164958Y-133686000D01*
X233131958Y-133692000D01*
X233097958Y-133696000D01*
X233063958Y-133699000D01*
X233029958Y-133700000D01*
X232995958Y-133699000D01*
X232961958Y-133696000D01*
X232927958Y-133692000D01*
X232894958Y-133686000D01*
X232861958Y-133678000D01*
X232828958Y-133668000D01*
X232796958Y-133657000D01*
X232765958Y-133644000D01*
X232734958Y-133629000D01*
X232704958Y-133613000D01*
X232675958Y-133595000D01*
X232647958Y-133576000D01*
X232620958Y-133555000D01*
X232594958Y-133533000D01*
X232569958Y-133510000D01*
X232546958Y-133485000D01*
X232524958Y-133459000D01*
X232503958Y-133432000D01*
X232484958Y-133404000D01*
X232466958Y-133375000D01*
X232450958Y-133345000D01*
X232435958Y-133314000D01*
X232422958Y-133283000D01*
X232411958Y-133251000D01*
X232401958Y-133218000D01*
X232393958Y-133185000D01*
X232387958Y-133152000D01*
X232383958Y-133118000D01*
X232380958Y-133084000D01*
X232379958Y-133050000D01*
X232379958Y-132450000D01*
X232380958Y-132416000D01*
X232383958Y-132382000D01*
X232387958Y-132348000D01*
X232393958Y-132315000D01*
X232401958Y-132282000D01*
X232411958Y-132249000D01*
X232422958Y-132217000D01*
X232435958Y-132186000D01*
X232450958Y-132155000D01*
X232466958Y-132125000D01*
X232484958Y-132096000D01*
X232503958Y-132068000D01*
X232524958Y-132041000D01*
X232546958Y-132015000D01*
X232569958Y-131990000D01*
X232594958Y-131967000D01*
X232620958Y-131945000D01*
X232647958Y-131924000D01*
X232675958Y-131905000D01*
X232704958Y-131887000D01*
X232734958Y-131871000D01*
X232765958Y-131856000D01*
X232796958Y-131843000D01*
X232828958Y-131832000D01*
X232861958Y-131822000D01*
X232894958Y-131814000D01*
X232927958Y-131808000D01*
X232961958Y-131804000D01*
X232995958Y-131801000D01*
X233029958Y-131800000D01*
X233063958Y-131801000D01*
G36*
X233063958Y-131801000D02*
G01*
X233097958Y-131804000D01*
X233131958Y-131808000D01*
X233164958Y-131814000D01*
X233197958Y-131822000D01*
X233230958Y-131832000D01*
X233262958Y-131843000D01*
X233293958Y-131856000D01*
X233324958Y-131871000D01*
X233354958Y-131887000D01*
X233383958Y-131905000D01*
X233411958Y-131924000D01*
X233438958Y-131945000D01*
X233464958Y-131967000D01*
X233489958Y-131990000D01*
X233512958Y-132015000D01*
X233534958Y-132041000D01*
X233555958Y-132068000D01*
X233574958Y-132096000D01*
X233592958Y-132125000D01*
X233608958Y-132155000D01*
X233623958Y-132186000D01*
X233636958Y-132217000D01*
X233647958Y-132249000D01*
X233657958Y-132282000D01*
X233665958Y-132315000D01*
X233671958Y-132348000D01*
X233675958Y-132382000D01*
X233678958Y-132416000D01*
X233679958Y-132450000D01*
X233679958Y-133050000D01*
X233678958Y-133084000D01*
X233675958Y-133118000D01*
X233671958Y-133152000D01*
X233665958Y-133185000D01*
X233657958Y-133218000D01*
X233647958Y-133251000D01*
X233636958Y-133283000D01*
X233623958Y-133314000D01*
X233608958Y-133345000D01*
X233592958Y-133375000D01*
X233574958Y-133404000D01*
X233555958Y-133432000D01*
X233534958Y-133459000D01*
X233512958Y-133485000D01*
X233489958Y-133510000D01*
X233464958Y-133533000D01*
X233438958Y-133555000D01*
X233411958Y-133576000D01*
X233383958Y-133595000D01*
X233354958Y-133613000D01*
X233324958Y-133629000D01*
X233293958Y-133644000D01*
X233262958Y-133657000D01*
X233230958Y-133668000D01*
X233197958Y-133678000D01*
X233164958Y-133686000D01*
X233131958Y-133692000D01*
X233097958Y-133696000D01*
X233063958Y-133699000D01*
X233029958Y-133700000D01*
X232995958Y-133699000D01*
X232961958Y-133696000D01*
X232927958Y-133692000D01*
X232894958Y-133686000D01*
X232861958Y-133678000D01*
X232828958Y-133668000D01*
X232796958Y-133657000D01*
X232765958Y-133644000D01*
X232734958Y-133629000D01*
X232704958Y-133613000D01*
X232675958Y-133595000D01*
X232647958Y-133576000D01*
X232620958Y-133555000D01*
X232594958Y-133533000D01*
X232569958Y-133510000D01*
X232546958Y-133485000D01*
X232524958Y-133459000D01*
X232503958Y-133432000D01*
X232484958Y-133404000D01*
X232466958Y-133375000D01*
X232450958Y-133345000D01*
X232435958Y-133314000D01*
X232422958Y-133283000D01*
X232411958Y-133251000D01*
X232401958Y-133218000D01*
X232393958Y-133185000D01*
X232387958Y-133152000D01*
X232383958Y-133118000D01*
X232380958Y-133084000D01*
X232379958Y-133050000D01*
X232379958Y-132450000D01*
X232380958Y-132416000D01*
X232383958Y-132382000D01*
X232387958Y-132348000D01*
X232393958Y-132315000D01*
X232401958Y-132282000D01*
X232411958Y-132249000D01*
X232422958Y-132217000D01*
X232435958Y-132186000D01*
X232450958Y-132155000D01*
X232466958Y-132125000D01*
X232484958Y-132096000D01*
X232503958Y-132068000D01*
X232524958Y-132041000D01*
X232546958Y-132015000D01*
X232569958Y-131990000D01*
X232594958Y-131967000D01*
X232620958Y-131945000D01*
X232647958Y-131924000D01*
X232675958Y-131905000D01*
X232704958Y-131887000D01*
X232734958Y-131871000D01*
X232765958Y-131856000D01*
X232796958Y-131843000D01*
X232828958Y-131832000D01*
X232861958Y-131822000D01*
X232894958Y-131814000D01*
X232927958Y-131808000D01*
X232961958Y-131804000D01*
X232995958Y-131801000D01*
X233029958Y-131800000D01*
X233063958Y-131801000D01*
G37*
X233063958Y-135601000D02*
X233097958Y-135604000D01*
X233131958Y-135608000D01*
X233164958Y-135614000D01*
X233197958Y-135622000D01*
X233230958Y-135632000D01*
X233262958Y-135643000D01*
X233293958Y-135656000D01*
X233324958Y-135671000D01*
X233354958Y-135687000D01*
X233383958Y-135705000D01*
X233411958Y-135724000D01*
X233438958Y-135745000D01*
X233464958Y-135767000D01*
X233489958Y-135790000D01*
X233512958Y-135815000D01*
X233534958Y-135841000D01*
X233555958Y-135868000D01*
X233574958Y-135896000D01*
X233592958Y-135925000D01*
X233608958Y-135955000D01*
X233623958Y-135986000D01*
X233636958Y-136017000D01*
X233647958Y-136049000D01*
X233657958Y-136082000D01*
X233665958Y-136115000D01*
X233671958Y-136148000D01*
X233675958Y-136182000D01*
X233678958Y-136216000D01*
X233679958Y-136250000D01*
X233679958Y-136850000D01*
X233678958Y-136884000D01*
X233675958Y-136918000D01*
X233671958Y-136952000D01*
X233665958Y-136985000D01*
X233657958Y-137018000D01*
X233647958Y-137051000D01*
X233636958Y-137083000D01*
X233623958Y-137114000D01*
X233608958Y-137145000D01*
X233592958Y-137175000D01*
X233574958Y-137204000D01*
X233555958Y-137232000D01*
X233534958Y-137259000D01*
X233512958Y-137285000D01*
X233489958Y-137310000D01*
X233464958Y-137333000D01*
X233438958Y-137355000D01*
X233411958Y-137376000D01*
X233383958Y-137395000D01*
X233354958Y-137413000D01*
X233324958Y-137429000D01*
X233293958Y-137444000D01*
X233262958Y-137457000D01*
X233230958Y-137468000D01*
X233197958Y-137478000D01*
X233164958Y-137486000D01*
X233131958Y-137492000D01*
X233097958Y-137496000D01*
X233063958Y-137499000D01*
X233029958Y-137500000D01*
X232995958Y-137499000D01*
X232961958Y-137496000D01*
X232927958Y-137492000D01*
X232894958Y-137486000D01*
X232861958Y-137478000D01*
X232828958Y-137468000D01*
X232796958Y-137457000D01*
X232765958Y-137444000D01*
X232734958Y-137429000D01*
X232704958Y-137413000D01*
X232675958Y-137395000D01*
X232647958Y-137376000D01*
X232620958Y-137355000D01*
X232594958Y-137333000D01*
X232569958Y-137310000D01*
X232546958Y-137285000D01*
X232524958Y-137259000D01*
X232503958Y-137232000D01*
X232484958Y-137204000D01*
X232466958Y-137175000D01*
X232450958Y-137145000D01*
X232435958Y-137114000D01*
X232422958Y-137083000D01*
X232411958Y-137051000D01*
X232401958Y-137018000D01*
X232393958Y-136985000D01*
X232387958Y-136952000D01*
X232383958Y-136918000D01*
X232380958Y-136884000D01*
X232379958Y-136850000D01*
X232379958Y-136250000D01*
X232380958Y-136216000D01*
X232383958Y-136182000D01*
X232387958Y-136148000D01*
X232393958Y-136115000D01*
X232401958Y-136082000D01*
X232411958Y-136049000D01*
X232422958Y-136017000D01*
X232435958Y-135986000D01*
X232450958Y-135955000D01*
X232466958Y-135925000D01*
X232484958Y-135896000D01*
X232503958Y-135868000D01*
X232524958Y-135841000D01*
X232546958Y-135815000D01*
X232569958Y-135790000D01*
X232594958Y-135767000D01*
X232620958Y-135745000D01*
X232647958Y-135724000D01*
X232675958Y-135705000D01*
X232704958Y-135687000D01*
X232734958Y-135671000D01*
X232765958Y-135656000D01*
X232796958Y-135643000D01*
X232828958Y-135632000D01*
X232861958Y-135622000D01*
X232894958Y-135614000D01*
X232927958Y-135608000D01*
X232961958Y-135604000D01*
X232995958Y-135601000D01*
X233029958Y-135600000D01*
X233063958Y-135601000D01*
G36*
X233063958Y-135601000D02*
G01*
X233097958Y-135604000D01*
X233131958Y-135608000D01*
X233164958Y-135614000D01*
X233197958Y-135622000D01*
X233230958Y-135632000D01*
X233262958Y-135643000D01*
X233293958Y-135656000D01*
X233324958Y-135671000D01*
X233354958Y-135687000D01*
X233383958Y-135705000D01*
X233411958Y-135724000D01*
X233438958Y-135745000D01*
X233464958Y-135767000D01*
X233489958Y-135790000D01*
X233512958Y-135815000D01*
X233534958Y-135841000D01*
X233555958Y-135868000D01*
X233574958Y-135896000D01*
X233592958Y-135925000D01*
X233608958Y-135955000D01*
X233623958Y-135986000D01*
X233636958Y-136017000D01*
X233647958Y-136049000D01*
X233657958Y-136082000D01*
X233665958Y-136115000D01*
X233671958Y-136148000D01*
X233675958Y-136182000D01*
X233678958Y-136216000D01*
X233679958Y-136250000D01*
X233679958Y-136850000D01*
X233678958Y-136884000D01*
X233675958Y-136918000D01*
X233671958Y-136952000D01*
X233665958Y-136985000D01*
X233657958Y-137018000D01*
X233647958Y-137051000D01*
X233636958Y-137083000D01*
X233623958Y-137114000D01*
X233608958Y-137145000D01*
X233592958Y-137175000D01*
X233574958Y-137204000D01*
X233555958Y-137232000D01*
X233534958Y-137259000D01*
X233512958Y-137285000D01*
X233489958Y-137310000D01*
X233464958Y-137333000D01*
X233438958Y-137355000D01*
X233411958Y-137376000D01*
X233383958Y-137395000D01*
X233354958Y-137413000D01*
X233324958Y-137429000D01*
X233293958Y-137444000D01*
X233262958Y-137457000D01*
X233230958Y-137468000D01*
X233197958Y-137478000D01*
X233164958Y-137486000D01*
X233131958Y-137492000D01*
X233097958Y-137496000D01*
X233063958Y-137499000D01*
X233029958Y-137500000D01*
X232995958Y-137499000D01*
X232961958Y-137496000D01*
X232927958Y-137492000D01*
X232894958Y-137486000D01*
X232861958Y-137478000D01*
X232828958Y-137468000D01*
X232796958Y-137457000D01*
X232765958Y-137444000D01*
X232734958Y-137429000D01*
X232704958Y-137413000D01*
X232675958Y-137395000D01*
X232647958Y-137376000D01*
X232620958Y-137355000D01*
X232594958Y-137333000D01*
X232569958Y-137310000D01*
X232546958Y-137285000D01*
X232524958Y-137259000D01*
X232503958Y-137232000D01*
X232484958Y-137204000D01*
X232466958Y-137175000D01*
X232450958Y-137145000D01*
X232435958Y-137114000D01*
X232422958Y-137083000D01*
X232411958Y-137051000D01*
X232401958Y-137018000D01*
X232393958Y-136985000D01*
X232387958Y-136952000D01*
X232383958Y-136918000D01*
X232380958Y-136884000D01*
X232379958Y-136850000D01*
X232379958Y-136250000D01*
X232380958Y-136216000D01*
X232383958Y-136182000D01*
X232387958Y-136148000D01*
X232393958Y-136115000D01*
X232401958Y-136082000D01*
X232411958Y-136049000D01*
X232422958Y-136017000D01*
X232435958Y-135986000D01*
X232450958Y-135955000D01*
X232466958Y-135925000D01*
X232484958Y-135896000D01*
X232503958Y-135868000D01*
X232524958Y-135841000D01*
X232546958Y-135815000D01*
X232569958Y-135790000D01*
X232594958Y-135767000D01*
X232620958Y-135745000D01*
X232647958Y-135724000D01*
X232675958Y-135705000D01*
X232704958Y-135687000D01*
X232734958Y-135671000D01*
X232765958Y-135656000D01*
X232796958Y-135643000D01*
X232828958Y-135632000D01*
X232861958Y-135622000D01*
X232894958Y-135614000D01*
X232927958Y-135608000D01*
X232961958Y-135604000D01*
X232995958Y-135601000D01*
X233029958Y-135600000D01*
X233063958Y-135601000D01*
G37*
%TD*%
D17*
%TO.C,R7*%
X235350000Y-127600000D03*
X233350000Y-127600000D03*
%TD*%
%TO.C,R6*%
X230750000Y-127600000D03*
X228750000Y-127600000D03*
%TD*%
D18*
%TO.C,*%
X219600000Y-135700000D03*
%TD*%
D19*
%TO.C,R1*%
X208900000Y-118300000D03*
X210900000Y-118300000D03*
%TD*%
D20*
%TO.C,C3*%
X216800000Y-122700000D03*
X216800000Y-127815000D03*
%TD*%
%TO.C,C2*%
X213000000Y-122700000D03*
X213000000Y-127815000D03*
%TD*%
D17*
%TO.C,R3*%
X233200000Y-120500000D03*
X235200000Y-120500000D03*
%TD*%
D21*
%TO.C,U5*%
X208930000Y-123733500D03*
X208930000Y-124233500D03*
X208930000Y-124733500D03*
X210400000Y-124733500D03*
X210400000Y-124233500D03*
X210400000Y-123733500D03*
%TD*%
D22*
%TO.C,U3*%
X230435000Y-122700000D03*
X230435000Y-122200000D03*
X230435000Y-121700000D03*
X230435000Y-121200000D03*
X230435000Y-120700000D03*
D23*
X229500000Y-119765000D03*
X229000000Y-119765000D03*
X228500000Y-119765000D03*
X228000000Y-119765000D03*
X227500000Y-119765000D03*
D22*
X226565000Y-120700000D03*
X226565000Y-121200000D03*
X226565000Y-121700000D03*
X226565000Y-122200000D03*
X226565000Y-122700000D03*
D23*
X227500000Y-123635000D03*
X228000000Y-123635000D03*
X228500000Y-123635000D03*
X229000000Y-123635000D03*
X229500000Y-123635000D03*
D24*
X228500000Y-121700000D03*
%TD*%
D25*
%TO.C,C1*%
X206737500Y-123887500D03*
X204662500Y-123887500D03*
%TD*%
D18*
%TO.C,U4*%
X204480000Y-102370000D03*
X220600000Y-102370000D03*
D26*
X218890000Y-114130000D03*
X206190000Y-114130000D03*
X221430000Y-114130000D03*
X208730000Y-114130000D03*
X211270000Y-114130000D03*
X203650000Y-114130000D03*
X216350000Y-114130000D03*
X213810000Y-114130000D03*
%TD*%
%TO.C,*%
X216200000Y-117700000D03*
%TD*%
D17*
%TO.C,R2*%
X206900000Y-121687500D03*
X208900000Y-121687500D03*
%TD*%
D27*
%TO.C,C5*%
X232262500Y-123300000D03*
X234337500Y-123300000D03*
%TD*%
D17*
%TO.C,R11*%
X222150000Y-118050000D03*
X224150000Y-118050000D03*
%TD*%
D19*
%TO.C,R15*%
X225650000Y-129650000D03*
X223650000Y-129650000D03*
%TD*%
D25*
%TO.C,C4*%
X228737500Y-125500000D03*
X226662500Y-125500000D03*
%TD*%
D28*
%TO.C,R4*%
X238100000Y-117700000D03*
X238100000Y-115700000D03*
%TD*%
D29*
%TO.C,*%
X237200000Y-110900000D03*
%TD*%
D30*
%TO.C,U7*%
X226730000Y-113167000D03*
X226730000Y-116267000D03*
X228230000Y-113167000D03*
X228230000Y-116267000D03*
%TD*%
D31*
%TO.C,J1*%
X228209958Y-132670000D03*
D32*
X230229958Y-132670000D03*
D33*
X231459958Y-132670000D03*
D31*
X229209958Y-132670000D03*
D32*
X227189958Y-132670000D03*
D33*
X225959958Y-132670000D03*
%TD*%
D34*
%TO.C,U6*%
X209900000Y-131950000D03*
D35*
X211900000Y-131950000D03*
%TD*%
D28*
%TO.C,R10*%
X230313262Y-115687737D03*
X230313262Y-113687737D03*
%TD*%
D36*
%TO.C,R13*%
X235700000Y-115475000D03*
X235700000Y-117975000D03*
%TD*%
D19*
%TO.C,R12*%
X224200000Y-120150000D03*
X222200000Y-120150000D03*
%TD*%
D28*
%TO.C,R9*%
X232599262Y-115687737D03*
X232599262Y-113687737D03*
%TD*%
D17*
%TO.C,R14*%
X231750000Y-129700000D03*
X233750000Y-129700000D03*
%TD*%
D25*
%TO.C,C6*%
X224787500Y-122800000D03*
X222712500Y-122800000D03*
%TD*%
D26*
%TO.C,*%
X213500000Y-117700000D03*
%TD*%
D37*
%TO.C,L2*%
X207215000Y-127687500D03*
X209585000Y-127687500D03*
%TD*%
%LPD*%
M02*
