%TF.GenerationSoftware,KiCad,Pcbnew,9.0.7*%
%TF.CreationDate,2026-03-23T03:25:44-05:00*%
%TF.ProjectId,mainBoardV2,6d61696e-426f-4617-9264-56322e6b6963,rev?*%
%TF.SameCoordinates,Original*%
%TF.FileFunction,Copper,L1,Top*%
%TF.FilePolarity,Positive*%
%FSLAX46Y46*%
G04 Gerber Fmt 4.6, Leading zero omitted, Abs format (unit mm)*
G04 Created by KiCad (PCBNEW 9.0.7) date 2026-03-23 03:25:44*
%MOMM*%
%LPD*%
G01*
G04 APERTURE LIST*
G04 Aperture macros list*
%AMRoundRect*
0 Rectangle with rounded corners*
0 $1 Rounding radius*
0 $2 $3 $4 $5 $6 $7 $8 $9 X,Y pos of 4 corners*
0 Add a 4 corners polygon primitive as box body*
4,1,4,$2,$3,$4,$5,$6,$7,$8,$9,$2,$3,0*
0 Add four circle primitives for the rounded corners*
1,1,$1+$1,$2,$3*
1,1,$1+$1,$4,$5*
1,1,$1+$1,$6,$7*
1,1,$1+$1,$8,$9*
0 Add four rect primitives between the rounded corners*
20,1,$1+$1,$2,$3,$4,$5,0*
20,1,$1+$1,$4,$5,$6,$7,0*
20,1,$1+$1,$6,$7,$8,$9,0*
20,1,$1+$1,$8,$9,$2,$3,0*%
%AMFreePoly0*
4,1,237,0.029172,0.853997,0.029356,0.853987,0.057356,0.851987,0.057683,0.851953,0.086683,0.847953,0.086879,0.847922,0.114879,0.842922,0.115213,0.842851,0.143213,0.835851,0.143374,0.835808,0.171374,0.827808,0.171737,0.827689,0.198737,0.817689,0.198886,0.817630,0.225886,0.806630,0.226095,0.806540,0.252095,0.794540,0.252443,0.794363,0.277443,0.780363,0.277572,0.780287,
0.302572,0.765287,0.302855,0.765105,0.325855,0.749105,0.326082,0.748938,0.349082,0.730938,0.371166,0.712870,0.371448,0.712621,0.392448,0.692621,0.392621,0.692448,0.412621,0.671448,0.412870,0.671166,0.430938,0.649082,0.448938,0.626082,0.449105,0.625855,0.465105,0.602855,0.465287,0.602572,0.480287,0.577572,0.480363,0.577443,0.494363,0.552443,0.494540,0.552095,
0.506540,0.526095,0.506630,0.525886,0.517630,0.498886,0.517689,0.498737,0.527689,0.471737,0.527808,0.471374,0.535808,0.443374,0.535851,0.443213,0.542851,0.415213,0.542922,0.414879,0.547922,0.386879,0.547953,0.386683,0.551953,0.357683,0.551987,0.357356,0.553987,0.329356,0.553997,0.329172,0.554997,0.300172,0.555000,0.300000,0.555000,-0.300000,0.554997,-0.300172,
0.553997,-0.329172,0.553987,-0.329356,0.551987,-0.357356,0.551953,-0.357683,0.547953,-0.386683,0.547922,-0.386879,0.542922,-0.414879,0.542851,-0.415213,0.535851,-0.443213,0.535808,-0.443374,0.527808,-0.471374,0.527689,-0.471737,0.517689,-0.498737,0.517630,-0.498886,0.506630,-0.525886,0.506540,-0.526095,0.494540,-0.552095,0.494363,-0.552443,0.480363,-0.577443,0.480287,-0.577572,
0.465287,-0.602572,0.465105,-0.602855,0.449105,-0.625855,0.448938,-0.626082,0.430938,-0.649082,0.412870,-0.671166,0.412621,-0.671448,0.392621,-0.692448,0.392448,-0.692621,0.371448,-0.712621,0.371166,-0.712870,0.349082,-0.730938,0.326082,-0.748938,0.325855,-0.749105,0.302855,-0.765105,0.302572,-0.765287,0.277572,-0.780287,0.277443,-0.780363,0.252443,-0.794363,0.252095,-0.794540,
0.226095,-0.806540,0.225886,-0.806630,0.198886,-0.817630,0.198737,-0.817689,0.171737,-0.827689,0.171374,-0.827808,0.143374,-0.835808,0.143213,-0.835851,0.115213,-0.842851,0.114879,-0.842922,0.086879,-0.847922,0.086683,-0.847953,0.057683,-0.851953,0.057356,-0.851987,0.029356,-0.853987,0.029172,-0.853997,0.000172,-0.854997,-0.000172,-0.854997,-0.029172,-0.853997,-0.029356,-0.853987,
-0.057356,-0.851987,-0.057683,-0.851953,-0.086683,-0.847953,-0.086879,-0.847922,-0.114879,-0.842922,-0.115213,-0.842851,-0.143213,-0.835851,-0.143374,-0.835808,-0.171374,-0.827808,-0.171737,-0.827689,-0.198737,-0.817689,-0.198886,-0.817630,-0.225886,-0.806630,-0.226095,-0.806540,-0.252095,-0.794540,-0.252443,-0.794363,-0.277443,-0.780363,-0.277572,-0.780287,-0.302572,-0.765287,-0.302855,-0.765105,
-0.325855,-0.749105,-0.326082,-0.748938,-0.349082,-0.730938,-0.371166,-0.712870,-0.371448,-0.712621,-0.392448,-0.692621,-0.392621,-0.692448,-0.412621,-0.671448,-0.412870,-0.671166,-0.430938,-0.649082,-0.448938,-0.626082,-0.449105,-0.625855,-0.465105,-0.602855,-0.465287,-0.602572,-0.480287,-0.577572,-0.480363,-0.577443,-0.494363,-0.552443,-0.494540,-0.552095,-0.506540,-0.526095,-0.506630,-0.525886,
-0.517630,-0.498886,-0.517689,-0.498737,-0.527689,-0.471737,-0.527808,-0.471374,-0.535808,-0.443374,-0.535851,-0.443213,-0.542851,-0.415213,-0.542922,-0.414879,-0.547922,-0.386879,-0.547953,-0.386683,-0.551953,-0.357683,-0.551987,-0.357356,-0.553987,-0.329356,-0.553997,-0.329172,-0.554997,-0.300172,-0.555000,-0.300000,-0.555000,0.300000,-0.554997,0.300172,-0.553997,0.329172,-0.553987,0.329356,
-0.551987,0.357356,-0.551953,0.357683,-0.547953,0.386683,-0.547922,0.386879,-0.542922,0.414879,-0.542851,0.415213,-0.535851,0.443213,-0.535808,0.443374,-0.527808,0.471374,-0.527689,0.471737,-0.517689,0.498737,-0.517630,0.498886,-0.506630,0.525886,-0.506540,0.526095,-0.494540,0.552095,-0.494363,0.552443,-0.480363,0.577443,-0.480287,0.577572,-0.465287,0.602572,-0.465105,0.602855,
-0.449105,0.625855,-0.448938,0.626082,-0.430938,0.649082,-0.412870,0.671166,-0.412621,0.671448,-0.392621,0.692448,-0.392448,0.692621,-0.371448,0.712621,-0.371166,0.712870,-0.349082,0.730938,-0.326082,0.748938,-0.325855,0.749105,-0.302855,0.765105,-0.302572,0.765287,-0.277572,0.780287,-0.277443,0.780363,-0.252443,0.794363,-0.252095,0.794540,-0.226095,0.806540,-0.225886,0.806630,
-0.198886,0.817630,-0.198737,0.817689,-0.171737,0.827689,-0.171374,0.827808,-0.143374,0.835808,-0.143213,0.835851,-0.115213,0.842851,-0.114879,0.842922,-0.086879,0.847922,-0.086683,0.847953,-0.057683,0.851953,-0.057356,0.851987,-0.029356,0.853987,-0.029172,0.853997,-0.000172,0.854997,0.000172,0.854997,0.029172,0.853997,0.029172,0.853997,$1*%
G04 Aperture macros list end*
%TA.AperFunction,SMDPad,CuDef*%
%ADD10R,0.980000X3.700000*%
%TD*%
%TA.AperFunction,SMDPad,CuDef*%
%ADD11RoundRect,0.250000X-0.350000X-0.450000X0.350000X-0.450000X0.350000X0.450000X-0.350000X0.450000X0*%
%TD*%
%TA.AperFunction,SMDPad,CuDef*%
%ADD12R,0.660000X0.310000*%
%TD*%
%TA.AperFunction,SMDPad,CuDef*%
%ADD13RoundRect,0.065000X0.355000X0.065000X-0.355000X0.065000X-0.355000X-0.065000X0.355000X-0.065000X0*%
%TD*%
%TA.AperFunction,SMDPad,CuDef*%
%ADD14RoundRect,0.065000X0.065000X0.355000X-0.065000X0.355000X-0.065000X-0.355000X0.065000X-0.355000X0*%
%TD*%
%TA.AperFunction,SMDPad,CuDef*%
%ADD15R,2.700000X2.700000*%
%TD*%
%TA.AperFunction,SMDPad,CuDef*%
%ADD16RoundRect,0.250000X0.337500X0.475000X-0.337500X0.475000X-0.337500X-0.475000X0.337500X-0.475000X0*%
%TD*%
%TA.AperFunction,ComponentPad*%
%ADD17C,1.905000*%
%TD*%
%TA.AperFunction,SMDPad,CuDef*%
%ADD18RoundRect,0.250000X-0.337500X-0.475000X0.337500X-0.475000X0.337500X0.475000X-0.337500X0.475000X0*%
%TD*%
%TA.AperFunction,SMDPad,CuDef*%
%ADD19RoundRect,0.250000X0.350000X0.450000X-0.350000X0.450000X-0.350000X-0.450000X0.350000X-0.450000X0*%
%TD*%
%TA.AperFunction,SMDPad,CuDef*%
%ADD20RoundRect,0.250001X-0.944999X0.872499X-0.944999X-0.872499X0.944999X-0.872499X0.944999X0.872499X0*%
%TD*%
%TA.AperFunction,SMDPad,CuDef*%
%ADD21RoundRect,0.250000X0.450000X-0.350000X0.450000X0.350000X-0.450000X0.350000X-0.450000X-0.350000X0*%
%TD*%
%TA.AperFunction,SMDPad,CuDef*%
%ADD22RoundRect,0.135000X-0.315000X-0.615000X0.315000X-0.615000X0.315000X0.615000X-0.315000X0.615000X0*%
%TD*%
%TA.AperFunction,SMDPad,CuDef*%
%ADD23R,0.700000X1.200000*%
%TD*%
%TA.AperFunction,SMDPad,CuDef*%
%ADD24R,0.760000X1.200000*%
%TD*%
%TA.AperFunction,SMDPad,CuDef*%
%ADD25R,0.800000X1.200000*%
%TD*%
%TA.AperFunction,ComponentPad*%
%ADD26FreePoly0,0.000000*%
%TD*%
%TA.AperFunction,ComponentPad*%
%ADD27RoundRect,0.250000X-0.350000X-0.625000X0.350000X-0.625000X0.350000X0.625000X-0.350000X0.625000X0*%
%TD*%
%TA.AperFunction,ComponentPad*%
%ADD28O,1.200000X1.750000*%
%TD*%
%TA.AperFunction,ComponentPad*%
%ADD29C,2.000000*%
%TD*%
%TA.AperFunction,ViaPad*%
%ADD30C,0.600000*%
%TD*%
%TA.AperFunction,ViaPad*%
%ADD31C,1.000000*%
%TD*%
%TA.AperFunction,Conductor*%
%ADD32C,0.200000*%
%TD*%
%TA.AperFunction,Conductor*%
%ADD33C,0.400000*%
%TD*%
%TA.AperFunction,Conductor*%
%ADD34C,1.000000*%
%TD*%
%TA.AperFunction,Conductor*%
%ADD35C,0.800000*%
%TD*%
%TA.AperFunction,Conductor*%
%ADD36C,0.300000*%
%TD*%
%TA.AperFunction,Conductor*%
%ADD37C,0.250000*%
%TD*%
%TA.AperFunction,Conductor*%
%ADD38C,1.400000*%
%TD*%
%TA.AperFunction,Conductor*%
%ADD39C,1.500000*%
%TD*%
%TA.AperFunction,Conductor*%
%ADD40C,2.000000*%
%TD*%
G04 APERTURE END LIST*
D10*
%TO.P,L2,1*%
%TO.N,/VBatt+*%
X207215000Y-127687500D03*
%TO.P,L2,2*%
%TO.N,/SW*%
X209585000Y-127687500D03*
%TD*%
D11*
%TO.P,R3,1*%
%TO.N,/Therm*%
X233200000Y-120500000D03*
%TO.P,R3,2*%
%TO.N,Net-(R13-Pad2)*%
X235200000Y-120500000D03*
%TD*%
D12*
%TO.P,U5,1,FB*%
%TO.N,/Boost FB*%
X208930000Y-123733500D03*
%TO.P,U5,2,EN*%
%TO.N,/VBatt+*%
X208930000Y-124233500D03*
%TO.P,U5,3,VIN*%
X208930000Y-124733500D03*
%TO.P,U5,4,GND*%
%TO.N,GND*%
X210400000Y-124733500D03*
%TO.P,U5,5,SW*%
%TO.N,/SW*%
X210400000Y-124233500D03*
%TO.P,U5,6,VOUT*%
%TO.N,/VoutBoost*%
X210400000Y-123733500D03*
%TD*%
D13*
%TO.P,U3,1,OUT*%
%TO.N,/VoutBoost*%
X230435000Y-122700000D03*
%TO.P,U3,2,VPCC*%
%TO.N,/VPCC*%
X230435000Y-122200000D03*
%TO.P,U3,3,SEL*%
%TO.N,+5V*%
X230435000Y-121700000D03*
%TO.P,U3,4,PROG2*%
X230435000Y-121200000D03*
%TO.P,U3,5,THERM*%
%TO.N,/Therm*%
X230435000Y-120700000D03*
D14*
%TO.P,U3,6,~{PG}*%
%TO.N,unconnected-(U3-~{PG}-Pad6)*%
X229500000Y-119765000D03*
%TO.P,U3,7,STAT2*%
%TO.N,/ChargeDone*%
X229000000Y-119765000D03*
%TO.P,U3,8,STAT1/\u002ALBO*%
%TO.N,/LowBatt*%
X228500000Y-119765000D03*
%TO.P,U3,9,~{TE}*%
%TO.N,+5V*%
X228000000Y-119765000D03*
%TO.P,U3,10,VSS*%
%TO.N,GND*%
X227500000Y-119765000D03*
D13*
%TO.P,U3,11,VSS*%
X226565000Y-120700000D03*
%TO.P,U3,12,PROG3*%
%TO.N,/PROG3*%
X226565000Y-121200000D03*
%TO.P,U3,13,PROG1*%
%TO.N,/PROG1*%
X226565000Y-121700000D03*
%TO.P,U3,14,VBAT*%
%TO.N,/VBatt+*%
X226565000Y-122200000D03*
%TO.P,U3,15,VBAT*%
X226565000Y-122700000D03*
D14*
%TO.P,U3,16,VBAT_SENSE*%
X227500000Y-123635000D03*
%TO.P,U3,17,CE*%
%TO.N,+5V*%
X228000000Y-123635000D03*
%TO.P,U3,18,IN*%
X228500000Y-123635000D03*
%TO.P,U3,19,IN*%
X229000000Y-123635000D03*
%TO.P,U3,20,OUT*%
%TO.N,/VoutBoost*%
X229500000Y-123635000D03*
D15*
%TO.P,U3,21,EP*%
%TO.N,GND*%
X228500000Y-121700000D03*
%TD*%
D16*
%TO.P,C1,1*%
%TO.N,/VBatt+*%
X206737500Y-123887500D03*
%TO.P,C1,2*%
%TO.N,GND*%
X204662500Y-123887500D03*
%TD*%
D17*
%TO.P,U4,AD0,AD0*%
%TO.N,unconnected-(U4-PadAD0)*%
X218890000Y-114130000D03*
%TO.P,U4,GND,GND*%
%TO.N,GND*%
X206190000Y-114130000D03*
%TO.P,U4,INT,INT*%
%TO.N,unconnected-(U4-PadINT)*%
X221430000Y-114130000D03*
%TO.P,U4,SCL,SCL*%
%TO.N,unconnected-(U4-PadSCL)*%
X208730000Y-114130000D03*
%TO.P,U4,SDA,SDA*%
%TO.N,unconnected-(U4-PadSDA)*%
X211270000Y-114130000D03*
%TO.P,U4,VCC,VCC*%
%TO.N,/VoutBoost*%
X203650000Y-114130000D03*
%TO.P,U4,XCL,XCL*%
%TO.N,unconnected-(U4-PadXCL)*%
X216350000Y-114130000D03*
%TO.P,U4,XDA,XDA*%
%TO.N,unconnected-(U4-PadXDA)*%
X213810000Y-114130000D03*
%TD*%
D11*
%TO.P,R6,1*%
%TO.N,+5V*%
X228750000Y-127600000D03*
%TO.P,R6,2*%
%TO.N,/VPCC*%
X230750000Y-127600000D03*
%TD*%
D17*
%TO.P,,5V,SDA*%
%TO.N,/VoutBoost*%
X216200000Y-117700000D03*
%TD*%
D11*
%TO.P,R2,1*%
%TO.N,GND*%
X206900000Y-121687500D03*
%TO.P,R2,2*%
%TO.N,/Boost FB*%
X208900000Y-121687500D03*
%TD*%
D18*
%TO.P,C5,1*%
%TO.N,/VoutBoost*%
X232262500Y-123300000D03*
%TO.P,C5,2*%
%TO.N,GND*%
X234337500Y-123300000D03*
%TD*%
D19*
%TO.P,R1,1*%
%TO.N,/VoutBoost*%
X210900000Y-118300000D03*
%TO.P,R1,2*%
%TO.N,/Boost FB*%
X208900000Y-118300000D03*
%TD*%
D11*
%TO.P,R11,1*%
%TO.N,GND*%
X222150000Y-118050000D03*
%TO.P,R11,2*%
%TO.N,/PROG3*%
X224150000Y-118050000D03*
%TD*%
D19*
%TO.P,R15,1*%
%TO.N,Net-(J1-CC1)*%
X225650000Y-129650000D03*
%TO.P,R15,2*%
%TO.N,GND*%
X223650000Y-129650000D03*
%TD*%
D20*
%TO.P,C3,1*%
%TO.N,/VoutBoost*%
X216800000Y-122700000D03*
%TO.P,C3,2*%
%TO.N,GND*%
X216800000Y-127815000D03*
%TD*%
D16*
%TO.P,C4,1*%
%TO.N,+5V*%
X228737500Y-125500000D03*
%TO.P,C4,2*%
%TO.N,GND*%
X226662500Y-125500000D03*
%TD*%
D21*
%TO.P,R4,1*%
%TO.N,Net-(R13-Pad2)*%
X238100000Y-117700000D03*
%TO.P,R4,2*%
%TO.N,GND*%
X238100000Y-115700000D03*
%TD*%
D22*
%TO.P,U7,1,Green*%
%TO.N,Net-(U7-Green)*%
X226730000Y-113167000D03*
%TO.P,U7,2,Yellow*%
%TO.N,unconnected-(U7-Yellow-Pad2)*%
X226730000Y-116267000D03*
%TO.P,U7,3,Red*%
%TO.N,Net-(U7-Red)*%
X228230000Y-113167000D03*
%TO.P,U7,4,Common_Anode*%
%TO.N,+5V*%
X228230000Y-116267000D03*
%TD*%
D23*
%TO.P,J1,A5,CC1*%
%TO.N,Net-(J1-CC1)*%
X228209958Y-132670000D03*
D24*
%TO.P,J1,A9,VBUS*%
%TO.N,+5V*%
X230229958Y-132670000D03*
D25*
%TO.P,J1,A12,GND*%
%TO.N,GND*%
X231459958Y-132670000D03*
D23*
%TO.P,J1,B5,CC2*%
%TO.N,Net-(J1-CC2)*%
X229209958Y-132670000D03*
D24*
%TO.P,J1,B9,VBUS*%
%TO.N,+5V*%
X227189958Y-132670000D03*
D25*
%TO.P,J1,B12,GND*%
%TO.N,GND*%
X225959958Y-132670000D03*
D26*
%TO.P,J1,S1,SHIELD*%
X224389958Y-132750000D03*
%TO.P,J1,S2,SHIELD*%
X233029958Y-132750000D03*
%TO.P,J1,S3,SHIELD*%
X224389958Y-136550000D03*
%TO.P,J1,S4,SHIELD*%
X233029958Y-136550000D03*
%TD*%
D27*
%TO.P,U6,1,VBAT+*%
%TO.N,/VBatt+*%
X209900000Y-131950000D03*
D28*
%TO.P,U6,2,VBAT-*%
%TO.N,GND*%
X211900000Y-131950000D03*
%TD*%
D20*
%TO.P,C2,1*%
%TO.N,/VoutBoost*%
X213000000Y-122700000D03*
%TO.P,C2,2*%
%TO.N,GND*%
X213000000Y-127815000D03*
%TD*%
D11*
%TO.P,R7,1*%
%TO.N,/VPCC*%
X233350000Y-127600000D03*
%TO.P,R7,2*%
%TO.N,GND*%
X235350000Y-127600000D03*
%TD*%
D21*
%TO.P,R10,1*%
%TO.N,/LowBatt*%
X230313262Y-115687737D03*
%TO.P,R10,2*%
%TO.N,Net-(U7-Red)*%
X230313262Y-113687737D03*
%TD*%
D29*
%TO.P,R13,1*%
%TO.N,GND*%
X235700000Y-115475000D03*
%TO.P,R13,2*%
%TO.N,Net-(R13-Pad2)*%
X235700000Y-117975000D03*
%TD*%
D19*
%TO.P,R12,1*%
%TO.N,/PROG1*%
X224200000Y-120150000D03*
%TO.P,R12,2*%
%TO.N,GND*%
X222200000Y-120150000D03*
%TD*%
D21*
%TO.P,R9,1*%
%TO.N,/ChargeDone*%
X232599262Y-115687737D03*
%TO.P,R9,2*%
%TO.N,Net-(U7-Green)*%
X232599262Y-113687737D03*
%TD*%
D11*
%TO.P,R14,1*%
%TO.N,Net-(J1-CC2)*%
X231750000Y-129700000D03*
%TO.P,R14,2*%
%TO.N,GND*%
X233750000Y-129700000D03*
%TD*%
D16*
%TO.P,C6,1*%
%TO.N,/VBatt+*%
X224787500Y-122800000D03*
%TO.P,C6,2*%
%TO.N,GND*%
X222712500Y-122800000D03*
%TD*%
D17*
%TO.P,,5V,SDA*%
%TO.N,/VoutBoost*%
X213500000Y-117700000D03*
%TD*%
D30*
%TO.N,Net-(J1-CC2)*%
X231750000Y-129850000D03*
X229200000Y-132050000D03*
%TO.N,+5V*%
X231300000Y-119950000D03*
X230500000Y-125000000D03*
X231450000Y-121450000D03*
%TO.N,GND*%
X216800000Y-128100000D03*
X214700000Y-125700000D03*
X229500000Y-122700000D03*
X216100000Y-128100000D03*
X212600000Y-126687500D03*
X215400000Y-128100000D03*
X212600000Y-125700000D03*
X228200000Y-120800000D03*
X214000000Y-125700000D03*
X214000000Y-128100000D03*
X229500000Y-120800000D03*
X205550000Y-121300000D03*
X215400000Y-126687500D03*
X205550000Y-122100000D03*
X235650000Y-123000000D03*
X213300000Y-127387500D03*
X236650000Y-127900000D03*
X216800000Y-125700000D03*
X214700000Y-126687500D03*
X214700000Y-128100000D03*
X214000000Y-128800000D03*
X216100000Y-125700000D03*
X214700000Y-127387500D03*
X221300000Y-123150000D03*
X217600000Y-128100000D03*
X228200000Y-122000000D03*
X216800000Y-125000000D03*
X211900000Y-125700000D03*
X228200000Y-122700000D03*
X220900000Y-120500000D03*
X227500000Y-120800000D03*
X217600000Y-125000000D03*
X216100000Y-128800000D03*
X228900000Y-122000000D03*
X215400000Y-128800000D03*
X223650000Y-129650000D03*
X220850000Y-118350000D03*
X229500000Y-122000000D03*
X228900000Y-121400000D03*
X221300000Y-122450000D03*
X228200000Y-121400000D03*
X229500000Y-121400000D03*
X213300000Y-125000000D03*
X217600000Y-126700000D03*
X228900000Y-122700000D03*
X217600000Y-125700000D03*
X216800000Y-127387500D03*
X213300000Y-128100000D03*
X213300000Y-128800000D03*
X211900000Y-126700000D03*
X212600000Y-128800000D03*
X235650000Y-123700000D03*
X203100000Y-123550000D03*
X216800000Y-126687500D03*
X227500000Y-121400000D03*
X216100000Y-127387500D03*
X215400000Y-125000000D03*
X236650000Y-127250000D03*
X227500000Y-122700000D03*
X216100000Y-126687500D03*
X213300000Y-126687500D03*
X212600000Y-127387500D03*
X211900000Y-128800000D03*
X220850000Y-117700000D03*
X216100000Y-125000000D03*
X227500000Y-122000000D03*
X228900000Y-120800000D03*
X211900000Y-125000000D03*
X225350000Y-125150000D03*
X212600000Y-128100000D03*
X220900000Y-119800000D03*
X217600000Y-128800000D03*
X214000000Y-125000000D03*
X215400000Y-125700000D03*
X233750000Y-129700000D03*
X214000000Y-127387500D03*
X211900000Y-128100000D03*
X215400000Y-127387500D03*
X213300000Y-125700000D03*
X214700000Y-125000000D03*
X203100000Y-124350000D03*
X214700000Y-128800000D03*
X211900000Y-127400000D03*
X212600000Y-125000000D03*
X217600000Y-127400000D03*
X225350000Y-125800000D03*
X216800000Y-128800000D03*
X214000000Y-126687500D03*
%TO.N,Net-(J1-CC1)*%
X228200000Y-132100000D03*
X225650000Y-129650000D03*
%TO.N,/VPCC*%
X233700000Y-125700000D03*
X233800000Y-121900000D03*
%TO.N,/ChargeDone*%
X231000000Y-117200000D03*
X229500000Y-118600000D03*
%TO.N,/LowBatt*%
X230150000Y-117050000D03*
X228600000Y-118600000D03*
%TO.N,/VoutBoost*%
X230600000Y-125900000D03*
D31*
X216800000Y-122700000D03*
D30*
%TO.N,Net-(U7-Green)*%
X226730000Y-113167000D03*
X232600000Y-112300000D03*
%TD*%
D32*
%TO.N,Net-(J1-CC2)*%
X229209958Y-132070000D02*
X229209958Y-132059958D01*
X229209958Y-132059958D02*
X229200000Y-132050000D01*
%TO.N,+5V*%
X228000000Y-116497000D02*
X228230000Y-116267000D01*
D33*
X230500000Y-125000000D02*
X229237500Y-125000000D01*
D32*
X228505500Y-123640500D02*
X228500000Y-123635000D01*
D33*
X231400000Y-121450000D02*
X231450000Y-121450000D01*
D32*
X228000000Y-118850000D02*
X228000000Y-116497000D01*
X231300000Y-119950000D02*
X231300000Y-119400000D01*
X231300000Y-119400000D02*
X229300000Y-117400000D01*
X228000000Y-119765000D02*
X228000000Y-118850000D01*
D33*
X229237500Y-125000000D02*
X228737500Y-125500000D01*
D32*
X229300000Y-117400000D02*
X228000000Y-117400000D01*
%TO.N,Net-(R13-Pad2)*%
X235200000Y-118475000D02*
X235700000Y-117975000D01*
X235200000Y-120500000D02*
X235200000Y-118475000D01*
D34*
X237825000Y-117975000D02*
X238100000Y-117700000D01*
X235700000Y-117975000D02*
X237825000Y-117975000D01*
%TO.N,GND*%
X238100000Y-115700000D02*
X235925000Y-115700000D01*
D35*
X233750000Y-129710424D02*
X233750000Y-129700000D01*
X225959958Y-131970382D02*
X223650000Y-129660424D01*
X223650000Y-129660424D02*
X223650000Y-129650000D01*
X231459958Y-132670000D02*
X231459958Y-132000466D01*
X231459958Y-132000466D02*
X233750000Y-129710424D01*
X225959958Y-132670000D02*
X225959958Y-131970382D01*
D32*
X235925000Y-115700000D02*
X235700000Y-115475000D01*
%TO.N,Net-(J1-CC1)*%
X228209958Y-132090042D02*
X228200000Y-132100000D01*
X228209958Y-132070000D02*
X228209958Y-132090042D01*
D36*
%TO.N,/SW*%
X209585000Y-125915000D02*
X209585000Y-127687500D01*
X210400000Y-124233500D02*
X209754000Y-124233500D01*
X209700000Y-125800000D02*
X209585000Y-125915000D01*
X209700000Y-124287500D02*
X209700000Y-125800000D01*
X209754000Y-124233500D02*
X209700000Y-124287500D01*
D32*
%TO.N,/VPCC*%
X233800000Y-121900000D02*
X232500000Y-121900000D01*
X232500000Y-121900000D02*
X232200000Y-122200000D01*
D33*
X230750000Y-127600000D02*
X232650000Y-125700000D01*
D32*
X232200000Y-122200000D02*
X230435000Y-122200000D01*
D33*
X232650000Y-125700000D02*
X233700000Y-125700000D01*
D32*
%TO.N,/ChargeDone*%
X232512263Y-115687737D02*
X232599262Y-115687737D01*
X231000000Y-117200000D02*
X232512263Y-115687737D01*
X229000000Y-119100000D02*
X229500000Y-118600000D01*
X229000000Y-119765000D02*
X229000000Y-119100000D01*
%TO.N,/LowBatt*%
X230150000Y-117050000D02*
X230313262Y-116886738D01*
X230313262Y-116886738D02*
X230313262Y-115687737D01*
X228500000Y-118700000D02*
X228600000Y-118600000D01*
X228500000Y-119765000D02*
X228500000Y-118700000D01*
%TO.N,/PROG3*%
X225300000Y-120650000D02*
X225300000Y-119200000D01*
X225300000Y-119200000D02*
X224150000Y-118050000D01*
X226565000Y-121200000D02*
X225850000Y-121200000D01*
X225850000Y-121200000D02*
X225300000Y-120650000D01*
%TO.N,/PROG1*%
X226565000Y-121700000D02*
X225750000Y-121700000D01*
X225750000Y-121700000D02*
X224200000Y-120150000D01*
D37*
%TO.N,/Therm*%
X232100000Y-120500000D02*
X233200000Y-120500000D01*
X230435000Y-120700000D02*
X231900000Y-120700000D01*
X231900000Y-120700000D02*
X232100000Y-120500000D01*
D38*
%TO.N,/VBatt+*%
X213600000Y-135100000D02*
X214900000Y-135100000D01*
X224787500Y-124014029D02*
X224787500Y-122800000D01*
D39*
X211200000Y-135100000D02*
X210000000Y-133900000D01*
D38*
X224149000Y-125851000D02*
X224149000Y-124652529D01*
D39*
X213600000Y-135100000D02*
X211200000Y-135100000D01*
X224787500Y-123912500D02*
X224787500Y-122800000D01*
D38*
X214900000Y-135100000D02*
X224149000Y-125851000D01*
X224149000Y-124652529D02*
X224787500Y-124014029D01*
D39*
X210000000Y-133900000D02*
X210000000Y-132050000D01*
X207215000Y-129265000D02*
X207215000Y-127687500D01*
X210000000Y-132050000D02*
X207215000Y-129265000D01*
D35*
%TO.N,/VoutBoost*%
X232262500Y-123300000D02*
X232262500Y-124940996D01*
D39*
X213500000Y-117700000D02*
X213400000Y-117800000D01*
D34*
X210900000Y-119587500D02*
X210900000Y-117200000D01*
D35*
X232262500Y-124940996D02*
X231303496Y-125900000D01*
D34*
X210300000Y-116700000D02*
X206020000Y-116700000D01*
D40*
X213000000Y-118200000D02*
X213500000Y-117700000D01*
X213000000Y-122700000D02*
X213000000Y-118200000D01*
D34*
X206020000Y-116700000D02*
X203650000Y-114330000D01*
D35*
X231303496Y-125900000D02*
X230600000Y-125900000D01*
D39*
X213500000Y-117700000D02*
X216200000Y-117700000D01*
D40*
X216800000Y-118300000D02*
X216200000Y-117700000D01*
X216800000Y-122700000D02*
X216800000Y-118300000D01*
D34*
X210900000Y-117200000D02*
X210800000Y-117200000D01*
X210800000Y-117200000D02*
X210300000Y-116700000D01*
D32*
%TO.N,Net-(U7-Green)*%
X232599262Y-113687737D02*
X232599262Y-112300738D01*
X226757262Y-113139738D02*
X226730000Y-113167000D01*
X232599262Y-112300738D02*
X232600000Y-112300000D01*
%TO.N,Net-(U7-Red)*%
X230313262Y-113687737D02*
X230313262Y-113417737D01*
X228750737Y-113687737D02*
X228230000Y-113167000D01*
X230313262Y-113687737D02*
X228750737Y-113687737D01*
%TO.N,/Boost FB*%
X208930000Y-121717500D02*
X208900000Y-121687500D01*
X208930000Y-123733500D02*
X208930000Y-121717500D01*
%TO.N,unconnected-(U3-~{PG}-Pad6)*%
X229500000Y-119414000D02*
X229500000Y-119765000D01*
%TO.N,unconnected-(U7-Yellow-Pad2)*%
X226531263Y-116465737D02*
X226730000Y-116267000D01*
%TD*%
%TA.AperFunction,Conductor*%
%TO.N,/VPCC*%
G36*
X233893039Y-126919685D02*
G01*
X233938794Y-126972489D01*
X233950000Y-127024000D01*
X233950000Y-128176000D01*
X233930315Y-128243039D01*
X233877511Y-128288794D01*
X233826000Y-128300000D01*
X230224000Y-128300000D01*
X230156961Y-128280315D01*
X230111206Y-128227511D01*
X230100000Y-128176000D01*
X230100000Y-127024000D01*
X230119685Y-126956961D01*
X230172489Y-126911206D01*
X230224000Y-126900000D01*
X233826000Y-126900000D01*
X233893039Y-126919685D01*
G37*
%TD.AperFunction*%
%TD*%
%TA.AperFunction,Conductor*%
%TO.N,/VBatt+*%
G36*
X226892539Y-122069685D02*
G01*
X226938294Y-122122489D01*
X226949500Y-122174000D01*
X226949500Y-122392635D01*
X226948238Y-122410280D01*
X226944500Y-122436277D01*
X226944500Y-122436281D01*
X226944500Y-122463717D01*
X226944508Y-122465578D01*
X226944528Y-122467786D01*
X226946639Y-122481196D01*
X226947883Y-122496824D01*
X226947162Y-122496929D01*
X226948796Y-122508298D01*
X226949109Y-122512221D01*
X226948876Y-122513334D01*
X226949500Y-122522059D01*
X226949500Y-123069752D01*
X226961131Y-123128228D01*
X226961132Y-123128230D01*
X226961133Y-123128231D01*
X226979101Y-123155122D01*
X226999980Y-123221797D01*
X227000000Y-123224013D01*
X227000000Y-123250000D01*
X227119084Y-123250000D01*
X227129262Y-123250500D01*
X227130252Y-123250500D01*
X227476000Y-123250500D01*
X227543039Y-123270185D01*
X227588794Y-123322989D01*
X227600000Y-123374500D01*
X227600000Y-123924162D01*
X227580315Y-123991201D01*
X227527511Y-124036956D01*
X227474177Y-124048149D01*
X224322177Y-124001796D01*
X224255434Y-123981127D01*
X224210460Y-123927656D01*
X224200000Y-123877809D01*
X224200000Y-122174000D01*
X224219685Y-122106961D01*
X224272489Y-122061206D01*
X224324000Y-122050000D01*
X226825500Y-122050000D01*
X226892539Y-122069685D01*
G37*
%TD.AperFunction*%
%TD*%
%TA.AperFunction,Conductor*%
%TO.N,GND*%
G36*
X236143039Y-122619685D02*
G01*
X236188794Y-122672489D01*
X236200000Y-122724000D01*
X236200000Y-123926000D01*
X236180315Y-123993039D01*
X236127511Y-124038794D01*
X236076000Y-124050000D01*
X233874000Y-124050000D01*
X233806961Y-124030315D01*
X233761206Y-123977511D01*
X233750000Y-123926000D01*
X233750000Y-122724000D01*
X233769685Y-122656961D01*
X233822489Y-122611206D01*
X233874000Y-122600000D01*
X236076000Y-122600000D01*
X236143039Y-122619685D01*
G37*
%TD.AperFunction*%
%TD*%
%TA.AperFunction,Conductor*%
%TO.N,GND*%
G36*
X227193039Y-124819685D02*
G01*
X227238794Y-124872489D01*
X227250000Y-124924000D01*
X227250000Y-126076000D01*
X227230315Y-126143039D01*
X227177511Y-126188794D01*
X227126000Y-126200000D01*
X225224000Y-126200000D01*
X225156961Y-126180315D01*
X225111206Y-126127511D01*
X225100000Y-126076000D01*
X225100000Y-125026390D01*
X225108644Y-124996949D01*
X225115168Y-124966963D01*
X225118922Y-124961947D01*
X225119685Y-124959351D01*
X225136319Y-124938709D01*
X225238709Y-124836319D01*
X225300032Y-124802834D01*
X225326390Y-124800000D01*
X227126000Y-124800000D01*
X227193039Y-124819685D01*
G37*
%TD.AperFunction*%
%TD*%
%TA.AperFunction,Conductor*%
%TO.N,GND*%
G36*
X205243039Y-123019685D02*
G01*
X205288794Y-123072489D01*
X205300000Y-123124000D01*
X205300000Y-124676000D01*
X205280315Y-124743039D01*
X205227511Y-124788794D01*
X205176000Y-124800000D01*
X202824000Y-124800000D01*
X202756961Y-124780315D01*
X202711206Y-124727511D01*
X202700000Y-124676000D01*
X202700000Y-123124000D01*
X202719685Y-123056961D01*
X202772489Y-123011206D01*
X202824000Y-123000000D01*
X205176000Y-123000000D01*
X205243039Y-123019685D01*
G37*
%TD.AperFunction*%
%TD*%
%TA.AperFunction,Conductor*%
%TO.N,+5V*%
G36*
X229112539Y-123270185D02*
G01*
X229158294Y-123322989D01*
X229169500Y-123374500D01*
X229169500Y-124016143D01*
X229184905Y-124093593D01*
X229250284Y-124191441D01*
X229271156Y-124257851D01*
X229350000Y-128199999D01*
X229350000Y-128200000D01*
X230539797Y-128913878D01*
X230587156Y-128965249D01*
X230600000Y-129020207D01*
X230600000Y-133176000D01*
X230580315Y-133243039D01*
X230527511Y-133288794D01*
X230476000Y-133300000D01*
X229884458Y-133300000D01*
X229817419Y-133280315D01*
X229771664Y-133227511D01*
X229760458Y-133176000D01*
X229760458Y-132050249D01*
X229760457Y-132050247D01*
X229748826Y-131991770D01*
X229748825Y-131991769D01*
X229704509Y-131925446D01*
X229701056Y-131921993D01*
X229668962Y-131866404D01*
X229666392Y-131856815D01*
X229666392Y-131856814D01*
X229600500Y-131742686D01*
X229507314Y-131649500D01*
X229450250Y-131616554D01*
X229393187Y-131583608D01*
X229329539Y-131566554D01*
X229265892Y-131549500D01*
X229134108Y-131549500D01*
X229006812Y-131583608D01*
X228892686Y-131649500D01*
X228892683Y-131649502D01*
X228799502Y-131742683D01*
X228799497Y-131742689D01*
X228789158Y-131760598D01*
X228738590Y-131808813D01*
X228669982Y-131822034D01*
X228605118Y-131796065D01*
X228594091Y-131786277D01*
X228507316Y-131699502D01*
X228507314Y-131699500D01*
X228450250Y-131666554D01*
X228393187Y-131633608D01*
X228329539Y-131616554D01*
X228265892Y-131599500D01*
X228134108Y-131599500D01*
X228006812Y-131633608D01*
X227892686Y-131699500D01*
X227892683Y-131699502D01*
X227799502Y-131792683D01*
X227799500Y-131792686D01*
X227741180Y-131893698D01*
X227721480Y-131919372D01*
X227715409Y-131925442D01*
X227671089Y-131991771D01*
X227659458Y-132050247D01*
X227659458Y-133176000D01*
X227639773Y-133243039D01*
X227586969Y-133288794D01*
X227535458Y-133300000D01*
X226935105Y-133300000D01*
X226868066Y-133280315D01*
X226822311Y-133227511D01*
X226811110Y-133174859D01*
X226815717Y-132674325D01*
X226849365Y-129018983D01*
X226869658Y-128952506D01*
X226909452Y-128914328D01*
X228100000Y-128200000D01*
X228100000Y-124800000D01*
X227974000Y-124800000D01*
X227906961Y-124780315D01*
X227861206Y-124727511D01*
X227850000Y-124676000D01*
X227850000Y-123374500D01*
X227869685Y-123307461D01*
X227922489Y-123261706D01*
X227974000Y-123250500D01*
X229045500Y-123250500D01*
X229112539Y-123270185D01*
G37*
%TD.AperFunction*%
%TD*%
%TA.AperFunction,Conductor*%
%TO.N,/VoutBoost*%
G36*
X217941730Y-118807914D02*
G01*
X217988142Y-118860142D01*
X218000000Y-118913059D01*
X218000000Y-123665040D01*
X217980315Y-123732079D01*
X217927511Y-123777834D01*
X217877550Y-123789030D01*
X210757746Y-123878027D01*
X210755813Y-123877945D01*
X210755813Y-123878000D01*
X210124000Y-123878000D01*
X210056961Y-123858315D01*
X210011206Y-123805511D01*
X210000000Y-123754000D01*
X210000000Y-119009959D01*
X210019685Y-118942920D01*
X210072489Y-118897165D01*
X210122448Y-118885969D01*
X217874451Y-118789069D01*
X217941730Y-118807914D01*
G37*
%TD.AperFunction*%
%TD*%
%TA.AperFunction,Conductor*%
%TO.N,GND*%
G36*
X222743039Y-119419685D02*
G01*
X222788794Y-119472489D01*
X222800000Y-119524000D01*
X222800000Y-120726000D01*
X222780315Y-120793039D01*
X222727511Y-120838794D01*
X222676000Y-120850000D01*
X220574000Y-120850000D01*
X220506961Y-120830315D01*
X220461206Y-120777511D01*
X220450000Y-120726000D01*
X220450000Y-119524000D01*
X220469685Y-119456961D01*
X220522489Y-119411206D01*
X220574000Y-119400000D01*
X222676000Y-119400000D01*
X222743039Y-119419685D01*
G37*
%TD.AperFunction*%
%TD*%
%TA.AperFunction,Conductor*%
%TO.N,+5V*%
G36*
X231993039Y-121069685D02*
G01*
X232038794Y-121122489D01*
X232050000Y-121174000D01*
X232050000Y-121726000D01*
X232030315Y-121793039D01*
X231977511Y-121838794D01*
X231926000Y-121850000D01*
X230174500Y-121850000D01*
X230107461Y-121830315D01*
X230061706Y-121777511D01*
X230050500Y-121726000D01*
X230050500Y-121174000D01*
X230070185Y-121106961D01*
X230122989Y-121061206D01*
X230174500Y-121050000D01*
X231926000Y-121050000D01*
X231993039Y-121069685D01*
G37*
%TD.AperFunction*%
%TD*%
%TA.AperFunction,Conductor*%
%TO.N,GND*%
G36*
X218193039Y-124607185D02*
G01*
X218238794Y-124659989D01*
X218250000Y-124711500D01*
X218250000Y-129163713D01*
X218230315Y-129230752D01*
X218177511Y-129276507D01*
X218126214Y-129287713D01*
X211124214Y-129299785D01*
X211057140Y-129280216D01*
X211011295Y-129227491D01*
X211000000Y-129175785D01*
X211000000Y-124900000D01*
X210999999Y-124899999D01*
X210172950Y-124889661D01*
X210165042Y-124887231D01*
X210156853Y-124888409D01*
X210132132Y-124877119D01*
X210106162Y-124869140D01*
X210100823Y-124862821D01*
X210093297Y-124859384D01*
X210078605Y-124836523D01*
X210061071Y-124815769D01*
X210059019Y-124806046D01*
X210055523Y-124800606D01*
X210050500Y-124765671D01*
X210050500Y-124713000D01*
X210070185Y-124645961D01*
X210122989Y-124600206D01*
X210174500Y-124589000D01*
X210749750Y-124589000D01*
X210755813Y-124588403D01*
X210755856Y-124588844D01*
X210769503Y-124587500D01*
X218126000Y-124587500D01*
X218193039Y-124607185D01*
G37*
%TD.AperFunction*%
%TD*%
%TA.AperFunction,Conductor*%
%TO.N,/VBatt+*%
G36*
X207443039Y-123007185D02*
G01*
X207488794Y-123059989D01*
X207500000Y-123111500D01*
X207500000Y-124087500D01*
X208560497Y-124087500D01*
X208574143Y-124088844D01*
X208574187Y-124088403D01*
X208580250Y-124089000D01*
X209176000Y-124089000D01*
X209243039Y-124108685D01*
X209288794Y-124161489D01*
X209300000Y-124213000D01*
X209300000Y-124963500D01*
X209280315Y-125030539D01*
X209227511Y-125076294D01*
X209176000Y-125087500D01*
X207900000Y-125087500D01*
X207900000Y-129463500D01*
X207880315Y-129530539D01*
X207827511Y-129576294D01*
X207776000Y-129587500D01*
X206124000Y-129587500D01*
X206056961Y-129567815D01*
X206011206Y-129515011D01*
X206000000Y-129463500D01*
X206000000Y-123111500D01*
X206019685Y-123044461D01*
X206072489Y-122998706D01*
X206124000Y-122987500D01*
X207376000Y-122987500D01*
X207443039Y-123007185D01*
G37*
%TD.AperFunction*%
%TD*%
%TA.AperFunction,Conductor*%
%TO.N,/Boost FB*%
G36*
X209443039Y-117619685D02*
G01*
X209488794Y-117672489D01*
X209500000Y-117724000D01*
X209500000Y-122426000D01*
X209480315Y-122493039D01*
X209427511Y-122538794D01*
X209376000Y-122550000D01*
X208424000Y-122550000D01*
X208356961Y-122530315D01*
X208311206Y-122477511D01*
X208300000Y-122426000D01*
X208300000Y-117724000D01*
X208319685Y-117656961D01*
X208372489Y-117611206D01*
X208424000Y-117600000D01*
X209376000Y-117600000D01*
X209443039Y-117619685D01*
G37*
%TD.AperFunction*%
%TD*%
%TA.AperFunction,Conductor*%
%TO.N,GND*%
G36*
X237043039Y-126919685D02*
G01*
X237088794Y-126972489D01*
X237100000Y-127024000D01*
X237100000Y-128176000D01*
X237080315Y-128243039D01*
X237027511Y-128288794D01*
X236976000Y-128300000D01*
X234874000Y-128300000D01*
X234806961Y-128280315D01*
X234761206Y-128227511D01*
X234750000Y-128176000D01*
X234750000Y-127024000D01*
X234769685Y-126956961D01*
X234822489Y-126911206D01*
X234874000Y-126900000D01*
X236976000Y-126900000D01*
X237043039Y-126919685D01*
G37*
%TD.AperFunction*%
%TD*%
%TA.AperFunction,Conductor*%
%TO.N,/VoutBoost*%
G36*
X232793039Y-122569685D02*
G01*
X232838794Y-122622489D01*
X232850000Y-122674000D01*
X232850000Y-123926000D01*
X232830315Y-123993039D01*
X232777511Y-124038794D01*
X232726000Y-124050000D01*
X229499000Y-124050000D01*
X229431961Y-124030315D01*
X229386206Y-123977511D01*
X229375000Y-123926000D01*
X229375000Y-123374500D01*
X229394685Y-123307461D01*
X229447489Y-123261706D01*
X229499000Y-123250500D01*
X229869750Y-123250500D01*
X229869751Y-123250499D01*
X229928231Y-123238867D01*
X229950481Y-123224000D01*
X230000000Y-123224000D01*
X230000000Y-123186398D01*
X230038867Y-123128231D01*
X230050500Y-123069748D01*
X230050500Y-122674000D01*
X230070185Y-122606961D01*
X230122989Y-122561206D01*
X230174500Y-122550000D01*
X232726000Y-122550000D01*
X232793039Y-122569685D01*
G37*
%TD.AperFunction*%
%TD*%
%TA.AperFunction,Conductor*%
%TO.N,GND*%
G36*
X222693039Y-117369685D02*
G01*
X222738794Y-117422489D01*
X222750000Y-117474000D01*
X222750000Y-118626000D01*
X222730315Y-118693039D01*
X222677511Y-118738794D01*
X222626000Y-118750000D01*
X220574000Y-118750000D01*
X220506961Y-118730315D01*
X220461206Y-118677511D01*
X220450000Y-118626000D01*
X220450000Y-117474000D01*
X220469685Y-117406961D01*
X220522489Y-117361206D01*
X220574000Y-117350000D01*
X222626000Y-117350000D01*
X222693039Y-117369685D01*
G37*
%TD.AperFunction*%
%TD*%
%TA.AperFunction,Conductor*%
%TO.N,GND*%
G36*
X207643039Y-120819685D02*
G01*
X207688794Y-120872489D01*
X207700000Y-120924000D01*
X207700000Y-122476000D01*
X207680315Y-122543039D01*
X207627511Y-122588794D01*
X207576000Y-122600000D01*
X205224000Y-122600000D01*
X205156961Y-122580315D01*
X205111206Y-122527511D01*
X205100000Y-122476000D01*
X205100000Y-120924000D01*
X205119685Y-120856961D01*
X205172489Y-120811206D01*
X205224000Y-120800000D01*
X207576000Y-120800000D01*
X207643039Y-120819685D01*
G37*
%TD.AperFunction*%
%TD*%
%TA.AperFunction,Conductor*%
%TO.N,+5V*%
G36*
X226815481Y-132700000D02*
G01*
X226811695Y-132700000D01*
X226810590Y-132646571D01*
X226810858Y-132645579D01*
X226810570Y-132642683D01*
X226817520Y-131991769D01*
X226849259Y-129019328D01*
X226849365Y-129018980D01*
X226815481Y-132700000D01*
G37*
%TD.AperFunction*%
%TD*%
%TA.AperFunction,Conductor*%
%TO.N,GND*%
G36*
X223243039Y-122069685D02*
G01*
X223288794Y-122122489D01*
X223300000Y-122174000D01*
X223300000Y-123426000D01*
X223280315Y-123493039D01*
X223227511Y-123538794D01*
X223176000Y-123550000D01*
X220974000Y-123550000D01*
X220906961Y-123530315D01*
X220861206Y-123477511D01*
X220850000Y-123426000D01*
X220850000Y-122174000D01*
X220869685Y-122106961D01*
X220922489Y-122061206D01*
X220974000Y-122050000D01*
X223176000Y-122050000D01*
X223243039Y-122069685D01*
G37*
%TD.AperFunction*%
%TD*%
%TA.AperFunction,Conductor*%
%TO.N,GND*%
G36*
X227543039Y-119369685D02*
G01*
X227588794Y-119422489D01*
X227600000Y-119474000D01*
X227600000Y-120350000D01*
X227763718Y-120350000D01*
X227819702Y-120366439D01*
X227820124Y-120365422D01*
X227829585Y-120369340D01*
X227830757Y-120369685D01*
X227831344Y-120370069D01*
X227831407Y-120370095D01*
X227908853Y-120385500D01*
X228091146Y-120385499D01*
X228168593Y-120370095D01*
X228168596Y-120370093D01*
X228179878Y-120365421D01*
X228180452Y-120366807D01*
X228185438Y-120365246D01*
X228201347Y-120355023D01*
X228232304Y-120350571D01*
X228234067Y-120350020D01*
X228236282Y-120350000D01*
X228263718Y-120350000D01*
X228319702Y-120366439D01*
X228320124Y-120365422D01*
X228329585Y-120369340D01*
X228330757Y-120369685D01*
X228331344Y-120370069D01*
X228331407Y-120370095D01*
X228408853Y-120385500D01*
X228591146Y-120385499D01*
X228668593Y-120370095D01*
X228668596Y-120370093D01*
X228679878Y-120365421D01*
X228680452Y-120366807D01*
X228685438Y-120365246D01*
X228701347Y-120355023D01*
X228732304Y-120350571D01*
X228734067Y-120350020D01*
X228736282Y-120350000D01*
X228763718Y-120350000D01*
X228819702Y-120366439D01*
X228820124Y-120365422D01*
X228829585Y-120369340D01*
X228830757Y-120369685D01*
X228831344Y-120370069D01*
X228831407Y-120370095D01*
X228908853Y-120385500D01*
X229091146Y-120385499D01*
X229168593Y-120370095D01*
X229168596Y-120370093D01*
X229179878Y-120365421D01*
X229180452Y-120366807D01*
X229185438Y-120365246D01*
X229201347Y-120355023D01*
X229232304Y-120350571D01*
X229234067Y-120350020D01*
X229236282Y-120350000D01*
X229263718Y-120350000D01*
X229319702Y-120366439D01*
X229320124Y-120365422D01*
X229329585Y-120369340D01*
X229330757Y-120369685D01*
X229331344Y-120370069D01*
X229331407Y-120370095D01*
X229408853Y-120385500D01*
X229591146Y-120385499D01*
X229668593Y-120370095D01*
X229668594Y-120370094D01*
X229680571Y-120367712D01*
X229680855Y-120369144D01*
X229736861Y-120363122D01*
X229799341Y-120394395D01*
X229834995Y-120454484D01*
X229832502Y-120524309D01*
X229829961Y-120531121D01*
X229814500Y-120608849D01*
X229814500Y-120791143D01*
X229829906Y-120868596D01*
X229834579Y-120879878D01*
X229833192Y-120880452D01*
X229834753Y-120885438D01*
X229844977Y-120901347D01*
X229849428Y-120932304D01*
X229849980Y-120934067D01*
X229850000Y-120936282D01*
X229850000Y-120963718D01*
X229833560Y-121019705D01*
X229834578Y-121020127D01*
X229830656Y-121029594D01*
X229830315Y-121030757D01*
X229829933Y-121031339D01*
X229829903Y-121031412D01*
X229814500Y-121108849D01*
X229814500Y-121291143D01*
X229829905Y-121368593D01*
X229834579Y-121379876D01*
X229831743Y-121381050D01*
X229839977Y-121393863D01*
X229844422Y-121424778D01*
X229844980Y-121426559D01*
X229845000Y-121428798D01*
X229845000Y-121471200D01*
X229831061Y-121518667D01*
X229834578Y-121520124D01*
X229829904Y-121531407D01*
X229814500Y-121608849D01*
X229814500Y-121791143D01*
X229829906Y-121868596D01*
X229834579Y-121879878D01*
X229833192Y-121880452D01*
X229834753Y-121885438D01*
X229844977Y-121901347D01*
X229849428Y-121932304D01*
X229849980Y-121934067D01*
X229850000Y-121936281D01*
X229850000Y-121963718D01*
X229833560Y-122019705D01*
X229834578Y-122020127D01*
X229830656Y-122029594D01*
X229830315Y-122030757D01*
X229829933Y-122031339D01*
X229829903Y-122031412D01*
X229814500Y-122108849D01*
X229814500Y-122291143D01*
X229829906Y-122368596D01*
X229834579Y-122379878D01*
X229833192Y-122380452D01*
X229834753Y-122385438D01*
X229844977Y-122401347D01*
X229849428Y-122432304D01*
X229849980Y-122434067D01*
X229850000Y-122436281D01*
X229850000Y-122463718D01*
X229833560Y-122519705D01*
X229834578Y-122520127D01*
X229830656Y-122529594D01*
X229830315Y-122530757D01*
X229829933Y-122531339D01*
X229829903Y-122531412D01*
X229814500Y-122608849D01*
X229814500Y-122791143D01*
X229832288Y-122880571D01*
X229830855Y-122880855D01*
X229836878Y-122936861D01*
X229805605Y-122999341D01*
X229745516Y-123034995D01*
X229675691Y-123032502D01*
X229668878Y-123029961D01*
X229591149Y-123014500D01*
X229408856Y-123014500D01*
X229351030Y-123026001D01*
X229331407Y-123029905D01*
X229331406Y-123029905D01*
X229331403Y-123029906D01*
X229320122Y-123034579D01*
X229319547Y-123033192D01*
X229314561Y-123034753D01*
X229298653Y-123044977D01*
X229267695Y-123049428D01*
X229265933Y-123049980D01*
X229263718Y-123050000D01*
X229236282Y-123050000D01*
X229180297Y-123033560D01*
X229179876Y-123034578D01*
X229170414Y-123030659D01*
X229169243Y-123030315D01*
X229168655Y-123029930D01*
X229168592Y-123029904D01*
X229091149Y-123014500D01*
X228908856Y-123014500D01*
X228851030Y-123026001D01*
X228831407Y-123029905D01*
X228831406Y-123029905D01*
X228831403Y-123029906D01*
X228820125Y-123034578D01*
X228818950Y-123031742D01*
X228806137Y-123039977D01*
X228775188Y-123044426D01*
X228773422Y-123044980D01*
X228771202Y-123045000D01*
X228728799Y-123045000D01*
X228681332Y-123031062D01*
X228679876Y-123034578D01*
X228668592Y-123029904D01*
X228591149Y-123014500D01*
X228408856Y-123014500D01*
X228351030Y-123026001D01*
X228331407Y-123029905D01*
X228331406Y-123029905D01*
X228331403Y-123029906D01*
X228320125Y-123034578D01*
X228318950Y-123031742D01*
X228306137Y-123039977D01*
X228275188Y-123044426D01*
X228273422Y-123044980D01*
X228271202Y-123045000D01*
X228228799Y-123045000D01*
X228181332Y-123031062D01*
X228179876Y-123034578D01*
X228168592Y-123029904D01*
X228091149Y-123014500D01*
X227908856Y-123014500D01*
X227851030Y-123026001D01*
X227831407Y-123029905D01*
X227831406Y-123029905D01*
X227831403Y-123029906D01*
X227820122Y-123034579D01*
X227819547Y-123033192D01*
X227814561Y-123034753D01*
X227798653Y-123044977D01*
X227767695Y-123049428D01*
X227765933Y-123049980D01*
X227763718Y-123050000D01*
X227736282Y-123050000D01*
X227680297Y-123033560D01*
X227679876Y-123034578D01*
X227670414Y-123030659D01*
X227669243Y-123030315D01*
X227668655Y-123029930D01*
X227668592Y-123029904D01*
X227591149Y-123014500D01*
X227408856Y-123014500D01*
X227364357Y-123023351D01*
X227331407Y-123029905D01*
X227331406Y-123029905D01*
X227319429Y-123032288D01*
X227319144Y-123030857D01*
X227263123Y-123036875D01*
X227200647Y-123005594D01*
X227165001Y-122945501D01*
X227167501Y-122875676D01*
X227170040Y-122868869D01*
X227185499Y-122791150D01*
X227185500Y-122791147D01*
X227185499Y-122608854D01*
X227170095Y-122531407D01*
X227170093Y-122531404D01*
X227170093Y-122531403D01*
X227165421Y-122520122D01*
X227166807Y-122519547D01*
X227165246Y-122514559D01*
X227155023Y-122498652D01*
X227150570Y-122467682D01*
X227150020Y-122465925D01*
X227150000Y-122463717D01*
X227150000Y-122436281D01*
X227166439Y-122380294D01*
X227165422Y-122379873D01*
X227169341Y-122370410D01*
X227169685Y-122369242D01*
X227170068Y-122368656D01*
X227170093Y-122368596D01*
X227170095Y-122368593D01*
X227185500Y-122291147D01*
X227185499Y-122108854D01*
X227170095Y-122031407D01*
X227170093Y-122031404D01*
X227170093Y-122031403D01*
X227165421Y-122020122D01*
X227166807Y-122019547D01*
X227165246Y-122014559D01*
X227155023Y-121998652D01*
X227150570Y-121967682D01*
X227150020Y-121965925D01*
X227150000Y-121963717D01*
X227150000Y-121936281D01*
X227166439Y-121880294D01*
X227165422Y-121879873D01*
X227169341Y-121870410D01*
X227169685Y-121869242D01*
X227170068Y-121868656D01*
X227170093Y-121868596D01*
X227170095Y-121868593D01*
X227185500Y-121791147D01*
X227185499Y-121608854D01*
X227170095Y-121531407D01*
X227170093Y-121531404D01*
X227170093Y-121531403D01*
X227165421Y-121520122D01*
X227166807Y-121519547D01*
X227165246Y-121514559D01*
X227155023Y-121498652D01*
X227150570Y-121467682D01*
X227150020Y-121465925D01*
X227150000Y-121463717D01*
X227150000Y-121436281D01*
X227166439Y-121380294D01*
X227165422Y-121379873D01*
X227169341Y-121370410D01*
X227169685Y-121369242D01*
X227170068Y-121368656D01*
X227170092Y-121368597D01*
X227170095Y-121368593D01*
X227185500Y-121291147D01*
X227185499Y-121108854D01*
X227170095Y-121031407D01*
X227170093Y-121031404D01*
X227170093Y-121031403D01*
X227165421Y-121020122D01*
X227166807Y-121019547D01*
X227150020Y-120965925D01*
X227150000Y-120963717D01*
X227150000Y-120850000D01*
X226274000Y-120850000D01*
X226265314Y-120847449D01*
X226256353Y-120848738D01*
X226232312Y-120837759D01*
X226206961Y-120830315D01*
X226201033Y-120823474D01*
X226192797Y-120819713D01*
X226178507Y-120797478D01*
X226161206Y-120777511D01*
X226158918Y-120766996D01*
X226155023Y-120760935D01*
X226150000Y-120726000D01*
X226150000Y-120674000D01*
X226169685Y-120606961D01*
X226222489Y-120561206D01*
X226274000Y-120550000D01*
X227350000Y-120550000D01*
X227350000Y-119474000D01*
X227352550Y-119465314D01*
X227351262Y-119456353D01*
X227362240Y-119432312D01*
X227369685Y-119406961D01*
X227376525Y-119401033D01*
X227380287Y-119392797D01*
X227402521Y-119378507D01*
X227422489Y-119361206D01*
X227433003Y-119358918D01*
X227439065Y-119355023D01*
X227474000Y-119350000D01*
X227476000Y-119350000D01*
X227543039Y-119369685D01*
G37*
%TD.AperFunction*%
%TD*%
M02*
